{
date = "2013-03-12 14:13:40 +0200";
familyName = "Open Sans Hebrew Condensed";
fontMaster = (
{
alignmentZones = (
"{3209, 16}",
"{1462, 22}",
"{1290, 30}",
"{1118, 16}",
"{0, -31}",
"{-1008, -16}"
);
ascender = 3209;
capHeight = 1462;
customParameters = (
{
name = TypoAscender;
value = 3209;
},
{
name = TypoDescender;
value = "-1008";
}
);
descender = "-1008";
id = "A1CEB6E1-F2CA-49E9-B0B5-3CAF1AD39F7C";
weight = Light;
weightValue = 300;
width = Condensed;
widthValue = 3;
xHeight = 1118;
}
);
glyphs = (
{
glyphname = A;
lastChange = "2013-03-07 05:31:29 +0200";
layers = (
{
layerId = "A1CEB6E1-F2CA-49E9-B0B5-3CAF1AD39F7C";
name = "Light Condensed";
paths = (
{
closed = 1;
nodes = (
"352 1462 LINE",
"0 0 LINE",
"102 0 LINE",
"229 530 LINE",
"584 530 LINE",
"713 0 LINE",
"813 0 LINE",
"453 1462 LINE"
);
},
{
closed = 1;
nodes = (
"408 1293 OFFCURVE",
"419 1235 OFFCURVE",
"432 1174 CURVE SMOOTH",
"561 629 LINE",
"248 629 LINE",
"373 1174 LINE SMOOTH",
"386 1232 OFFCURVE",
"395 1290 OFFCURVE",
"401 1348 CURVE"
);
}
);
width = 813;
}
);
unicode = 0041;
},
{
glyphname = Aacute;
lastChange = "2013-03-07 05:31:29 +0200";
layers = (
{
layerId = "A1CEB6E1-F2CA-49E9-B0B5-3CAF1AD39F7C";
name = "Light Condensed";
paths = (
{
closed = 1;
nodes = (
"352 1462 LINE",
"0 0 LINE",
"102 0 LINE",
"229 530 LINE",
"584 530 LINE",
"713 0 LINE",
"813 0 LINE",
"453 1462 LINE"
);
},
{
closed = 1;
nodes = (
"408 1293 OFFCURVE",
"419 1235 OFFCURVE",
"432 1174 CURVE SMOOTH",
"561 629 LINE",
"248 629 LINE",
"373 1174 LINE SMOOTH",
"386 1232 OFFCURVE",
"395 1290 OFFCURVE",
"401 1348 CURVE"
);
},
{
closed = 1;
nodes = (
"530 1907 LINE",
"487 1813 OFFCURVE",
"424 1711 OFFCURVE",
"339 1600 CURVE",
"339 1579 LINE",
"386 1579 LINE",
"433 1618 OFFCURVE",
"483 1668 OFFCURVE",
"536 1729 CURVE SMOOTH",
"589 1790 OFFCURVE",
"629 1843 OFFCURVE",
"655 1890 CURVE",
"655 1907 LINE"
);
}
);
width = 813;
}
);
unicode = 00C1;
},
{
glyphname = Acircumflex;
lastChange = "2013-03-07 05:31:29 +0200";
layers = (
{
layerId = "A1CEB6E1-F2CA-49E9-B0B5-3CAF1AD39F7C";
name = "Light Condensed";
paths = (
{
closed = 1;
nodes = (
"352 1462 LINE",
"0 0 LINE",
"102 0 LINE",
"229 530 LINE",
"584 530 LINE",
"713 0 LINE",
"813 0 LINE",
"453 1462 LINE"
);
},
{
closed = 1;
nodes = (
"408 1293 OFFCURVE",
"419 1235 OFFCURVE",
"432 1174 CURVE SMOOTH",
"561 629 LINE",
"248 629 LINE",
"373 1174 LINE SMOOTH",
"386 1232 OFFCURVE",
"395 1290 OFFCURVE",
"401 1348 CURVE"
);
},
{
closed = 1;
nodes = (
"353 1907 LINE",
"310 1813 OFFCURVE",
"248 1710 OFFCURVE",
"167 1598 CURVE",
"167 1579 LINE",
"210 1579 LINE",
"266 1632 OFFCURVE",
"336 1717 OFFCURVE",
"403 1792 CURVE",
"500 1680 LINE SMOOTH",
"539 1633 OFFCURVE",
"570 1600 OFFCURVE",
"591 1579 CURVE",
"638 1579 LINE",
"638 1598 LINE",
"600 1648 OFFCURVE",
"563 1703 OFFCURVE",
"526 1762 CURVE SMOOTH",
"490 1822 OFFCURVE",
"464 1870 OFFCURVE",
"448 1907 CURVE"
);
}
);
width = 813;
}
);
unicode = 00C2;
},
{
glyphname = Adieresis;
lastChange = "2013-03-07 05:31:29 +0200";
layers = (
{
layerId = "A1CEB6E1-F2CA-49E9-B0B5-3CAF1AD39F7C";
name = "Light Condensed";
paths = (
{
closed = 1;
nodes = (
"352 1462 LINE",
"0 0 LINE",
"102 0 LINE",
"229 530 LINE",
"584 530 LINE",
"713 0 LINE",
"813 0 LINE",
"453 1462 LINE"
);
},
{
closed = 1;
nodes = (
"408 1293 OFFCURVE",
"419 1235 OFFCURVE",
"432 1174 CURVE SMOOTH",
"561 629 LINE",
"248 629 LINE",
"373 1174 LINE SMOOTH",
"386 1232 OFFCURVE",
"395 1290 OFFCURVE",
"401 1348 CURVE"
);
},
{
closed = 1;
nodes = (
"222 1808 OFFCURVE",
"191 1784 OFFCURVE",
"191 1727 CURVE SMOOTH",
"191 1668 OFFCURVE",
"222 1643 OFFCURVE",
"255 1643 CURVE SMOOTH",
"286 1643 OFFCURVE",
"316 1668 OFFCURVE",
"316 1727 CURVE SMOOTH",
"316 1784 OFFCURVE",
"286 1808 OFFCURVE",
"255 1808 CURVE SMOOTH"
);
},
{
closed = 1;
nodes = (
"527 1808 OFFCURVE",
"496 1784 OFFCURVE",
"496 1727 CURVE SMOOTH",
"496 1668 OFFCURVE",
"527 1643 OFFCURVE",
"558 1643 CURVE SMOOTH",
"591 1643 OFFCURVE",
"621 1668 OFFCURVE",
"621 1727 CURVE SMOOTH",
"621 1784 OFFCURVE",
"591 1808 OFFCURVE",
"558 1808 CURVE SMOOTH"
);
}
);
width = 813;
}
);
unicode = 00C4;
},
{
glyphname = Agrave;
lastChange = "2013-03-07 05:31:29 +0200";
layers = (
{
layerId = "A1CEB6E1-F2CA-49E9-B0B5-3CAF1AD39F7C";
name = "Light Condensed";
paths = (
{
closed = 1;
nodes = (
"352 1462 LINE",
"0 0 LINE",
"102 0 LINE",
"229 530 LINE",
"584 530 LINE",
"713 0 LINE",
"813 0 LINE",
"453 1462 LINE"
);
},
{
closed = 1;
nodes = (
"408 1293 OFFCURVE",
"419 1235 OFFCURVE",
"432 1174 CURVE SMOOTH",
"561 629 LINE",
"248 629 LINE",
"373 1174 LINE SMOOTH",
"386 1232 OFFCURVE",
"395 1290 OFFCURVE",
"401 1348 CURVE"
);
},
{
closed = 1;
nodes = (
"146 1907 LINE",
"146 1890 LINE",
"170 1845 OFFCURVE",
"210 1790 OFFCURVE",
"265 1727 CURVE SMOOTH",
"321 1664 OFFCURVE",
"371 1614 OFFCURVE",
"414 1579 CURVE",
"462 1579 LINE",
"462 1600 LINE",
"427 1644 OFFCURVE",
"390 1696 OFFCURVE",
"353 1755 CURVE SMOOTH",
"316 1814 OFFCURVE",
"289 1865 OFFCURVE",
"271 1907 CURVE"
);
}
);
width = 813;
}
);
unicode = 00C0;
},
{
glyphname = Aring;
lastChange = "2013-03-07 05:31:29 +0200";
layers = (
{
layerId = "A1CEB6E1-F2CA-49E9-B0B5-3CAF1AD39F7C";
name = "Light Condensed";
paths = (
{
closed = 1;
nodes = (
"352 1462 LINE",
"0 0 LINE",
"102 0 LINE",
"229 530 LINE",
"584 530 LINE",
"713 0 LINE",
"813 0 LINE",
"453 1462 LINE"
);
},
{
closed = 1;
nodes = (
"408 1293 OFFCURVE",
"419 1235 OFFCURVE",
"432 1174 CURVE SMOOTH",
"561 629 LINE",
"248 629 LINE",
"373 1174 LINE SMOOTH",
"386 1232 OFFCURVE",
"395 1290 OFFCURVE",
"401 1348 CURVE"
);
},
{
closed = 1;
nodes = (
"282 1771 OFFCURVE",
"206 1698 OFFCURVE",
"206 1585 CURVE SMOOTH",
"206 1470 OFFCURVE",
"281 1398 OFFCURVE",
"405 1398 CURVE SMOOTH",
"526 1398 OFFCURVE",
"604 1470 OFFCURVE",
"604 1589 CURVE SMOOTH",
"604 1644 OFFCURVE",
"585 1688 OFFCURVE",
"548 1721 CURVE SMOOTH",
"511 1754 OFFCURVE",
"463 1771 OFFCURVE",
"405 1771 CURVE SMOOTH"
);
},
{
closed = 1;
nodes = (
"484 1701 OFFCURVE",
"526 1653 OFFCURVE",
"526 1585 CURVE SMOOTH",
"526 1514 OFFCURVE",
"477 1468 OFFCURVE",
"405 1468 CURVE SMOOTH",
"325 1468 OFFCURVE",
"284 1514 OFFCURVE",
"284 1585 CURVE SMOOTH",
"284 1653 OFFCURVE",
"333 1701 OFFCURVE",
"405 1701 CURVE SMOOTH"
);
}
);
width = 813;
}
);
unicode = 00C5;
},
{
glyphname = Atilde;
lastChange = "2013-03-07 05:31:29 +0200";
layers = (
{
layerId = "A1CEB6E1-F2CA-49E9-B0B5-3CAF1AD39F7C";
name = "Light Condensed";
paths = (
{
closed = 1;
nodes = (
"352 1462 LINE",
"0 0 LINE",
"102 0 LINE",
"229 530 LINE",
"584 530 LINE",
"713 0 LINE",
"813 0 LINE",
"453 1462 LINE"
);
},
{
closed = 1;
nodes = (
"408 1293 OFFCURVE",
"419 1235 OFFCURVE",
"432 1174 CURVE SMOOTH",
"561 629 LINE",
"248 629 LINE",
"373 1174 LINE SMOOTH",
"386 1232 OFFCURVE",
"395 1290 OFFCURVE",
"401 1348 CURVE"
);
},
{
closed = 1;
nodes = (
"613 1792 LINE",
"601 1716 OFFCURVE",
"581 1663 OFFCURVE",
"534 1663 CURVE SMOOTH",
"468 1663 OFFCURVE",
"386 1790 OFFCURVE",
"292 1790 CURVE SMOOTH",
"196 1790 OFFCURVE",
"142 1708 OFFCURVE",
"126 1579 CURVE",
"200 1579 LINE",
"212 1655 OFFCURVE",
"241 1708 OFFCURVE",
"284 1708 CURVE SMOOTH",
"345 1708 OFFCURVE",
"433 1581 OFFCURVE",
"527 1581 CURVE SMOOTH",
"616 1581 OFFCURVE",
"675 1657 OFFCURVE",
"687 1792 CURVE"
);
}
);
width = 813;
}
);
unicode = 00C3;
},
{
glyphname = AE;
lastChange = "2013-03-07 05:31:29 +0200";
layers = (
{
layerId = "A1CEB6E1-F2CA-49E9-B0B5-3CAF1AD39F7C";
name = "Light Condensed";
paths = (
{
closed = 1;
nodes = (
"434 1462 LINE",
"0 0 LINE",
"104 0 LINE",
"256 530 LINE",
"524 530 LINE",
"524 0 LINE",
"1055 0 LINE",
"1055 93.9999 LINE",
"623 93.9999 LINE",
"623 719 LINE",
"1030 719 LINE",
"1030 813 LINE",
"623 813 LINE",
"623 1366 LINE",
"1055 1366 LINE",
"1055 1462 LINE"
);
},
{
closed = 1;
nodes = (
"524 629 LINE",
"283 629 LINE",
"496 1364 LINE",
"524 1364 LINE"
);
}
);
width = 1153;
}
);
unicode = 00C6;
},
{
glyphname = B;
lastChange = "2013-03-07 05:31:29 +0200";
layers = (
{
layerId = "A1CEB6E1-F2CA-49E9-B0B5-3CAF1AD39F7C";
name = "Light Condensed";
paths = (
{
closed = 1;
nodes = (
"160 1462 LINE",
"160 0 LINE",
"496 0 LINE SMOOTH",
"601 0 OFFCURVE",
"682 37 OFFCURVE",
"740 110 CURVE SMOOTH",
"798 183 OFFCURVE",
"827 285 OFFCURVE",
"827 416 CURVE SMOOTH",
"827 620 OFFCURVE",
"747 731 OFFCURVE",
"580 766 CURVE",
"580 774 LINE",
"725 803 OFFCURVE",
"797 916 OFFCURVE",
"797 1114 CURVE SMOOTH",
"797 1343 OFFCURVE",
"669 1462 OFFCURVE",
"440 1462 CURVE SMOOTH"
);
},
{
closed = 1;
nodes = (
"626 721 OFFCURVE",
"725 613 OFFCURVE",
"725 418 CURVE SMOOTH",
"725 199 OFFCURVE",
"644 90 OFFCURVE",
"483 90 CURVE SMOOTH",
"258 90 LINE",
"258 721 LINE",
"455 721 LINE SMOOTH"
);
},
{
closed = 1;
nodes = (
"609 1372 OFFCURVE",
"696 1281 OFFCURVE",
"696 1116 CURVE SMOOTH",
"696 911 OFFCURVE",
"625 811 OFFCURVE",
"442 811 CURVE SMOOTH",
"258 811 LINE",
"258 1372 LINE",
"440 1372 LINE SMOOTH"
);
}
);
width = 907;
}
);
unicode = 0042;
},
{
glyphname = C;
lastChange = "2013-03-07 05:31:29 +0200";
layers = (
{
layerId = "A1CEB6E1-F2CA-49E9-B0B5-3CAF1AD39F7C";
name = "Light Condensed";
paths = (
{
closed = 1;
nodes = (
"432 1485 OFFCURVE",
"318 1418 OFFCURVE",
"235 1285 CURVE SMOOTH",
"152 1152 OFFCURVE",
"111 967.999 OFFCURVE",
"111 735 CURVE SMOOTH",
"108 267 OFFCURVE",
"296 -24 OFFCURVE",
"573 -20 CURVE SMOOTH",
"658 -20 OFFCURVE",
"726 -5 OFFCURVE",
"778 25 CURVE",
"778 115 LINE",
"723 88 OFFCURVE",
"658 74 OFFCURVE",
"582 74 CURVE SMOOTH",
"360 70 OFFCURVE",
"210 332 OFFCURVE",
"213 733 CURVE SMOOTH",
"213 939 OFFCURVE",
"245 1100 OFFCURVE",
"310 1216 CURVE SMOOTH",
"375 1333 OFFCURVE",
"463 1391 OFFCURVE",
"573 1391 CURVE SMOOTH",
"644 1391 OFFCURVE",
"708 1373 OFFCURVE",
"764 1337 CURVE",
"809 1423 LINE",
"742 1464 OFFCURVE",
"664 1485 OFFCURVE",
"575 1485 CURVE SMOOTH"
);
}
);
width = 860;
}
);
unicode = 0043;
},
{
glyphname = Ccedilla;
lastChange = "2013-03-07 05:31:29 +0200";
layers = (
{
layerId = "A1CEB6E1-F2CA-49E9-B0B5-3CAF1AD39F7C";
name = "Light Condensed";
paths = (
{
closed = 1;
nodes = (
"432 1485 OFFCURVE",
"318 1418 OFFCURVE",
"235 1285 CURVE SMOOTH",
"152 1152 OFFCURVE",
"111 967.999 OFFCURVE",
"111 735 CURVE SMOOTH",
"108 267 OFFCURVE",
"296 -24 OFFCURVE",
"573 -20 CURVE SMOOTH",
"658 -20 OFFCURVE",
"726 -5 OFFCURVE",
"778 25 CURVE",
"778 115 LINE",
"723 88 OFFCURVE",
"658 74 OFFCURVE",
"582 74 CURVE SMOOTH",
"360 70 OFFCURVE",
"210 332 OFFCURVE",
"213 733 CURVE SMOOTH",
"213 939 OFFCURVE",
"245 1100 OFFCURVE",
"310 1216 CURVE SMOOTH",
"375 1333 OFFCURVE",
"463 1391 OFFCURVE",
"573 1391 CURVE SMOOTH",
"644 1391 OFFCURVE",
"708 1373 OFFCURVE",
"764 1337 CURVE",
"809 1423 LINE",
"742 1464 OFFCURVE",
"664 1485 OFFCURVE",
"575 1485 CURVE SMOOTH"
);
},
{
closed = 1;
nodes = (
"508 0 LINE",
"436 -160 LINE",
"540 -176 OFFCURVE",
"602 -213 OFFCURVE",
"602 -293 CURVE SMOOTH",
"602 -365 OFFCURVE",
"554 -414 OFFCURVE",
"450 -414 CURVE SMOOTH",
"419 -414 OFFCURVE",
"393 -410 OFFCURVE",
"372 -403 CURVE",
"372 -481 LINE",
"388 -488 OFFCURVE",
"417 -492 OFFCURVE",
"458 -492 CURVE SMOOTH",
"603 -492 OFFCURVE",
"692 -424 OFFCURVE",
"692 -291 CURVE SMOOTH",
"692 -200 OFFCURVE",
"639 -141 OFFCURVE",
"532 -115 CURVE",
"583 0 LINE"
);
}
);
width = 860;
}
);
unicode = 00C7;
},
{
glyphname = D;
lastChange = "2013-03-07 05:31:29 +0200";
layers = (
{
layerId = "A1CEB6E1-F2CA-49E9-B0B5-3CAF1AD39F7C";
name = "Light Condensed";
paths = (
{
closed = 1;
nodes = (
"160 1462 LINE",
"160 0 LINE",
"420 0 LINE SMOOTH",
"730 0 OFFCURVE",
"885 248 OFFCURVE",
"885 745 CURVE SMOOTH",
"885 1214 OFFCURVE",
"727 1462 OFFCURVE",
"426 1462 CURVE SMOOTH"
);
},
{
closed = 1;
nodes = (
"659 1372 OFFCURVE",
"782 1151 OFFCURVE",
"782 739 CURVE SMOOTH",
"782 316 OFFCURVE",
"667 90 OFFCURVE",
"414 90 CURVE SMOOTH",
"258 90 LINE",
"258 1372 LINE",
"422 1372 LINE SMOOTH"
);
}
);
width = 994;
}
);
unicode = 0044;
},
{
glyphname = Eth;
lastChange = "2013-03-07 05:31:29 +0200";
layers = (
{
layerId = "A1CEB6E1-F2CA-49E9-B0B5-3CAF1AD39F7C";
name = "Light Condensed";
paths = (
{
closed = 1;
nodes = (
"160 1462 LINE",
"160 791 LINE",
"61 791 LINE",
"61 700 LINE",
"160 700 LINE",
"160 0 LINE",
"420 0 LINE SMOOTH",
"730 0 OFFCURVE",
"885 248 OFFCURVE",
"885 745 CURVE SMOOTH",
"885 1214 OFFCURVE",
"727 1462 OFFCURVE",
"426 1462 CURVE SMOOTH"
);
},
{
closed = 1;
nodes = (
"659 1372 OFFCURVE",
"782 1151 OFFCURVE",
"782 739 CURVE SMOOTH",
"782 316 OFFCURVE",
"667 90 OFFCURVE",
"414 90 CURVE SMOOTH",
"258 90 LINE",
"258 700 LINE",
"483 700 LINE",
"483 791 LINE",
"258 791 LINE",
"258 1372 LINE",
"422 1372 LINE SMOOTH"
);
}
);
width = 994;
}
);
unicode = 00D0;
},
{
glyphname = E;
lastChange = "2013-03-07 05:31:29 +0200";
layers = (
{
layerId = "A1CEB6E1-F2CA-49E9-B0B5-3CAF1AD39F7C";
name = "Light Condensed";
paths = (
{
closed = 1;
nodes = (
"160 1462 LINE",
"160 0 LINE",
"690 0 LINE",
"690 93.9999 LINE",
"258 93.9999 LINE",
"258 719 LINE",
"666 719 LINE",
"666 813 LINE",
"258 813 LINE",
"258 1368 LINE",
"690 1368 LINE",
"690 1462 LINE"
);
}
);
width = 788;
}
);
unicode = 0045;
},
{
glyphname = Eacute;
lastChange = "2013-03-07 05:31:29 +0200";
layers = (
{
layerId = "A1CEB6E1-F2CA-49E9-B0B5-3CAF1AD39F7C";
name = "Light Condensed";
paths = (
{
closed = 1;
nodes = (
"160 1462 LINE",
"160 0 LINE",
"690 0 LINE",
"690 93.9999 LINE",
"258 93.9999 LINE",
"258 719 LINE",
"666 719 LINE",
"666 813 LINE",
"258 813 LINE",
"258 1368 LINE",
"690 1368 LINE",
"690 1462 LINE"
);
},
{
closed = 1;
nodes = (
"515 1907 LINE",
"472 1813 OFFCURVE",
"409 1711 OFFCURVE",
"324 1600 CURVE",
"324 1579 LINE",
"371 1579 LINE",
"418 1618 OFFCURVE",
"468 1668 OFFCURVE",
"521 1729 CURVE SMOOTH",
"574 1790 OFFCURVE",
"614 1843 OFFCURVE",
"640 1890 CURVE",
"640 1907 LINE"
);
}
);
width = 788;
}
);
unicode = 00C9;
},
{
glyphname = Ecircumflex;
lastChange = "2013-03-07 05:31:29 +0200";
layers = (
{
layerId = "A1CEB6E1-F2CA-49E9-B0B5-3CAF1AD39F7C";
name = "Light Condensed";
paths = (
{
closed = 1;
nodes = (
"160 1462 LINE",
"160 0 LINE",
"690 0 LINE",
"690 93.9999 LINE",
"258 93.9999 LINE",
"258 719 LINE",
"666 719 LINE",
"666 813 LINE",
"258 813 LINE",
"258 1368 LINE",
"690 1368 LINE",
"690 1462 LINE"
);
},
{
closed = 1;
nodes = (
"367 1907 LINE",
"324 1813 OFFCURVE",
"262 1710 OFFCURVE",
"181 1598 CURVE",
"181 1579 LINE",
"224 1579 LINE",
"280 1632 OFFCURVE",
"350 1717 OFFCURVE",
"417 1792 CURVE",
"514 1680 LINE SMOOTH",
"553 1633 OFFCURVE",
"584 1600 OFFCURVE",
"605 1579 CURVE",
"652 1579 LINE",
"652 1598 LINE",
"614 1648 OFFCURVE",
"577 1703 OFFCURVE",
"540 1762 CURVE SMOOTH",
"504 1822 OFFCURVE",
"478 1870 OFFCURVE",
"462 1907 CURVE"
);
}
);
width = 788;
}
);
unicode = 00CA;
},
{
glyphname = Edieresis;
lastChange = "2013-03-07 05:31:29 +0200";
layers = (
{
layerId = "A1CEB6E1-F2CA-49E9-B0B5-3CAF1AD39F7C";
name = "Light Condensed";
paths = (
{
closed = 1;
nodes = (
"160 1462 LINE",
"160 0 LINE",
"690 0 LINE",
"690 93.9999 LINE",
"258 93.9999 LINE",
"258 719 LINE",
"666 719 LINE",
"666 813 LINE",
"258 813 LINE",
"258 1368 LINE",
"690 1368 LINE",
"690 1462 LINE"
);
},
{
closed = 1;
nodes = (
"233 1808 OFFCURVE",
"202 1784 OFFCURVE",
"202 1727 CURVE SMOOTH",
"202 1668 OFFCURVE",
"233 1643 OFFCURVE",
"266 1643 CURVE SMOOTH",
"297 1643 OFFCURVE",
"327 1668 OFFCURVE",
"327 1727 CURVE SMOOTH",
"327 1784 OFFCURVE",
"297 1808 OFFCURVE",
"266 1808 CURVE SMOOTH"
);
},
{
closed = 1;
nodes = (
"538 1808 OFFCURVE",
"507 1784 OFFCURVE",
"507 1727 CURVE SMOOTH",
"507 1668 OFFCURVE",
"538 1643 OFFCURVE",
"569 1643 CURVE SMOOTH",
"602 1643 OFFCURVE",
"632 1668 OFFCURVE",
"632 1727 CURVE SMOOTH",
"632 1784 OFFCURVE",
"602 1808 OFFCURVE",
"569 1808 CURVE SMOOTH"
);
}
);
width = 788;
}
);
unicode = 00CB;
},
{
glyphname = Egrave;
lastChange = "2013-03-07 05:31:29 +0200";
layers = (
{
layerId = "A1CEB6E1-F2CA-49E9-B0B5-3CAF1AD39F7C";
name = "Light Condensed";
paths = (
{
closed = 1;
nodes = (
"160 1462 LINE",
"160 0 LINE",
"690 0 LINE",
"690 93.9999 LINE",
"258 93.9999 LINE",
"258 719 LINE",
"666 719 LINE",
"666 813 LINE",
"258 813 LINE",
"258 1368 LINE",
"690 1368 LINE",
"690 1462 LINE"
);
},
{
closed = 1;
nodes = (
"199 1907 LINE",
"199 1890 LINE",
"223 1845 OFFCURVE",
"263 1790 OFFCURVE",
"318 1727 CURVE SMOOTH",
"374 1664 OFFCURVE",
"424 1614 OFFCURVE",
"467 1579 CURVE",
"515 1579 LINE",
"515 1600 LINE",
"480 1644 OFFCURVE",
"443 1696 OFFCURVE",
"406 1755 CURVE SMOOTH",
"369 1814 OFFCURVE",
"342 1865 OFFCURVE",
"324 1907 CURVE"
);
}
);
width = 788;
}
);
unicode = 00C8;
},
{
glyphname = F;
lastChange = "2013-03-07 05:31:29 +0200";
layers = (
{
layerId = "A1CEB6E1-F2CA-49E9-B0B5-3CAF1AD39F7C";
name = "Light Condensed";
paths = (
{
closed = 1;
nodes = (
"160 1462 LINE",
"160 0 LINE",
"258 0 LINE",
"258 653 LINE",
"668 653 LINE",
"668 748 LINE",
"258 748 LINE",
"258 1368 LINE",
"692 1368 LINE",
"692 1462 LINE"
);
}
);
width = 729;
}
);
unicode = 0046;
},
{
glyphname = G;
lastChange = "2013-03-07 05:31:29 +0200";
layers = (
{
layerId = "A1CEB6E1-F2CA-49E9-B0B5-3CAF1AD39F7C";
name = "Light Condensed";
paths = (
{
closed = 1;
nodes = (
"466 1483 OFFCURVE",
"338 1418 OFFCURVE",
"247 1287 CURVE SMOOTH",
"156 1156 OFFCURVE",
"111 971.999 OFFCURVE",
"111 735 CURVE SMOOTH",
"111 498 OFFCURVE",
"155 313 OFFCURVE",
"243 180 CURVE SMOOTH",
"331 47 OFFCURVE",
"455 -20 OFFCURVE",
"614 -20 CURVE SMOOTH",
"734 -20 OFFCURVE",
"850 2 OFFCURVE",
"961 45 CURVE",
"961 737 LINE",
"641 737 LINE",
"641 643 LINE",
"862 643 LINE",
"862 111 LINE",
"796 86 OFFCURVE",
"716 74 OFFCURVE",
"623 74 CURVE SMOOTH",
"493 74 OFFCURVE",
"392 131 OFFCURVE",
"321 246 CURVE SMOOTH",
"250 361 OFFCURVE",
"215 524 OFFCURVE",
"215 733 CURVE SMOOTH",
"215 1161 OFFCURVE",
"358 1391 OFFCURVE",
"631 1391 CURVE SMOOTH",
"716 1391 OFFCURVE",
"805 1362 OFFCURVE",
"897 1303 CURVE",
"944 1389 LINE",
"846 1452 OFFCURVE",
"742 1483 OFFCURVE",
"631 1483 CURVE SMOOTH"
);
}
);
width = 1075;
}
);
unicode = 0047;
},
{
glyphname = H;
lastChange = "2013-03-07 05:31:29 +0200";
layers = (
{
layerId = "A1CEB6E1-F2CA-49E9-B0B5-3CAF1AD39F7C";
name = "Light Condensed";
paths = (
{
closed = 1;
nodes = (
"768 1462 LINE",
"768 813 LINE",
"258 813 LINE",
"258 1462 LINE",
"160 1462 LINE",
"160 0 LINE",
"258 0 LINE",
"258 719 LINE",
"768 719 LINE",
"768 0 LINE",
"866 0 LINE",
"866 1462 LINE"
);
}
);
width = 1026;
}
);
unicode = 0048;
},
{
glyphname = I;
lastChange = "2013-03-07 05:31:29 +0200";
layers = (
{
layerId = "A1CEB6E1-F2CA-49E9-B0B5-3CAF1AD39F7C";
name = "Light Condensed";
paths = (
{
closed = 1;
nodes = (
"160 1462 LINE",
"160 0 LINE",
"258 0 LINE",
"258 1462 LINE"
);
}
);
width = 418;
}
);
unicode = 0049;
},
{
glyphname = Iacute;
lastChange = "2013-03-07 05:31:29 +0200";
layers = (
{
layerId = "A1CEB6E1-F2CA-49E9-B0B5-3CAF1AD39F7C";
name = "Light Condensed";
paths = (
{
closed = 1;
nodes = (
"160 1462 LINE",
"160 0 LINE",
"258 0 LINE",
"258 1462 LINE"
);
},
{
closed = 1;
nodes = (
"345 1907 LINE",
"302 1813 OFFCURVE",
"239 1711 OFFCURVE",
"154 1600 CURVE",
"154 1579 LINE",
"201 1579 LINE",
"248 1618 OFFCURVE",
"298 1668 OFFCURVE",
"351 1729 CURVE SMOOTH",
"404 1790 OFFCURVE",
"444 1843 OFFCURVE",
"470 1890 CURVE",
"470 1907 LINE"
);
}
);
width = 418;
}
);
unicode = 00CD;
},
{
glyphname = Icircumflex;
lastChange = "2013-03-07 05:31:29 +0200";
layers = (
{
layerId = "A1CEB6E1-F2CA-49E9-B0B5-3CAF1AD39F7C";
name = "Light Condensed";
paths = (
{
closed = 1;
nodes = (
"160 1907 LINE",
"117 1813 OFFCURVE",
"55 1710 OFFCURVE",
"-26 1598 CURVE",
"-26 1579 LINE",
"17 1579 LINE",
"73 1632 OFFCURVE",
"143 1717 OFFCURVE",
"210 1792 CURVE",
"307 1680 LINE SMOOTH",
"346 1633 OFFCURVE",
"377 1600 OFFCURVE",
"398 1579 CURVE",
"445 1579 LINE",
"445 1598 LINE",
"407 1648 OFFCURVE",
"370 1703 OFFCURVE",
"333 1762 CURVE SMOOTH",
"297 1822 OFFCURVE",
"271 1870 OFFCURVE",
"255 1907 CURVE"
);
},
{
closed = 1;
nodes = (
"160 1462 LINE",
"160 0 LINE",
"258 0 LINE",
"258 1462 LINE"
);
}
);
width = 418;
}
);
unicode = 00CE;
},
{
glyphname = Idieresis;
lastChange = "2013-03-07 05:31:29 +0200";
layers = (
{
layerId = "A1CEB6E1-F2CA-49E9-B0B5-3CAF1AD39F7C";
name = "Light Condensed";
paths = (
{
closed = 1;
nodes = (
"160 1462 LINE",
"160 0 LINE",
"258 0 LINE",
"258 1462 LINE"
);
},
{
closed = 1;
nodes = (
"26 1808 OFFCURVE",
"-5 1784 OFFCURVE",
"-5 1727 CURVE SMOOTH",
"-5 1668 OFFCURVE",
"26 1643 OFFCURVE",
"59 1643 CURVE SMOOTH",
"90 1643 OFFCURVE",
"120 1668 OFFCURVE",
"120 1727 CURVE SMOOTH",
"120 1784 OFFCURVE",
"90 1808 OFFCURVE",
"59 1808 CURVE SMOOTH"
);
},
{
closed = 1;
nodes = (
"331 1808 OFFCURVE",
"300 1784 OFFCURVE",
"300 1727 CURVE SMOOTH",
"300 1668 OFFCURVE",
"331 1643 OFFCURVE",
"362 1643 CURVE SMOOTH",
"395 1643 OFFCURVE",
"425 1668 OFFCURVE",
"425 1727 CURVE SMOOTH",
"425 1784 OFFCURVE",
"395 1808 OFFCURVE",
"362 1808 CURVE SMOOTH"
);
}
);
width = 418;
}
);
unicode = 00CF;
},
{
glyphname = Igrave;
lastChange = "2013-03-07 05:31:29 +0200";
layers = (
{
layerId = "A1CEB6E1-F2CA-49E9-B0B5-3CAF1AD39F7C";
name = "Light Condensed";
paths = (
{
closed = 1;
nodes = (
"160 1462 LINE",
"160 0 LINE",
"258 0 LINE",
"258 1462 LINE"
);
},
{
closed = 1;
nodes = (
"-34 1907 LINE",
"-34 1890 LINE",
"-10 1845 OFFCURVE",
"30 1790 OFFCURVE",
"85 1727 CURVE SMOOTH",
"141 1664 OFFCURVE",
"191 1614 OFFCURVE",
"234 1579 CURVE",
"282 1579 LINE",
"282 1600 LINE",
"247 1644 OFFCURVE",
"210 1696 OFFCURVE",
"173 1755 CURVE SMOOTH",
"136 1814 OFFCURVE",
"109 1865 OFFCURVE",
"91 1907 CURVE"
);
}
);
width = 418;
}
);
unicode = 00CC;
},
{
glyphname = J;
lastChange = "2013-03-07 05:31:29 +0200";
layers = (
{
layerId = "A1CEB6E1-F2CA-49E9-B0B5-3CAF1AD39F7C";
name = "Light Condensed";
paths = (
{
closed = 1;
nodes = (
"150 1462 LINE",
"150 -25 LINE SMOOTH",
"150 -201 OFFCURVE",
"109 -272 OFFCURVE",
"25 -272 CURVE SMOOTH",
"-19 -272 OFFCURVE",
"-57 -265 OFFCURVE",
"-90 -252 CURVE",
"-90 -344 LINE",
"-57 -361 OFFCURVE",
"-18 -369 OFFCURVE",
"27 -369 CURVE SMOOTH",
"172 -369 OFFCURVE",
"248 -252 OFFCURVE",
"248 -23 CURVE SMOOTH",
"248 1462 LINE"
);
}
);
width = 401;
}
);
unicode = 004A;
},
{
glyphname = K;
lastChange = "2013-03-07 05:31:29 +0200";
layers = (
{
layerId = "A1CEB6E1-F2CA-49E9-B0B5-3CAF1AD39F7C";
name = "Light Condensed";
paths = (
{
closed = 1;
nodes = (
"690 1462 LINE",
"436 1010 OFFCURVE",
"292 752 OFFCURVE",
"258 688 CURVE",
"258 1462 LINE",
"160 1462 LINE",
"160 0 LINE",
"258 0 LINE",
"258 580 LINE",
"371 729 LINE",
"715 0 LINE",
"825 0 LINE",
"430 819 LINE",
"797 1462 LINE"
);
}
);
width = 825;
}
);
unicode = 004B;
},
{
glyphname = L;
lastChange = "2013-03-07 05:31:29 +0200";
layers = (
{
layerId = "A1CEB6E1-F2CA-49E9-B0B5-3CAF1AD39F7C";
name = "Light Condensed";
paths = (
{
closed = 1;
nodes = (
"160 1462 LINE",
"160 0 LINE",
"670 0 LINE",
"670 93.9999 LINE",
"258 93.9999 LINE",
"258 1462 LINE"
);
}
);
width = 711;
}
);
unicode = 004C;
},
{
glyphname = M;
lastChange = "2013-03-07 05:31:29 +0200";
layers = (
{
layerId = "A1CEB6E1-F2CA-49E9-B0B5-3CAF1AD39F7C";
name = "Light Condensed";
paths = (
{
closed = 1;
nodes = (
"1085 1462 LINE",
"760 342 LINE SMOOTH",
"725 225 OFFCURVE",
"705 141 OFFCURVE",
"698 92 CURVE",
"690 92 LINE",
"681 161 OFFCURVE",
"662 245 OFFCURVE",
"633 344 CURVE SMOOTH",
"305 1462 LINE",
"160 1462 LINE",
"160 0 LINE",
"254 0 LINE",
"254 1065 LINE SMOOTH",
"254 1102 OFFCURVE",
"251 1191 OFFCURVE",
"244 1331 CURVE",
"252 1331 LINE",
"641 0 LINE",
"752 0 LINE",
"1139 1329 LINE",
"1147 1329 LINE",
"1140 1189 OFFCURVE",
"1137 1098 OFFCURVE",
"1137 1057 CURVE SMOOTH",
"1137 0 LINE",
"1235 0 LINE",
"1235 1462 LINE"
);
}
);
width = 1395;
}
);
unicode = 004D;
},
{
glyphname = N;
lastChange = "2013-03-07 05:31:29 +0200";
layers = (
{
layerId = "A1CEB6E1-F2CA-49E9-B0B5-3CAF1AD39F7C";
name = "Light Condensed";
paths = (
{
closed = 1;
nodes = (
"834 1462 LINE",
"834 440 LINE SMOOTH",
"834 367 OFFCURVE",
"837 275 OFFCURVE",
"842 166 CURVE",
"836 166 LINE",
"287 1462 LINE",
"160 1462 LINE",
"160 0 LINE",
"256 0 LINE",
"256 1049 LINE SMOOTH",
"256 1133 OFFCURVE",
"252 1220 OFFCURVE",
"244 1311 CURVE",
"252 1311 LINE",
"805 0 LINE",
"930 0 LINE",
"930 1462 LINE"
);
}
);
width = 1090;
}
);
unicode = 004E;
},
{
glyphname = Ntilde;
lastChange = "2013-03-07 05:31:29 +0200";
layers = (
{
layerId = "A1CEB6E1-F2CA-49E9-B0B5-3CAF1AD39F7C";
name = "Light Condensed";
paths = (
{
closed = 1;
nodes = (
"834 1462 LINE",
"834 440 LINE SMOOTH",
"834 367 OFFCURVE",
"837 275 OFFCURVE",
"842 166 CURVE",
"836 166 LINE",
"287 1462 LINE",
"160 1462 LINE",
"160 0 LINE",
"256 0 LINE",
"256 1049 LINE SMOOTH",
"256 1133 OFFCURVE",
"252 1220 OFFCURVE",
"244 1311 CURVE",
"252 1311 LINE",
"805 0 LINE",
"930 0 LINE",
"930 1462 LINE"
);
},
{
closed = 1;
nodes = (
"771 1792 LINE",
"759 1716 OFFCURVE",
"739 1663 OFFCURVE",
"692 1663 CURVE SMOOTH",
"626 1663 OFFCURVE",
"544 1790 OFFCURVE",
"450 1790 CURVE SMOOTH",
"354 1790 OFFCURVE",
"300 1708 OFFCURVE",
"284 1579 CURVE",
"358 1579 LINE",
"370 1655 OFFCURVE",
"399 1708 OFFCURVE",
"442 1708 CURVE SMOOTH",
"503 1708 OFFCURVE",
"591 1581 OFFCURVE",
"685 1581 CURVE SMOOTH",
"774 1581 OFFCURVE",
"833 1657 OFFCURVE",
"845 1792 CURVE"
);
}
);
width = 1090;
}
);
unicode = 00D1;
},
{
glyphname = O;
lastChange = "2013-03-07 05:31:29 +0200";
layers = (
{
layerId = "A1CEB6E1-F2CA-49E9-B0B5-3CAF1AD39F7C";
name = "Light Condensed";
paths = (
{
closed = 1;
nodes = (
"252 1483 OFFCURVE",
"111 1239 OFFCURVE",
"111 735 CURVE SMOOTH",
"111 494 OFFCURVE",
"147 307 OFFCURVE",
"218 176 CURVE SMOOTH",
"289 45 OFFCURVE",
"394 -20 OFFCURVE",
"532 -20 CURVE SMOOTH",
"669 -20 OFFCURVE",
"773 45 OFFCURVE",
"845 175 CURVE SMOOTH",
"918 305 OFFCURVE",
"954 491 OFFCURVE",
"954 733 CURVE SMOOTH",
"954 973.999 OFFCURVE",
"918 1159 OFFCURVE",
"846 1288 CURVE SMOOTH",
"775 1418 OFFCURVE",
"671 1483 OFFCURVE",
"535 1483 CURVE SMOOTH"
);
},
{
closed = 1;
nodes = (
"744 1389 OFFCURVE",
"852 1166 OFFCURVE",
"852 733 CURVE SMOOTH",
"852 294 OFFCURVE",
"741 74 OFFCURVE",
"532 74 CURVE SMOOTH",
"324 74 OFFCURVE",
"213 298 OFFCURVE",
"213 733 CURVE SMOOTH",
"213 1161 OFFCURVE",
"320 1389 OFFCURVE",
"535 1389 CURVE SMOOTH"
);
}
);
width = 1065;
}
);
unicode = 004F;
},
{
glyphname = Oacute;
lastChange = "2013-03-07 05:31:29 +0200";
layers = (
{
layerId = "A1CEB6E1-F2CA-49E9-B0B5-3CAF1AD39F7C";
name = "Light Condensed";
paths = (
{
closed = 1;
nodes = (
"252 1483 OFFCURVE",
"111 1239 OFFCURVE",
"111 735 CURVE SMOOTH",
"111 494 OFFCURVE",
"147 307 OFFCURVE",
"218 176 CURVE SMOOTH",
"289 45 OFFCURVE",
"394 -20 OFFCURVE",
"532 -20 CURVE SMOOTH",
"669 -20 OFFCURVE",
"773 45 OFFCURVE",
"845 175 CURVE SMOOTH",
"918 305 OFFCURVE",
"954 491 OFFCURVE",
"954 733 CURVE SMOOTH",
"954 973.999 OFFCURVE",
"918 1159 OFFCURVE",
"846 1288 CURVE SMOOTH",
"775 1418 OFFCURVE",
"671 1483 OFFCURVE",
"535 1483 CURVE SMOOTH"
);
},
{
closed = 1;
nodes = (
"744 1389 OFFCURVE",
"852 1166 OFFCURVE",
"852 733 CURVE SMOOTH",
"852 294 OFFCURVE",
"741 74 OFFCURVE",
"532 74 CURVE SMOOTH",
"324 74 OFFCURVE",
"213 298 OFFCURVE",
"213 733 CURVE SMOOTH",
"213 1161 OFFCURVE",
"320 1389 OFFCURVE",
"535 1389 CURVE SMOOTH"
);
},
{
closed = 1;
nodes = (
"650 1907 LINE",
"607 1813 OFFCURVE",
"544 1711 OFFCURVE",
"459 1600 CURVE",
"459 1579 LINE",
"506 1579 LINE",
"553 1618 OFFCURVE",
"603 1668 OFFCURVE",
"656 1729 CURVE SMOOTH",
"709 1790 OFFCURVE",
"749 1843 OFFCURVE",
"775 1890 CURVE",
"775 1907 LINE"
);
}
);
width = 1065;
}
);
unicode = 00D3;
},
{
glyphname = Ocircumflex;
lastChange = "2013-03-07 05:31:29 +0200";
layers = (
{
layerId = "A1CEB6E1-F2CA-49E9-B0B5-3CAF1AD39F7C";
name = "Light Condensed";
paths = (
{
closed = 1;
nodes = (
"252 1483 OFFCURVE",
"111 1239 OFFCURVE",
"111 735 CURVE SMOOTH",
"111 494 OFFCURVE",
"147 307 OFFCURVE",
"218 176 CURVE SMOOTH",
"289 45 OFFCURVE",
"394 -20 OFFCURVE",
"532 -20 CURVE SMOOTH",
"669 -20 OFFCURVE",
"773 45 OFFCURVE",
"845 175 CURVE SMOOTH",
"918 305 OFFCURVE",
"954 491 OFFCURVE",
"954 733 CURVE SMOOTH",
"954 973.999 OFFCURVE",
"918 1159 OFFCURVE",
"846 1288 CURVE SMOOTH",
"775 1418 OFFCURVE",
"671 1483 OFFCURVE",
"535 1483 CURVE SMOOTH"
);
},
{
closed = 1;
nodes = (
"744 1389 OFFCURVE",
"852 1166 OFFCURVE",
"852 733 CURVE SMOOTH",
"852 294 OFFCURVE",
"741 74 OFFCURVE",
"532 74 CURVE SMOOTH",
"324 74 OFFCURVE",
"213 298 OFFCURVE",
"213 733 CURVE SMOOTH",
"213 1161 OFFCURVE",
"320 1389 OFFCURVE",
"535 1389 CURVE SMOOTH"
);
},
{
closed = 1;
nodes = (
"482 1907 LINE",
"439 1813 OFFCURVE",
"377 1710 OFFCURVE",
"296 1598 CURVE",
"296 1579 LINE",
"339 1579 LINE",
"395 1632 OFFCURVE",
"465 1717 OFFCURVE",
"532 1792 CURVE",
"629 1680 LINE SMOOTH",
"668 1633 OFFCURVE",
"699 1600 OFFCURVE",
"720 1579 CURVE",
"767 1579 LINE",
"767 1598 LINE",
"729 1648 OFFCURVE",
"692 1703 OFFCURVE",
"655 1762 CURVE SMOOTH",
"619 1822 OFFCURVE",
"593 1870 OFFCURVE",
"577 1907 CURVE"
);
}
);
width = 1065;
}
);
unicode = 00D4;
},
{
glyphname = Odieresis;
lastChange = "2013-03-07 05:31:29 +0200";
layers = (
{
layerId = "A1CEB6E1-F2CA-49E9-B0B5-3CAF1AD39F7C";
name = "Light Condensed";
paths = (
{
closed = 1;
nodes = (
"252 1483 OFFCURVE",
"111 1239 OFFCURVE",
"111 735 CURVE SMOOTH",
"111 494 OFFCURVE",
"147 307 OFFCURVE",
"218 176 CURVE SMOOTH",
"289 45 OFFCURVE",
"394 -20 OFFCURVE",
"532 -20 CURVE SMOOTH",
"669 -20 OFFCURVE",
"773 45 OFFCURVE",
"845 175 CURVE SMOOTH",
"918 305 OFFCURVE",
"954 491 OFFCURVE",
"954 733 CURVE SMOOTH",
"954 973.999 OFFCURVE",
"918 1159 OFFCURVE",
"846 1288 CURVE SMOOTH",
"775 1418 OFFCURVE",
"671 1483 OFFCURVE",
"535 1483 CURVE SMOOTH"
);
},
{
closed = 1;
nodes = (
"744 1389 OFFCURVE",
"852 1166 OFFCURVE",
"852 733 CURVE SMOOTH",
"852 294 OFFCURVE",
"741 74 OFFCURVE",
"532 74 CURVE SMOOTH",
"324 74 OFFCURVE",
"213 298 OFFCURVE",
"213 733 CURVE SMOOTH",
"213 1161 OFFCURVE",
"320 1389 OFFCURVE",
"535 1389 CURVE SMOOTH"
);
},
{
closed = 1;
nodes = (
"357 1808 OFFCURVE",
"326 1784 OFFCURVE",
"326 1727 CURVE SMOOTH",
"326 1668 OFFCURVE",
"357 1643 OFFCURVE",
"390 1643 CURVE SMOOTH",
"421 1643 OFFCURVE",
"451 1668 OFFCURVE",
"451 1727 CURVE SMOOTH",
"451 1784 OFFCURVE",
"421 1808 OFFCURVE",
"390 1808 CURVE SMOOTH"
);
},
{
closed = 1;
nodes = (
"662 1808 OFFCURVE",
"631 1784 OFFCURVE",
"631 1727 CURVE SMOOTH",
"631 1668 OFFCURVE",
"662 1643 OFFCURVE",
"693 1643 CURVE SMOOTH",
"726 1643 OFFCURVE",
"756 1668 OFFCURVE",
"756 1727 CURVE SMOOTH",
"756 1784 OFFCURVE",
"726 1808 OFFCURVE",
"693 1808 CURVE SMOOTH"
);
}
);
width = 1065;
}
);
unicode = 00D6;
},
{
glyphname = Ograve;
lastChange = "2013-03-07 05:31:29 +0200";
layers = (
{
layerId = "A1CEB6E1-F2CA-49E9-B0B5-3CAF1AD39F7C";
name = "Light Condensed";
paths = (
{
closed = 1;
nodes = (
"252 1483 OFFCURVE",
"111 1239 OFFCURVE",
"111 735 CURVE SMOOTH",
"111 494 OFFCURVE",
"147 307 OFFCURVE",
"218 176 CURVE SMOOTH",
"289 45 OFFCURVE",
"394 -20 OFFCURVE",
"532 -20 CURVE SMOOTH",
"669 -20 OFFCURVE",
"773 45 OFFCURVE",
"845 175 CURVE SMOOTH",
"918 305 OFFCURVE",
"954 491 OFFCURVE",
"954 733 CURVE SMOOTH",
"954 973.999 OFFCURVE",
"918 1159 OFFCURVE",
"846 1288 CURVE SMOOTH",
"775 1418 OFFCURVE",
"671 1483 OFFCURVE",
"535 1483 CURVE SMOOTH"
);
},
{
closed = 1;
nodes = (
"744 1389 OFFCURVE",
"852 1166 OFFCURVE",
"852 733 CURVE SMOOTH",
"852 294 OFFCURVE",
"741 74 OFFCURVE",
"532 74 CURVE SMOOTH",
"324 74 OFFCURVE",
"213 298 OFFCURVE",
"213 733 CURVE SMOOTH",
"213 1161 OFFCURVE",
"320 1389 OFFCURVE",
"535 1389 CURVE SMOOTH"
);
},
{
closed = 1;
nodes = (
"283 1907 LINE",
"283 1890 LINE",
"307 1845 OFFCURVE",
"347 1790 OFFCURVE",
"402 1727 CURVE SMOOTH",
"458 1664 OFFCURVE",
"508 1614 OFFCURVE",
"551 1579 CURVE",
"599 1579 LINE",
"599 1600 LINE",
"564 1644 OFFCURVE",
"527 1696 OFFCURVE",
"490 1755 CURVE SMOOTH",
"453 1814 OFFCURVE",
"426 1865 OFFCURVE",
"408 1907 CURVE"
);
}
);
width = 1065;
}
);
unicode = 00D2;
},
{
glyphname = Oslash;
lastChange = "2013-03-07 05:31:29 +0200";
layers = (
{
layerId = "A1CEB6E1-F2CA-49E9-B0B5-3CAF1AD39F7C";
name = "Light Condensed";
paths = (
{
closed = 1;
nodes = (
"805 1352 LINE",
"734 1439 OFFCURVE",
"644 1483 OFFCURVE",
"535 1483 CURVE SMOOTH",
"252 1483 OFFCURVE",
"111 1239 OFFCURVE",
"111 735 CURVE SMOOTH",
"111 494 OFFCURVE",
"146 309 OFFCURVE",
"215 180 CURVE",
"95.9999 -57 LINE",
"178 -94 LINE",
"272 93.9999 LINE",
"340 18 OFFCURVE",
"427 -20 OFFCURVE",
"532 -20 CURVE SMOOTH",
"669 -20 OFFCURVE",
"773 45 OFFCURVE",
"845 175 CURVE SMOOTH",
"918 305 OFFCURVE",
"954 491 OFFCURVE",
"954 733 CURVE SMOOTH",
"954 959 OFFCURVE",
"923 1135 OFFCURVE",
"860 1262 CURVE",
"982.999 1501 LINE",
"901 1542 LINE"
);
},
{
closed = 1;
nodes = (
"836 1038 OFFCURVE",
"852 900 OFFCURVE",
"852 733 CURVE SMOOTH",
"852 294 OFFCURVE",
"741 74 OFFCURVE",
"532 74 CURVE SMOOTH",
"443 74 OFFCURVE",
"373 113 OFFCURVE",
"322 190 CURVE",
"803 1145 LINE"
);
},
{
closed = 1;
nodes = (
"630 1389 OFFCURVE",
"703 1343 OFFCURVE",
"756 1251 CURVE",
"272 293 LINE",
"233 398 OFFCURVE",
"213 545 OFFCURVE",
"213 733 CURVE SMOOTH",
"213 1161 OFFCURVE",
"320 1389 OFFCURVE",
"535 1389 CURVE SMOOTH"
);
}
);
width = 1065;
}
);
unicode = 00D8;
},
{
glyphname = Otilde;
lastChange = "2013-03-07 05:31:29 +0200";
layers = (
{
layerId = "A1CEB6E1-F2CA-49E9-B0B5-3CAF1AD39F7C";
name = "Light Condensed";
paths = (
{
closed = 1;
nodes = (
"252 1483 OFFCURVE",
"111 1239 OFFCURVE",
"111 735 CURVE SMOOTH",
"111 494 OFFCURVE",
"147 307 OFFCURVE",
"218 176 CURVE SMOOTH",
"289 45 OFFCURVE",
"394 -20 OFFCURVE",
"532 -20 CURVE SMOOTH",
"669 -20 OFFCURVE",
"773 45 OFFCURVE",
"845 175 CURVE SMOOTH",
"918 305 OFFCURVE",
"954 491 OFFCURVE",
"954 733 CURVE SMOOTH",
"954 973.999 OFFCURVE",
"918 1159 OFFCURVE",
"846 1288 CURVE SMOOTH",
"775 1418 OFFCURVE",
"671 1483 OFFCURVE",
"535 1483 CURVE SMOOTH"
);
},
{
closed = 1;
nodes = (
"744 1389 OFFCURVE",
"852 1166 OFFCURVE",
"852 733 CURVE SMOOTH",
"852 294 OFFCURVE",
"741 74 OFFCURVE",
"532 74 CURVE SMOOTH",
"324 74 OFFCURVE",
"213 298 OFFCURVE",
"213 733 CURVE SMOOTH",
"213 1161 OFFCURVE",
"320 1389 OFFCURVE",
"535 1389 CURVE SMOOTH"
);
},
{
closed = 1;
nodes = (
"748 1792 LINE",
"736 1716 OFFCURVE",
"716 1663 OFFCURVE",
"669 1663 CURVE SMOOTH",
"603 1663 OFFCURVE",
"521 1790 OFFCURVE",
"427 1790 CURVE SMOOTH",
"331 1790 OFFCURVE",
"277 1708 OFFCURVE",
"261 1579 CURVE",
"335 1579 LINE",
"347 1655 OFFCURVE",
"376 1708 OFFCURVE",
"419 1708 CURVE SMOOTH",
"480 1708 OFFCURVE",
"568 1581 OFFCURVE",
"662 1581 CURVE SMOOTH",
"751 1581 OFFCURVE",
"810 1657 OFFCURVE",
"822 1792 CURVE"
);
}
);
width = 1065;
}
);
unicode = 00D5;
},
{
glyphname = OE;
lastChange = "2013-03-07 05:31:29 +0200";
layers = (
{
layerId = "A1CEB6E1-F2CA-49E9-B0B5-3CAF1AD39F7C";
name = "Light Condensed";
paths = (
{
closed = 1;
nodes = (
"279 1468 OFFCURVE",
"111 1220 OFFCURVE",
"111 735 CURVE SMOOTH",
"111 241 OFFCURVE",
"269 -6 OFFCURVE",
"586 -6 CURVE",
"711 0 LINE",
"1135 0 LINE",
"1135 93.9999 LINE",
"702 93.9999 LINE",
"702 719 LINE",
"1110 719 LINE",
"1110 813 LINE",
"702 813 LINE",
"702 1368 LINE",
"1135 1368 LINE",
"1135 1462 LINE",
"709 1462 LINE",
"594 1468 LINE"
);
},
{
closed = 1;
nodes = (
"604 88 LINE",
"468 88 OFFCURVE",
"369 139 OFFCURVE",
"307 240 CURVE SMOOTH",
"246 342 OFFCURVE",
"215 506 OFFCURVE",
"215 733 CURVE SMOOTH",
"215 960 OFFCURVE",
"246 1124 OFFCURVE",
"308 1224 CURVE SMOOTH",
"371 1324 OFFCURVE",
"469 1374 OFFCURVE",
"604 1374 CURVE"
);
}
);
width = 1233;
}
);
unicode = 0152;
},
{
glyphname = P;
lastChange = "2013-03-07 05:31:29 +0200";
layers = (
{
layerId = "A1CEB6E1-F2CA-49E9-B0B5-3CAF1AD39F7C";
name = "Light Condensed";
paths = (
{
closed = 1;
nodes = (
"160 1462 LINE",
"160 0 LINE",
"258 0 LINE",
"258 604 LINE",
"362 604 LINE SMOOTH",
"633 604 OFFCURVE",
"772 741 OFFCURVE",
"772 1042 CURVE SMOOTH",
"772 1333 OFFCURVE",
"645 1462 OFFCURVE",
"360 1462 CURVE SMOOTH"
);
},
{
closed = 1;
nodes = (
"575 1372 OFFCURVE",
"672 1278 OFFCURVE",
"672 1042 CURVE SMOOTH",
"672 918 OFFCURVE",
"648 829 OFFCURVE",
"600 775 CURVE SMOOTH",
"552 721 OFFCURVE",
"471 694 OFFCURVE",
"356 694 CURVE SMOOTH",
"258 694 LINE",
"258 1372 LINE",
"367 1372 LINE SMOOTH"
);
}
);
width = 840;
}
);
unicode = 0050;
},
{
glyphname = Thorn;
lastChange = "2013-03-07 05:31:29 +0200";
layers = (
{
layerId = "A1CEB6E1-F2CA-49E9-B0B5-3CAF1AD39F7C";
name = "Light Condensed";
paths = (
{
closed = 1;
nodes = (
"160 1462 LINE",
"160 0 LINE",
"258 0 LINE",
"258 334 LINE",
"365 334 LINE SMOOTH",
"636 334 OFFCURVE",
"772 484 OFFCURVE",
"772 784 CURVE SMOOTH",
"772 1064 OFFCURVE",
"645 1192 OFFCURVE",
"360 1192 CURVE SMOOTH",
"258 1192 LINE",
"258 1462 LINE"
);
},
{
closed = 1;
nodes = (
"475 1096 OFFCURVE",
"553 1071 OFFCURVE",
"600 1020 CURVE SMOOTH",
"648 969.999 OFFCURVE",
"672 887 OFFCURVE",
"672 772 CURVE SMOOTH",
"672 646 OFFCURVE",
"648 557 OFFCURVE",
"599 505 CURVE SMOOTH",
"550 454 OFFCURVE",
"469 428 OFFCURVE",
"356 428 CURVE SMOOTH",
"258 428 LINE",
"258 1096 LINE",
"367 1096 LINE SMOOTH"
);
}
);
width = 840;
}
);
unicode = 00DE;
},
{
glyphname = Q;
lastChange = "2013-03-07 05:31:29 +0200";
layers = (
{
layerId = "A1CEB6E1-F2CA-49E9-B0B5-3CAF1AD39F7C";
name = "Light Condensed";
paths = (
{
closed = 1;
nodes = (
"252 1483 OFFCURVE",
"111 1239 OFFCURVE",
"111 735 CURVE SMOOTH",
"111 494 OFFCURVE",
"147 307 OFFCURVE",
"218 176 CURVE SMOOTH",
"289 45 OFFCURVE",
"394 -20 OFFCURVE",
"532 -20 CURVE",
"582 -16 LINE",
"768 -348 LINE",
"893 -348 LINE",
"680 9.99999 LINE",
"857 92.9999 OFFCURVE",
"954 345 OFFCURVE",
"954 733 CURVE SMOOTH",
"954 973.999 OFFCURVE",
"918 1159 OFFCURVE",
"846 1288 CURVE SMOOTH",
"775 1418 OFFCURVE",
"671 1483 OFFCURVE",
"535 1483 CURVE SMOOTH"
);
},
{
closed = 1;
nodes = (
"744 1389 OFFCURVE",
"852 1166 OFFCURVE",
"852 733 CURVE SMOOTH",
"852 294 OFFCURVE",
"741 74 OFFCURVE",
"532 74 CURVE SMOOTH",
"324 74 OFFCURVE",
"213 298 OFFCURVE",
"213 733 CURVE SMOOTH",
"213 1161 OFFCURVE",
"320 1389 OFFCURVE",
"535 1389 CURVE SMOOTH"
);
}
);
width = 1065;
}
);
unicode = 0051;
},
{
glyphname = R;
lastChange = "2013-03-07 05:31:29 +0200";
layers = (
{
layerId = "A1CEB6E1-F2CA-49E9-B0B5-3CAF1AD39F7C";
name = "Light Condensed";
paths = (
{
closed = 1;
nodes = (
"160 1462 LINE",
"160 0 LINE",
"258 0 LINE",
"258 639 LINE",
"444 639 LINE",
"717 0 LINE",
"827 0 LINE",
"537 662 LINE",
"706 727 OFFCURVE",
"772 856 OFFCURVE",
"772 1059 CURVE SMOOTH",
"772 1327 OFFCURVE",
"645 1462 OFFCURVE",
"360 1462 CURVE SMOOTH"
);
},
{
closed = 1;
nodes = (
"578 1366 OFFCURVE",
"672 1275 OFFCURVE",
"672 1055 CURVE SMOOTH",
"672 839 OFFCURVE",
"572 729 OFFCURVE",
"395 729 CURVE SMOOTH",
"258 729 LINE",
"258 1366 LINE",
"367 1366 LINE SMOOTH"
);
}
);
width = 870;
}
);
unicode = 0052;
},
{
glyphname = S;
lastChange = "2013-03-07 05:31:29 +0200";
layers = (
{
layerId = "A1CEB6E1-F2CA-49E9-B0B5-3CAF1AD39F7C";
name = "Light Condensed";
paths = (
{
closed = 1;
nodes = (
"250 1486 OFFCURVE",
"92.9999 1329 OFFCURVE",
"97.9999 1114 CURVE SMOOTH",
"97.9999 1048 OFFCURVE",
"107 990.999 OFFCURVE",
"125 944 CURVE SMOOTH",
"143 897 OFFCURVE",
"171 855 OFFCURVE",
"208 819 CURVE SMOOTH",
"245 784 OFFCURVE",
"302 747 OFFCURVE",
"377 709 CURVE SMOOTH",
"473 662 OFFCURVE",
"538 614 OFFCURVE",
"572 567 CURVE SMOOTH",
"606 520 OFFCURVE",
"623 456 OFFCURVE",
"623 375 CURVE SMOOTH",
"623 288 OFFCURVE",
"599 216 OFFCURVE",
"551 159 CURVE SMOOTH",
"503 102 OFFCURVE",
"442 74 OFFCURVE",
"367 74 CURVE SMOOTH",
"317 74 OFFCURVE",
"266 80 OFFCURVE",
"215 91 CURVE SMOOTH",
"164 102 OFFCURVE",
"121 118 OFFCURVE",
"86 137 CURVE",
"86 31 LINE",
"157 -3 OFFCURVE",
"250 -20 OFFCURVE",
"367 -20 CURVE SMOOTH",
"470 -20 OFFCURVE",
"554 17 OFFCURVE",
"621 91 CURVE SMOOTH",
"688 166 OFFCURVE",
"721 263 OFFCURVE",
"721 383 CURVE SMOOTH",
"721 567 OFFCURVE",
"633 690 OFFCURVE",
"436 786 CURVE SMOOTH",
"341 835 OFFCURVE",
"277 882 OFFCURVE",
"244 927 CURVE SMOOTH",
"211 971.999 OFFCURVE",
"195 1036 OFFCURVE",
"195 1118 CURVE SMOOTH",
"195 1199 OFFCURVE",
"217 1263 OFFCURVE",
"262 1312 CURVE SMOOTH",
"307 1361 OFFCURVE",
"366 1386 OFFCURVE",
"438 1386 CURVE SMOOTH",
"515 1386 OFFCURVE",
"590 1367 OFFCURVE",
"664 1329 CURVE",
"702 1423 LINE",
"649 1452 OFFCURVE",
"551 1483 OFFCURVE",
"438 1483 CURVE SMOOTH"
);
}
);
width = 809;
}
);
unicode = 0053;
},
{
glyphname = Scaron;
lastChange = "2013-03-07 05:31:29 +0200";
layers = (
{
layerId = "A1CEB6E1-F2CA-49E9-B0B5-3CAF1AD39F7C";
name = "Light Condensed";
paths = (
{
closed = 1;
nodes = (
"250 1486 OFFCURVE",
"92.9999 1329 OFFCURVE",
"97.9999 1114 CURVE SMOOTH",
"97.9999 1048 OFFCURVE",
"107 990.999 OFFCURVE",
"125 944 CURVE SMOOTH",
"143 897 OFFCURVE",
"171 855 OFFCURVE",
"208 819 CURVE SMOOTH",
"245 784 OFFCURVE",
"302 747 OFFCURVE",
"377 709 CURVE SMOOTH",
"473 662 OFFCURVE",
"538 614 OFFCURVE",
"572 567 CURVE SMOOTH",
"606 520 OFFCURVE",
"623 456 OFFCURVE",
"623 375 CURVE SMOOTH",
"623 288 OFFCURVE",
"599 216 OFFCURVE",
"551 159 CURVE SMOOTH",
"503 102 OFFCURVE",
"442 74 OFFCURVE",
"367 74 CURVE SMOOTH",
"317 74 OFFCURVE",
"266 80 OFFCURVE",
"215 91 CURVE SMOOTH",
"164 102 OFFCURVE",
"121 118 OFFCURVE",
"86 137 CURVE",
"86 31 LINE",
"157 -3 OFFCURVE",
"250 -20 OFFCURVE",
"367 -20 CURVE SMOOTH",
"470 -20 OFFCURVE",
"554 17 OFFCURVE",
"621 91 CURVE SMOOTH",
"688 166 OFFCURVE",
"721 263 OFFCURVE",
"721 383 CURVE SMOOTH",
"721 567 OFFCURVE",
"633 690 OFFCURVE",
"436 786 CURVE SMOOTH",
"341 835 OFFCURVE",
"277 882 OFFCURVE",
"244 927 CURVE SMOOTH",
"211 971.999 OFFCURVE",
"195 1036 OFFCURVE",
"195 1118 CURVE SMOOTH",
"195 1199 OFFCURVE",
"217 1263 OFFCURVE",
"262 1312 CURVE SMOOTH",
"307 1361 OFFCURVE",
"366 1386 OFFCURVE",
"438 1386 CURVE SMOOTH",
"515 1386 OFFCURVE",
"590 1367 OFFCURVE",
"664 1329 CURVE",
"702 1423 LINE",
"649 1452 OFFCURVE",
"551 1483 OFFCURVE",
"438 1483 CURVE SMOOTH"
);
},
{
closed = 1;
nodes = (
"628 1907 LINE",
"607 1888 OFFCURVE",
"561 1835 OFFCURVE",
"489 1749 CURVE SMOOTH",
"440 1694 LINE",
"373 1769 OFFCURVE",
"303 1854 OFFCURVE",
"247 1907 CURVE",
"204 1907 LINE",
"204 1888 LINE",
"281 1781 OFFCURVE",
"343 1678 OFFCURVE",
"390 1579 CURVE",
"485 1579 LINE",
"501 1615 OFFCURVE",
"527 1663 OFFCURVE",
"563 1723 CURVE SMOOTH",
"599 1783 OFFCURVE",
"636 1838 OFFCURVE",
"675 1888 CURVE",
"675 1907 LINE"
);
}
);
width = 809;
}
);
unicode = 0160;
},
{
glyphname = T;
lastChange = "2013-03-07 05:31:29 +0200";
layers = (
{
layerId = "A1CEB6E1-F2CA-49E9-B0B5-3CAF1AD39F7C";
name = "Light Condensed";
paths = (
{
closed = 1;
nodes = (
"14 1462 LINE",
"14 1368 LINE",
"305 1368 LINE",
"305 0 LINE",
"403 0 LINE",
"403 1368 LINE",
"694 1368 LINE",
"694 1462 LINE"
);
}
);
width = 711;
}
);
unicode = 0054;
},
{
glyphname = U;
lastChange = "2013-03-07 05:31:29 +0200";
layers = (
{
layerId = "A1CEB6E1-F2CA-49E9-B0B5-3CAF1AD39F7C";
name = "Light Condensed";
paths = (
{
closed = 1;
nodes = (
"766 1462 LINE",
"766 467 LINE SMOOTH",
"766 208 OFFCURVE",
"678 74 OFFCURVE",
"510 74 CURVE SMOOTH",
"341 74 OFFCURVE",
"246 210 OFFCURVE",
"246 463 CURVE SMOOTH",
"246 1462 LINE",
"147 1462 LINE",
"147 475 LINE SMOOTH",
"147 156 OFFCURVE",
"274 -20 OFFCURVE",
"510 -20 CURVE SMOOTH",
"746 -20 OFFCURVE",
"864 145 OFFCURVE",
"864 475 CURVE SMOOTH",
"864 1462 LINE"
);
}
);
width = 1012;
}
);
unicode = 0055;
},
{
glyphname = Uacute;
lastChange = "2013-03-07 05:31:29 +0200";
layers = (
{
layerId = "A1CEB6E1-F2CA-49E9-B0B5-3CAF1AD39F7C";
name = "Light Condensed";
paths = (
{
closed = 1;
nodes = (
"766 1462 LINE",
"766 467 LINE SMOOTH",
"766 208 OFFCURVE",
"678 74 OFFCURVE",
"510 74 CURVE SMOOTH",
"341 74 OFFCURVE",
"246 210 OFFCURVE",
"246 463 CURVE SMOOTH",
"246 1462 LINE",
"147 1462 LINE",
"147 475 LINE SMOOTH",
"147 156 OFFCURVE",
"274 -20 OFFCURVE",
"510 -20 CURVE SMOOTH",
"746 -20 OFFCURVE",
"864 145 OFFCURVE",
"864 475 CURVE SMOOTH",
"864 1462 LINE"
);
},
{
closed = 1;
nodes = (
"614 1907 LINE",
"571 1813 OFFCURVE",
"508 1711 OFFCURVE",
"423 1600 CURVE",
"423 1579 LINE",
"470 1579 LINE",
"517 1618 OFFCURVE",
"567 1668 OFFCURVE",
"620 1729 CURVE SMOOTH",
"673 1790 OFFCURVE",
"713 1843 OFFCURVE",
"739 1890 CURVE",
"739 1907 LINE"
);
}
);
width = 1012;
}
);
unicode = 00DA;
},
{
glyphname = Ucircumflex;
lastChange = "2013-03-07 05:31:29 +0200";
layers = (
{
layerId = "A1CEB6E1-F2CA-49E9-B0B5-3CAF1AD39F7C";
name = "Light Condensed";
paths = (
{
closed = 1;
nodes = (
"766 1462 LINE",
"766 467 LINE SMOOTH",
"766 208 OFFCURVE",
"678 74 OFFCURVE",
"510 74 CURVE SMOOTH",
"341 74 OFFCURVE",
"246 210 OFFCURVE",
"246 463 CURVE SMOOTH",
"246 1462 LINE",
"147 1462 LINE",
"147 475 LINE SMOOTH",
"147 156 OFFCURVE",
"274 -20 OFFCURVE",
"510 -20 CURVE SMOOTH",
"746 -20 OFFCURVE",
"864 145 OFFCURVE",
"864 475 CURVE SMOOTH",
"864 1462 LINE"
);
},
{
closed = 1;
nodes = (
"457 1907 LINE",
"414 1813 OFFCURVE",
"352 1710 OFFCURVE",
"271 1598 CURVE",
"271 1579 LINE",
"314 1579 LINE",
"370 1632 OFFCURVE",
"440 1717 OFFCURVE",
"507 1792 CURVE",
"604 1680 LINE SMOOTH",
"643 1633 OFFCURVE",
"674 1600 OFFCURVE",
"695 1579 CURVE",
"742 1579 LINE",
"742 1598 LINE",
"704 1648 OFFCURVE",
"667 1703 OFFCURVE",
"630 1762 CURVE SMOOTH",
"594 1822 OFFCURVE",
"568 1870 OFFCURVE",
"552 1907 CURVE"
);
}
);
width = 1012;
}
);
unicode = 00DB;
},
{
glyphname = Udieresis;
lastChange = "2013-03-07 05:31:29 +0200";
layers = (
{
layerId = "A1CEB6E1-F2CA-49E9-B0B5-3CAF1AD39F7C";
name = "Light Condensed";
paths = (
{
closed = 1;
nodes = (
"766 1462 LINE",
"766 467 LINE SMOOTH",
"766 208 OFFCURVE",
"678 74 OFFCURVE",
"510 74 CURVE SMOOTH",
"341 74 OFFCURVE",
"246 210 OFFCURVE",
"246 463 CURVE SMOOTH",
"246 1462 LINE",
"147 1462 LINE",
"147 475 LINE SMOOTH",
"147 156 OFFCURVE",
"274 -20 OFFCURVE",
"510 -20 CURVE SMOOTH",
"746 -20 OFFCURVE",
"864 145 OFFCURVE",
"864 475 CURVE SMOOTH",
"864 1462 LINE"
);
},
{
closed = 1;
nodes = (
"323 1808 OFFCURVE",
"292 1784 OFFCURVE",
"292 1727 CURVE SMOOTH",
"292 1668 OFFCURVE",
"323 1643 OFFCURVE",
"356 1643 CURVE SMOOTH",
"387 1643 OFFCURVE",
"417 1668 OFFCURVE",
"417 1727 CURVE SMOOTH",
"417 1784 OFFCURVE",
"387 1808 OFFCURVE",
"356 1808 CURVE SMOOTH"
);
},
{
closed = 1;
nodes = (
"628 1808 OFFCURVE",
"597 1784 OFFCURVE",
"597 1727 CURVE SMOOTH",
"597 1668 OFFCURVE",
"628 1643 OFFCURVE",
"659 1643 CURVE SMOOTH",
"692 1643 OFFCURVE",
"722 1668 OFFCURVE",
"722 1727 CURVE SMOOTH",
"722 1784 OFFCURVE",
"692 1808 OFFCURVE",
"659 1808 CURVE SMOOTH"
);
}
);
width = 1012;
}
);
unicode = 00DC;
},
{
glyphname = Ugrave;
lastChange = "2013-03-07 05:31:29 +0200";
layers = (
{
layerId = "A1CEB6E1-F2CA-49E9-B0B5-3CAF1AD39F7C";
name = "Light Condensed";
paths = (
{
closed = 1;
nodes = (
"766 1462 LINE",
"766 467 LINE SMOOTH",
"766 208 OFFCURVE",
"678 74 OFFCURVE",
"510 74 CURVE SMOOTH",
"341 74 OFFCURVE",
"246 210 OFFCURVE",
"246 463 CURVE SMOOTH",
"246 1462 LINE",
"147 1462 LINE",
"147 475 LINE SMOOTH",
"147 156 OFFCURVE",
"274 -20 OFFCURVE",
"510 -20 CURVE SMOOTH",
"746 -20 OFFCURVE",
"864 145 OFFCURVE",
"864 475 CURVE SMOOTH",
"864 1462 LINE"
);
},
{
closed = 1;
nodes = (
"277 1907 LINE",
"277 1890 LINE",
"301 1845 OFFCURVE",
"341 1790 OFFCURVE",
"396 1727 CURVE SMOOTH",
"452 1664 OFFCURVE",
"502 1614 OFFCURVE",
"545 1579 CURVE",
"593 1579 LINE",
"593 1600 LINE",
"558 1644 OFFCURVE",
"521 1696 OFFCURVE",
"484 1755 CURVE SMOOTH",
"447 1814 OFFCURVE",
"420 1865 OFFCURVE",
"402 1907 CURVE"
);
}
);
width = 1012;
}
);
unicode = 00D9;
},
{
glyphname = V;
lastChange = "2013-03-07 05:31:29 +0200";
layers = (
{
layerId = "A1CEB6E1-F2CA-49E9-B0B5-3CAF1AD39F7C";
name = "Light Condensed";
paths = (
{
closed = 1;
nodes = (
"698 1462 LINE",
"429 329 LINE SMOOTH",
"418 278 OFFCURVE",
"406 198 OFFCURVE",
"395 121 CURVE",
"389 177 OFFCURVE",
"383 223 OFFCURVE",
"377 260 CURVE SMOOTH",
"371 297 OFFCURVE",
"359 355 OFFCURVE",
"340 434 CURVE SMOOTH",
"102 1462 LINE",
"0 1462 LINE",
"344 0 LINE",
"453 0 LINE",
"799 1462 LINE"
);
}
);
width = 799;
}
);
unicode = 0056;
},
{
glyphname = W;
lastChange = "2013-03-07 05:31:29 +0200";
layers = (
{
layerId = "A1CEB6E1-F2CA-49E9-B0B5-3CAF1AD39F7C";
name = "Light Condensed";
paths = (
{
closed = 1;
nodes = (
"1284 1462 LINE",
"1071 455 LINE SMOOTH",
"1052 366 OFFCURVE",
"1033 252 OFFCURVE",
"1014 111 CURVE",
"1004 185 LINE SMOOTH",
"994.999 256 OFFCURVE",
"978.999 346 OFFCURVE",
"958 455 CURVE SMOOTH",
"754 1462 LINE",
"643 1462 LINE",
"438 451 LINE SMOOTH",
"415 331 OFFCURVE",
"396 218 OFFCURVE",
"381 111 CURVE",
"372 176 OFFCURVE",
"351 291 OFFCURVE",
"319 455 CURVE SMOOTH",
"113 1462 LINE",
"9.99999 1462 LINE",
"324 0 LINE",
"440 0 LINE",
"659 1096 LINE",
"682 1238 LINE",
"696 1333 LINE",
"715 1192 OFFCURVE",
"727 1112 OFFCURVE",
"731 1094 CURVE SMOOTH",
"954 0 LINE",
"1073 0 LINE",
"1384 1462 LINE"
);
}
);
width = 1395;
}
);
unicode = 0057;
},
{
glyphname = X;
lastChange = "2013-03-07 05:31:29 +0200";
layers = (
{
layerId = "A1CEB6E1-F2CA-49E9-B0B5-3CAF1AD39F7C";
name = "Light Condensed";
paths = (
{
closed = 1;
nodes = (
"594 1462 LINE",
"383 854 LINE",
"166 1462 LINE",
"63 1462 LINE",
"326 776 LINE",
"20 0 LINE",
"119 0 LINE",
"373 672 LINE",
"592 0 LINE",
"694 0 LINE",
"436 754 LINE",
"694 1462 LINE"
);
}
);
width = 715;
}
);
unicode = 0058;
},
{
glyphname = Y;
lastChange = "2013-03-07 05:31:29 +0200";
layers = (
{
layerId = "A1CEB6E1-F2CA-49E9-B0B5-3CAF1AD39F7C";
name = "Light Condensed";
paths = (
{
closed = 1;
nodes = (
"582 1462 LINE",
"344 707 LINE",
"104 1462 LINE",
"0 1462 LINE",
"293 571 LINE",
"293 0 LINE",
"391 0 LINE",
"391 571 LINE",
"686 1462 LINE"
);
}
);
width = 686;
}
);
unicode = 0059;
},
{
glyphname = Yacute;
lastChange = "2013-03-07 05:31:29 +0200";
layers = (
{
layerId = "A1CEB6E1-F2CA-49E9-B0B5-3CAF1AD39F7C";
name = "Light Condensed";
paths = (
{
closed = 1;
nodes = (
"582 1462 LINE",
"344 707 LINE",
"104 1462 LINE",
"0 1462 LINE",
"293 571 LINE",
"293 0 LINE",
"391 0 LINE",
"391 571 LINE",
"686 1462 LINE"
);
},
{
closed = 1;
nodes = (
"462 1907 LINE",
"419 1813 OFFCURVE",
"356 1711 OFFCURVE",
"271 1600 CURVE",
"271 1579 LINE",
"318 1579 LINE",
"365 1618 OFFCURVE",
"415 1668 OFFCURVE",
"468 1729 CURVE SMOOTH",
"521 1790 OFFCURVE",
"561 1843 OFFCURVE",
"587 1890 CURVE",
"587 1907 LINE"
);
}
);
width = 686;
}
);
unicode = 00DD;
},
{
glyphname = Ydieresis;
lastChange = "2013-03-07 05:31:29 +0200";
layers = (
{
layerId = "A1CEB6E1-F2CA-49E9-B0B5-3CAF1AD39F7C";
name = "Light Condensed";
paths = (
{
closed = 1;
nodes = (
"582 1462 LINE",
"344 707 LINE",
"104 1462 LINE",
"0 1462 LINE",
"293 571 LINE",
"293 0 LINE",
"391 0 LINE",
"391 571 LINE",
"686 1462 LINE"
);
},
{
closed = 1;
nodes = (
"161 1808 OFFCURVE",
"130 1784 OFFCURVE",
"130 1727 CURVE SMOOTH",
"130 1668 OFFCURVE",
"161 1643 OFFCURVE",
"194 1643 CURVE SMOOTH",
"225 1643 OFFCURVE",
"255 1668 OFFCURVE",
"255 1727 CURVE SMOOTH",
"255 1784 OFFCURVE",
"225 1808 OFFCURVE",
"194 1808 CURVE SMOOTH"
);
},
{
closed = 1;
nodes = (
"466 1808 OFFCURVE",
"435 1784 OFFCURVE",
"435 1727 CURVE SMOOTH",
"435 1668 OFFCURVE",
"466 1643 OFFCURVE",
"497 1643 CURVE SMOOTH",
"530 1643 OFFCURVE",
"560 1668 OFFCURVE",
"560 1727 CURVE SMOOTH",
"560 1784 OFFCURVE",
"530 1808 OFFCURVE",
"497 1808 CURVE SMOOTH"
);
}
);
width = 686;
}
);
unicode = 0178;
},
{
glyphname = Z;
lastChange = "2013-03-07 05:31:29 +0200";
layers = (
{
layerId = "A1CEB6E1-F2CA-49E9-B0B5-3CAF1AD39F7C";
name = "Light Condensed";
paths = (
{
closed = 1;
nodes = (
"63 1462 LINE",
"63 1366 LINE",
"481 1366 LINE",
"57 88 LINE",
"57 0 LINE",
"602 0 LINE",
"602 93.9999 LINE",
"160 93.9999 LINE",
"590 1372 LINE",
"590 1462 LINE"
);
}
);
width = 643;
}
);
unicode = 005A;
},
{
glyphname = Zcaron;
lastChange = "2013-03-07 05:31:29 +0200";
layers = (
{
layerId = "A1CEB6E1-F2CA-49E9-B0B5-3CAF1AD39F7C";
name = "Light Condensed";
paths = (
{
closed = 1;
nodes = (
"63 1462 LINE",
"63 1366 LINE",
"481 1366 LINE",
"57 88 LINE",
"57 0 LINE",
"602 0 LINE",
"602 93.9999 LINE",
"160 93.9999 LINE",
"590 1372 LINE",
"590 1462 LINE"
);
},
{
closed = 1;
nodes = (
"515 1907 LINE",
"494 1888 OFFCURVE",
"448 1835 OFFCURVE",
"376 1749 CURVE SMOOTH",
"327 1694 LINE",
"260 1769 OFFCURVE",
"190 1854 OFFCURVE",
"134 1907 CURVE",
"91 1907 LINE",
"91 1888 LINE",
"168 1781 OFFCURVE",
"230 1678 OFFCURVE",
"277 1579 CURVE",
"372 1579 LINE",
"388 1615 OFFCURVE",
"414 1663 OFFCURVE",
"450 1723 CURVE SMOOTH",
"486 1783 OFFCURVE",
"523 1838 OFFCURVE",
"562 1888 CURVE",
"562 1907 LINE"
);
}
);
width = 643;
}
);
unicode = 017D;
},
{
glyphname = a;
lastChange = "2013-03-07 05:31:29 +0200";
layers = (
{
layerId = "A1CEB6E1-F2CA-49E9-B0B5-3CAF1AD39F7C";
name = "Light Condensed";
paths = (
{
closed = 1;
nodes = (
"308 1106 OFFCURVE",
"229 1083 OFFCURVE",
"154 1036 CURVE",
"195 961 LINE",
"260 1002 OFFCURVE",
"323 1022 OFFCURVE",
"385 1022 CURVE SMOOTH",
"502 1022 OFFCURVE",
"549 934 OFFCURVE",
"549 731 CURVE SMOOTH",
"549 641 LINE",
"432 635 LINE SMOOTH",
"208 624 OFFCURVE",
"78 498 OFFCURVE",
"78 291 CURVE SMOOTH",
"78 196 OFFCURVE",
"98.9999 121 OFFCURVE",
"142 64 CURVE SMOOTH",
"185 8 OFFCURVE",
"242 -20 OFFCURVE",
"313 -20 CURVE SMOOTH",
"418 -20 OFFCURVE",
"497 37 OFFCURVE",
"549 152 CURVE",
"553 152 LINE",
"565 0 LINE",
"643 0 LINE",
"643 739 LINE SMOOTH",
"643 871 OFFCURVE",
"623 965 OFFCURVE",
"584 1021 CURVE SMOOTH",
"545 1078 OFFCURVE",
"480 1106 OFFCURVE",
"391 1106 CURVE SMOOTH"
);
},
{
closed = 1;
nodes = (
"549 446 LINE SMOOTH",
"549 201 OFFCURVE",
"470 61 OFFCURVE",
"334 61 CURVE SMOOTH",
"238 61 OFFCURVE",
"178 132 OFFCURVE",
"178 289 CURVE SMOOTH",
"178 457 OFFCURVE",
"261 544 OFFCURVE",
"436 553 CURVE SMOOTH",
"549 559 LINE"
);
}
);
width = 784;
}
);
unicode = 0061;
},
{
glyphname = aacute;
lastChange = "2013-03-07 05:31:29 +0200";
layers = (
{
layerId = "A1CEB6E1-F2CA-49E9-B0B5-3CAF1AD39F7C";
name = "Light Condensed";
paths = (
{
closed = 1;
nodes = (
"308 1106 OFFCURVE",
"229 1083 OFFCURVE",
"154 1036 CURVE",
"195 961 LINE",
"260 1002 OFFCURVE",
"323 1022 OFFCURVE",
"385 1022 CURVE SMOOTH",
"502 1022 OFFCURVE",
"549 934 OFFCURVE",
"549 731 CURVE SMOOTH",
"549 641 LINE",
"432 635 LINE SMOOTH",
"208 624 OFFCURVE",
"78 498 OFFCURVE",
"78 291 CURVE SMOOTH",
"78 196 OFFCURVE",
"98.9999 121 OFFCURVE",
"142 64 CURVE SMOOTH",
"185 8 OFFCURVE",
"242 -20 OFFCURVE",
"313 -20 CURVE SMOOTH",
"418 -20 OFFCURVE",
"497 37 OFFCURVE",
"549 152 CURVE",
"553 152 LINE",
"565 0 LINE",
"643 0 LINE",
"643 739 LINE SMOOTH",
"643 871 OFFCURVE",
"623 965 OFFCURVE",
"584 1021 CURVE SMOOTH",
"545 1078 OFFCURVE",
"480 1106 OFFCURVE",
"391 1106 CURVE SMOOTH"
);
},
{
closed = 1;
nodes = (
"549 446 LINE SMOOTH",
"549 201 OFFCURVE",
"470 61 OFFCURVE",
"334 61 CURVE SMOOTH",
"238 61 OFFCURVE",
"178 132 OFFCURVE",
"178 289 CURVE SMOOTH",
"178 457 OFFCURVE",
"261 544 OFFCURVE",
"436 553 CURVE SMOOTH",
"549 559 LINE"
);
},
{
closed = 1;
nodes = (
"481 1569 LINE",
"438 1475 OFFCURVE",
"375 1373 OFFCURVE",
"290 1262 CURVE",
"290 1241 LINE",
"337 1241 LINE",
"384 1280 OFFCURVE",
"434 1330 OFFCURVE",
"487 1391 CURVE SMOOTH",
"540 1452 OFFCURVE",
"580 1505 OFFCURVE",
"606 1552 CURVE",
"606 1569 LINE"
);
}
);
width = 784;
}
);
unicode = 00E1;
},
{
glyphname = acircumflex;
lastChange = "2013-03-07 05:31:29 +0200";
layers = (
{
layerId = "A1CEB6E1-F2CA-49E9-B0B5-3CAF1AD39F7C";
name = "Light Condensed";
paths = (
{
closed = 1;
nodes = (
"308 1106 OFFCURVE",
"229 1083 OFFCURVE",
"154 1036 CURVE",
"195 961 LINE",
"260 1002 OFFCURVE",
"323 1022 OFFCURVE",
"385 1022 CURVE SMOOTH",
"502 1022 OFFCURVE",
"549 934 OFFCURVE",
"549 731 CURVE SMOOTH",
"549 641 LINE",
"432 635 LINE SMOOTH",
"208 624 OFFCURVE",
"78 498 OFFCURVE",
"78 291 CURVE SMOOTH",
"78 196 OFFCURVE",
"98.9999 121 OFFCURVE",
"142 64 CURVE SMOOTH",
"185 8 OFFCURVE",
"242 -20 OFFCURVE",
"313 -20 CURVE SMOOTH",
"418 -20 OFFCURVE",
"497 37 OFFCURVE",
"549 152 CURVE",
"553 152 LINE",
"565 0 LINE",
"643 0 LINE",
"643 739 LINE SMOOTH",
"643 871 OFFCURVE",
"623 965 OFFCURVE",
"584 1021 CURVE SMOOTH",
"545 1078 OFFCURVE",
"480 1106 OFFCURVE",
"391 1106 CURVE SMOOTH"
);
},
{
closed = 1;
nodes = (
"549 446 LINE SMOOTH",
"549 201 OFFCURVE",
"470 61 OFFCURVE",
"334 61 CURVE SMOOTH",
"238 61 OFFCURVE",
"178 132 OFFCURVE",
"178 289 CURVE SMOOTH",
"178 457 OFFCURVE",
"261 544 OFFCURVE",
"436 553 CURVE SMOOTH",
"549 559 LINE"
);
},
{
closed = 1;
nodes = (
"336 1571 LINE",
"293 1477 OFFCURVE",
"231 1374 OFFCURVE",
"150 1262 CURVE",
"150 1243 LINE",
"193 1243 LINE",
"249 1296 OFFCURVE",
"319 1381 OFFCURVE",
"386 1456 CURVE",
"483 1344 LINE SMOOTH",
"522 1297 OFFCURVE",
"553 1264 OFFCURVE",
"574 1243 CURVE",
"621 1243 LINE",
"621 1262 LINE",
"583 1312 OFFCURVE",
"546 1367 OFFCURVE",
"509 1426 CURVE SMOOTH",
"473 1486 OFFCURVE",
"447 1534 OFFCURVE",
"431 1571 CURVE"
);
}
);
width = 784;
}
);
unicode = 00E2;
},
{
glyphname = adieresis;
lastChange = "2013-03-07 05:31:29 +0200";
layers = (
{
layerId = "A1CEB6E1-F2CA-49E9-B0B5-3CAF1AD39F7C";
name = "Light Condensed";
paths = (
{
closed = 1;
nodes = (
"308 1106 OFFCURVE",
"229 1083 OFFCURVE",
"154 1036 CURVE",
"195 961 LINE",
"260 1002 OFFCURVE",
"323 1022 OFFCURVE",
"385 1022 CURVE SMOOTH",
"502 1022 OFFCURVE",
"549 934 OFFCURVE",
"549 731 CURVE SMOOTH",
"549 641 LINE",
"432 635 LINE SMOOTH",
"208 624 OFFCURVE",
"78 498 OFFCURVE",
"78 291 CURVE SMOOTH",
"78 196 OFFCURVE",
"98.9999 121 OFFCURVE",
"142 64 CURVE SMOOTH",
"185 8 OFFCURVE",
"242 -20 OFFCURVE",
"313 -20 CURVE SMOOTH",
"418 -20 OFFCURVE",
"497 37 OFFCURVE",
"549 152 CURVE",
"553 152 LINE",
"565 0 LINE",
"643 0 LINE",
"643 739 LINE SMOOTH",
"643 871 OFFCURVE",
"623 965 OFFCURVE",
"584 1021 CURVE SMOOTH",
"545 1078 OFFCURVE",
"480 1106 OFFCURVE",
"391 1106 CURVE SMOOTH"
);
},
{
closed = 1;
nodes = (
"549 446 LINE SMOOTH",
"549 201 OFFCURVE",
"470 61 OFFCURVE",
"334 61 CURVE SMOOTH",
"238 61 OFFCURVE",
"178 132 OFFCURVE",
"178 289 CURVE SMOOTH",
"178 457 OFFCURVE",
"261 544 OFFCURVE",
"436 553 CURVE SMOOTH",
"549 559 LINE"
);
},
{
closed = 1;
nodes = (
"196 1470 OFFCURVE",
"165 1446 OFFCURVE",
"165 1389 CURVE SMOOTH",
"165 1330 OFFCURVE",
"196 1305 OFFCURVE",
"229 1305 CURVE SMOOTH",
"260 1305 OFFCURVE",
"290 1330 OFFCURVE",
"290 1389 CURVE SMOOTH",
"290 1446 OFFCURVE",
"260 1470 OFFCURVE",
"229 1470 CURVE SMOOTH"
);
},
{
closed = 1;
nodes = (
"501 1470 OFFCURVE",
"470 1446 OFFCURVE",
"470 1389 CURVE SMOOTH",
"470 1330 OFFCURVE",
"501 1305 OFFCURVE",
"532 1305 CURVE SMOOTH",
"565 1305 OFFCURVE",
"595 1330 OFFCURVE",
"595 1389 CURVE SMOOTH",
"595 1446 OFFCURVE",
"565 1470 OFFCURVE",
"532 1470 CURVE SMOOTH"
);
}
);
width = 784;
}
);
unicode = 00E4;
},
{
glyphname = agrave;
lastChange = "2013-03-07 05:31:29 +0200";
layers = (
{
layerId = "A1CEB6E1-F2CA-49E9-B0B5-3CAF1AD39F7C";
name = "Light Condensed";
paths = (
{
closed = 1;
nodes = (
"308 1106 OFFCURVE",
"229 1083 OFFCURVE",
"154 1036 CURVE",
"195 961 LINE",
"260 1002 OFFCURVE",
"323 1022 OFFCURVE",
"385 1022 CURVE SMOOTH",
"502 1022 OFFCURVE",
"549 934 OFFCURVE",
"549 731 CURVE SMOOTH",
"549 641 LINE",
"432 635 LINE SMOOTH",
"208 624 OFFCURVE",
"78 498 OFFCURVE",
"78 291 CURVE SMOOTH",
"78 196 OFFCURVE",
"98.9999 121 OFFCURVE",
"142 64 CURVE SMOOTH",
"185 8 OFFCURVE",
"242 -20 OFFCURVE",
"313 -20 CURVE SMOOTH",
"418 -20 OFFCURVE",
"497 37 OFFCURVE",
"549 152 CURVE",
"553 152 LINE",
"565 0 LINE",
"643 0 LINE",
"643 739 LINE SMOOTH",
"643 871 OFFCURVE",
"623 965 OFFCURVE",
"584 1021 CURVE SMOOTH",
"545 1078 OFFCURVE",
"480 1106 OFFCURVE",
"391 1106 CURVE SMOOTH"
);
},
{
closed = 1;
nodes = (
"549 446 LINE SMOOTH",
"549 201 OFFCURVE",
"470 61 OFFCURVE",
"334 61 CURVE SMOOTH",
"238 61 OFFCURVE",
"178 132 OFFCURVE",
"178 289 CURVE SMOOTH",
"178 457 OFFCURVE",
"261 544 OFFCURVE",
"436 553 CURVE SMOOTH",
"549 559 LINE"
);
},
{
closed = 1;
nodes = (
"163 1569 LINE",
"163 1552 LINE",
"187 1507 OFFCURVE",
"227 1452 OFFCURVE",
"282 1389 CURVE SMOOTH",
"338 1326 OFFCURVE",
"388 1276 OFFCURVE",
"431 1241 CURVE",
"479 1241 LINE",
"479 1262 LINE",
"444 1306 OFFCURVE",
"407 1358 OFFCURVE",
"370 1417 CURVE SMOOTH",
"333 1476 OFFCURVE",
"306 1527 OFFCURVE",
"288 1569 CURVE"
);
}
);
width = 784;
}
);
unicode = 00E0;
},
{
glyphname = aring;
lastChange = "2013-03-07 05:31:29 +0200";
layers = (
{
layerId = "A1CEB6E1-F2CA-49E9-B0B5-3CAF1AD39F7C";
name = "Light Condensed";
paths = (
{
closed = 1;
nodes = (
"308 1106 OFFCURVE",
"229 1083 OFFCURVE",
"154 1036 CURVE",
"195 961 LINE",
"260 1002 OFFCURVE",
"323 1022 OFFCURVE",
"385 1022 CURVE SMOOTH",
"502 1022 OFFCURVE",
"549 934 OFFCURVE",
"549 731 CURVE SMOOTH",
"549 641 LINE",
"432 635 LINE SMOOTH",
"208 624 OFFCURVE",
"78 498 OFFCURVE",
"78 291 CURVE SMOOTH",
"78 196 OFFCURVE",
"98.9999 121 OFFCURVE",
"142 64 CURVE SMOOTH",
"185 8 OFFCURVE",
"242 -20 OFFCURVE",
"313 -20 CURVE SMOOTH",
"418 -20 OFFCURVE",
"497 37 OFFCURVE",
"549 152 CURVE",
"553 152 LINE",
"565 0 LINE",
"643 0 LINE",
"643 739 LINE SMOOTH",
"643 871 OFFCURVE",
"623 965 OFFCURVE",
"584 1021 CURVE SMOOTH",
"545 1078 OFFCURVE",
"480 1106 OFFCURVE",
"391 1106 CURVE SMOOTH"
);
},
{
closed = 1;
nodes = (
"549 446 LINE SMOOTH",
"549 201 OFFCURVE",
"470 61 OFFCURVE",
"334 61 CURVE SMOOTH",
"238 61 OFFCURVE",
"178 132 OFFCURVE",
"178 289 CURVE SMOOTH",
"178 457 OFFCURVE",
"261 544 OFFCURVE",
"436 553 CURVE SMOOTH",
"549 559 LINE"
);
},
{
closed = 1;
nodes = (
"261 1624 OFFCURVE",
"185 1551 OFFCURVE",
"185 1438 CURVE SMOOTH",
"185 1323 OFFCURVE",
"260 1251 OFFCURVE",
"384 1251 CURVE SMOOTH",
"505 1251 OFFCURVE",
"583 1323 OFFCURVE",
"583 1442 CURVE SMOOTH",
"583 1497 OFFCURVE",
"564 1541 OFFCURVE",
"527 1574 CURVE SMOOTH",
"490 1607 OFFCURVE",
"442 1624 OFFCURVE",
"384 1624 CURVE SMOOTH"
);
},
{
closed = 1;
nodes = (
"463 1554 OFFCURVE",
"505 1506 OFFCURVE",
"505 1438 CURVE SMOOTH",
"505 1367 OFFCURVE",
"456 1321 OFFCURVE",
"384 1321 CURVE SMOOTH",
"304 1321 OFFCURVE",
"263 1367 OFFCURVE",
"263 1438 CURVE SMOOTH",
"263 1506 OFFCURVE",
"312 1554 OFFCURVE",
"384 1554 CURVE SMOOTH"
);
}
);
width = 784;
}
);
unicode = 00E5;
},
{
glyphname = atilde;
lastChange = "2013-03-07 05:31:29 +0200";
layers = (
{
layerId = "A1CEB6E1-F2CA-49E9-B0B5-3CAF1AD39F7C";
name = "Light Condensed";
paths = (
{
closed = 1;
nodes = (
"308 1106 OFFCURVE",
"229 1083 OFFCURVE",
"154 1036 CURVE",
"195 961 LINE",
"260 1002 OFFCURVE",
"323 1022 OFFCURVE",
"385 1022 CURVE SMOOTH",
"502 1022 OFFCURVE",
"549 934 OFFCURVE",
"549 731 CURVE SMOOTH",
"549 641 LINE",
"432 635 LINE SMOOTH",
"208 624 OFFCURVE",
"78 498 OFFCURVE",
"78 291 CURVE SMOOTH",
"78 196 OFFCURVE",
"98.9999 121 OFFCURVE",
"142 64 CURVE SMOOTH",
"185 8 OFFCURVE",
"242 -20 OFFCURVE",
"313 -20 CURVE SMOOTH",
"418 -20 OFFCURVE",
"497 37 OFFCURVE",
"549 152 CURVE",
"553 152 LINE",
"565 0 LINE",
"643 0 LINE",
"643 739 LINE SMOOTH",
"643 871 OFFCURVE",
"623 965 OFFCURVE",
"584 1021 CURVE SMOOTH",
"545 1078 OFFCURVE",
"480 1106 OFFCURVE",
"391 1106 CURVE SMOOTH"
);
},
{
closed = 1;
nodes = (
"549 446 LINE SMOOTH",
"549 201 OFFCURVE",
"470 61 OFFCURVE",
"334 61 CURVE SMOOTH",
"238 61 OFFCURVE",
"178 132 OFFCURVE",
"178 289 CURVE SMOOTH",
"178 457 OFFCURVE",
"261 544 OFFCURVE",
"436 553 CURVE SMOOTH",
"549 559 LINE"
);
},
{
closed = 1;
nodes = (
"603 1454 LINE",
"591 1378 OFFCURVE",
"571 1325 OFFCURVE",
"524 1325 CURVE SMOOTH",
"458 1325 OFFCURVE",
"376 1452 OFFCURVE",
"282 1452 CURVE SMOOTH",
"186 1452 OFFCURVE",
"132 1370 OFFCURVE",
"116 1241 CURVE",
"190 1241 LINE",
"202 1317 OFFCURVE",
"231 1370 OFFCURVE",
"274 1370 CURVE SMOOTH",
"335 1370 OFFCURVE",
"423 1243 OFFCURVE",
"517 1243 CURVE SMOOTH",
"606 1243 OFFCURVE",
"665 1319 OFFCURVE",
"677 1454 CURVE"
);
}
);
width = 784;
}
);
unicode = 00E3;
},
{
glyphname = ae;
lastChange = "2013-03-07 05:31:29 +0200";
layers = (
{
layerId = "A1CEB6E1-F2CA-49E9-B0B5-3CAF1AD39F7C";
name = "Light Condensed";
paths = (
{
closed = 1;
nodes = (
"757 1106 OFFCURVE",
"674 1049 OFFCURVE",
"618 934 CURVE",
"584 1049 OFFCURVE",
"508 1106 OFFCURVE",
"389 1106 CURVE SMOOTH",
"286 1106 OFFCURVE",
"217 1075 OFFCURVE",
"154 1036 CURVE",
"195 961 LINE",
"260 1002 OFFCURVE",
"323 1022 OFFCURVE",
"385 1022 CURVE SMOOTH",
"498 1022 OFFCURVE",
"549 926 OFFCURVE",
"549 731 CURVE SMOOTH",
"549 641 LINE",
"432 635 LINE SMOOTH",
"208 624 OFFCURVE",
"78 498 OFFCURVE",
"78 291 CURVE SMOOTH",
"78 196 OFFCURVE",
"98.9999 121 OFFCURVE",
"142 64 CURVE SMOOTH",
"185 8 OFFCURVE",
"242 -20 OFFCURVE",
"313 -20 CURVE SMOOTH",
"445 -20 OFFCURVE",
"539 49 OFFCURVE",
"600 221 CURVE",
"652 68 OFFCURVE",
"765 -20 OFFCURVE",
"905 -20 CURVE SMOOTH",
"986.999 -20 OFFCURVE",
"1061 2 OFFCURVE",
"1128 45 CURVE",
"1128 133 LINE",
"1059 90 OFFCURVE",
"973.999 66 OFFCURVE",
"907 66 CURVE SMOOTH",
"741 66 OFFCURVE",
"655 225 OFFCURVE",
"649 543 CURVE",
"1163 543 LINE",
"1163 631 LINE SMOOTH",
"1163 778 OFFCURVE",
"1137 893 OFFCURVE",
"1084 977.999 CURVE SMOOTH",
"1031 1063 OFFCURVE",
"959 1106 OFFCURVE",
"868 1106 CURVE SMOOTH"
);
},
{
closed = 1;
nodes = (
"549 446 LINE SMOOTH",
"549 201 OFFCURVE",
"470 61 OFFCURVE",
"334 61 CURVE SMOOTH",
"238 61 OFFCURVE",
"178 132 OFFCURVE",
"178 289 CURVE SMOOTH",
"178 465 OFFCURVE",
"260 544 OFFCURVE",
"436 553 CURVE SMOOTH",
"549 559 LINE"
);
},
{
closed = 1;
nodes = (
"928 1018 OFFCURVE",
"976.999 983.999 OFFCURVE",
"1014 915 CURVE SMOOTH",
"1051 847 OFFCURVE",
"1069 756 OFFCURVE",
"1069 641 CURVE SMOOTH",
"1069 629 LINE",
"651 629 LINE",
"665 888 OFFCURVE",
"737 1018 OFFCURVE",
"866 1018 CURVE SMOOTH"
);
}
);
width = 1260;
}
);
unicode = 00E6;
},
{
glyphname = b;
lastChange = "2013-03-07 05:31:29 +0200";
layers = (
{
layerId = "A1CEB6E1-F2CA-49E9-B0B5-3CAF1AD39F7C";
name = "Light Condensed";
paths = (
{
closed = 1;
nodes = (
"145 1556 LINE",
"145 0 LINE",
"223 0 LINE",
"236 150 LINE",
"244 150 LINE",
"300 38 OFFCURVE",
"388 -20 OFFCURVE",
"492 -20 CURVE SMOOTH",
"691 -20 OFFCURVE",
"799 177 OFFCURVE",
"799 545 CURVE SMOOTH",
"799 918 OFFCURVE",
"693 1104 OFFCURVE",
"481 1104 CURVE SMOOTH",
"380 1104 OFFCURVE",
"301 1050 OFFCURVE",
"244 942 CURVE",
"236 942 LINE",
"240 1073 LINE",
"240 1556 LINE"
);
},
{
closed = 1;
nodes = (
"633 1016 OFFCURVE",
"700 858 OFFCURVE",
"700 545 CURVE SMOOTH",
"700 218 OFFCURVE",
"628 66 OFFCURVE",
"481 66 CURVE SMOOTH",
"320 66 OFFCURVE",
"240 217 OFFCURVE",
"240 520 CURVE SMOOTH",
"240 545 LINE SMOOTH",
"240 712 OFFCURVE",
"259 833 OFFCURVE",
"296 906 CURVE SMOOTH",
"333 978.999 OFFCURVE",
"394 1016 OFFCURVE",
"477 1016 CURVE SMOOTH"
);
}
);
width = 893;
}
);
unicode = 0062;
},
{
glyphname = c;
lastChange = "2013-03-07 05:31:29 +0200";
layers = (
{
layerId = "A1CEB6E1-F2CA-49E9-B0B5-3CAF1AD39F7C";
name = "Light Condensed";
paths = (
{
closed = 1;
nodes = (
"209 1106 OFFCURVE",
"95.9999 908 OFFCURVE",
"95.9999 537 CURVE SMOOTH",
"95.9999 172 OFFCURVE",
"207 -20 OFFCURVE",
"424 -20 CURVE SMOOTH",
"447 -20 OFFCURVE",
"475 -17 OFFCURVE",
"507 -10 CURVE SMOOTH",
"539 -3 OFFCURVE",
"566 6 OFFCURVE",
"588 18 CURVE",
"588 97.9999 LINE",
"533 77 OFFCURVE",
"481 66 OFFCURVE",
"434 66 CURVE SMOOTH",
"275 66 OFFCURVE",
"195 224 OFFCURVE",
"195 539 CURVE SMOOTH",
"195 857 OFFCURVE",
"275 1016 OFFCURVE",
"434 1016 CURVE SMOOTH",
"471 1016 OFFCURVE",
"512 1006 OFFCURVE",
"557 984.999 CURVE",
"594 1069 LINE",
"549 1094 OFFCURVE",
"493 1106 OFFCURVE",
"426 1106 CURVE SMOOTH"
);
}
);
width = 635;
}
);
unicode = 0063;
},
{
glyphname = ccedilla;
lastChange = "2013-03-07 05:31:29 +0200";
layers = (
{
layerId = "A1CEB6E1-F2CA-49E9-B0B5-3CAF1AD39F7C";
name = "Light Condensed";
paths = (
{
closed = 1;
nodes = (
"209 1106 OFFCURVE",
"95.9999 908 OFFCURVE",
"95.9999 537 CURVE SMOOTH",
"95.9999 172 OFFCURVE",
"207 -20 OFFCURVE",
"424 -20 CURVE SMOOTH",
"447 -20 OFFCURVE",
"475 -17 OFFCURVE",
"507 -10 CURVE SMOOTH",
"539 -3 OFFCURVE",
"566 6 OFFCURVE",
"588 18 CURVE",
"588 97.9999 LINE",
"533 77 OFFCURVE",
"481 66 OFFCURVE",
"434 66 CURVE SMOOTH",
"275 66 OFFCURVE",
"195 224 OFFCURVE",
"195 539 CURVE SMOOTH",
"195 857 OFFCURVE",
"275 1016 OFFCURVE",
"434 1016 CURVE SMOOTH",
"471 1016 OFFCURVE",
"512 1006 OFFCURVE",
"557 984.999 CURVE",
"594 1069 LINE",
"549 1094 OFFCURVE",
"493 1106 OFFCURVE",
"426 1106 CURVE SMOOTH"
);
},
{
closed = 1;
nodes = (
"355 0 LINE",
"283 -160 LINE",
"387 -176 OFFCURVE",
"449 -213 OFFCURVE",
"449 -293 CURVE SMOOTH",
"449 -365 OFFCURVE",
"401 -414 OFFCURVE",
"297 -414 CURVE SMOOTH",
"266 -414 OFFCURVE",
"240 -410 OFFCURVE",
"219 -403 CURVE",
"219 -481 LINE",
"235 -488 OFFCURVE",
"264 -492 OFFCURVE",
"305 -492 CURVE SMOOTH",
"450 -492 OFFCURVE",
"539 -424 OFFCURVE",
"539 -291 CURVE SMOOTH",
"539 -200 OFFCURVE",
"486 -141 OFFCURVE",
"379 -115 CURVE",
"430 0 LINE"
);
}
);
width = 635;
}
);
unicode = 00E7;
},
{
glyphname = d;
lastChange = "2013-03-07 05:31:29 +0200";
layers = (
{
layerId = "A1CEB6E1-F2CA-49E9-B0B5-3CAF1AD39F7C";
name = "Light Condensed";
paths = (
{
closed = 1;
nodes = (
"653 1556 LINE",
"653 1069 LINE",
"657 948 LINE",
"649 948 LINE",
"597 1047 OFFCURVE",
"503 1106 OFFCURVE",
"406 1106 CURVE SMOOTH",
"201 1106 OFFCURVE",
"93.9999 909 OFFCURVE",
"93.9999 541 CURVE SMOOTH",
"93.9999 167 OFFCURVE",
"199 -20 OFFCURVE",
"410 -20 CURVE SMOOTH",
"517 -20 OFFCURVE",
"601 41 OFFCURVE",
"653 152 CURVE",
"662 152 LINE",
"670 0 LINE",
"748 0 LINE",
"748 1556 LINE"
);
},
{
closed = 1;
nodes = (
"575 1016 OFFCURVE",
"653 869 OFFCURVE",
"653 541 CURVE SMOOTH",
"653 479 LINE SMOOTH",
"653 206 OFFCURVE",
"568 63 OFFCURVE",
"416 63 CURVE SMOOTH",
"260 63 OFFCURVE",
"193 227 OFFCURVE",
"193 539 CURVE SMOOTH",
"193 848 OFFCURVE",
"256 1016 OFFCURVE",
"412 1016 CURVE SMOOTH"
);
}
);
width = 893;
}
);
unicode = 0064;
},
{
glyphname = eth;
lastChange = "2013-03-07 05:31:29 +0200";
layers = (
{
layerId = "A1CEB6E1-F2CA-49E9-B0B5-3CAF1AD39F7C";
name = "Light Condensed";
paths = (
{
closed = 1;
nodes = (
"238 1495 LINE",
"273 1468 OFFCURVE",
"311 1436 OFFCURVE",
"350 1399 CURVE",
"190 1305 LINE",
"229 1239 LINE",
"403 1341 LINE",
"526 1198 OFFCURVE",
"606 1028 OFFCURVE",
"641 831 CURVE",
"633 831 LINE",
"584 913 OFFCURVE",
"508 954 OFFCURVE",
"406 954 CURVE SMOOTH",
"205 954 OFFCURVE",
"93.9999 780 OFFCURVE",
"93.9999 469 CURVE SMOOTH",
"93.9999 324 OFFCURVE",
"124 206 OFFCURVE",
"185 115 CURVE SMOOTH",
"246 25 OFFCURVE",
"325 -20 OFFCURVE",
"424 -20 CURVE SMOOTH",
"649 -20 OFFCURVE",
"762 158 OFFCURVE",
"762 514 CURVE SMOOTH",
"762 879 OFFCURVE",
"668 1169 OFFCURVE",
"479 1386 CURVE",
"653 1489 LINE",
"614 1554 LINE",
"426 1444 LINE",
"381 1488 OFFCURVE",
"334 1525 OFFCURVE",
"285 1556 CURVE"
);
},
{
closed = 1;
nodes = (
"502 864 OFFCURVE",
"558 828 OFFCURVE",
"601 756 CURVE SMOOTH",
"644 685 OFFCURVE",
"666 594 OFFCURVE",
"666 483 CURVE SMOOTH",
"666 202 OFFCURVE",
"593 66 OFFCURVE",
"430 66 CURVE SMOOTH",
"356 66 OFFCURVE",
"297 102 OFFCURVE",
"254 173 CURVE SMOOTH",
"211 244 OFFCURVE",
"190 340 OFFCURVE",
"190 461 CURVE SMOOTH",
"190 726 OFFCURVE",
"276 864 OFFCURVE",
"432 864 CURVE SMOOTH"
);
}
);
width = 856;
}
);
unicode = 00F0;
},
{
glyphname = e;
lastChange = "2013-03-07 05:31:29 +0200";
layers = (
{
layerId = "A1CEB6E1-F2CA-49E9-B0B5-3CAF1AD39F7C";
name = "Light Condensed";
paths = (
{
closed = 1;
nodes = (
"209 1106 OFFCURVE",
"95.9999 906 OFFCURVE",
"95.9999 535 CURVE SMOOTH",
"95.9999 360 OFFCURVE",
"127 224 OFFCURVE",
"188 126 CURVE SMOOTH",
"250 29 OFFCURVE",
"338 -20 OFFCURVE",
"453 -20 CURVE SMOOTH",
"530 -20 OFFCURVE",
"603 2 OFFCURVE",
"672 45 CURVE",
"672 137 LINE",
"597 92 OFFCURVE",
"525 70 OFFCURVE",
"457 70 CURVE SMOOTH",
"281 70 OFFCURVE",
"196 227 OFFCURVE",
"193 543 CURVE",
"707 543 LINE",
"707 631 LINE SMOOTH",
"707 776 OFFCURVE",
"681 892 OFFCURVE",
"629 976.999 CURVE SMOOTH",
"577 1063 OFFCURVE",
"506 1106 OFFCURVE",
"416 1106 CURVE SMOOTH"
);
},
{
closed = 1;
nodes = (
"472 1020 OFFCURVE",
"521 984.999 OFFCURVE",
"557 914 CURVE SMOOTH",
"594 843 OFFCURVE",
"612 748 OFFCURVE",
"612 629 CURVE",
"195 629 LINE",
"208 890 OFFCURVE",
"279 1020 OFFCURVE",
"410 1020 CURVE SMOOTH"
);
}
);
width = 803;
}
);
unicode = 0065;
},
{
glyphname = eacute;
lastChange = "2013-03-07 05:31:29 +0200";
layers = (
{
layerId = "A1CEB6E1-F2CA-49E9-B0B5-3CAF1AD39F7C";
name = "Light Condensed";
paths = (
{
closed = 1;
nodes = (
"209 1106 OFFCURVE",
"95.9999 906 OFFCURVE",
"95.9999 535 CURVE SMOOTH",
"95.9999 360 OFFCURVE",
"127 224 OFFCURVE",
"188 126 CURVE SMOOTH",
"250 29 OFFCURVE",
"338 -20 OFFCURVE",
"453 -20 CURVE SMOOTH",
"530 -20 OFFCURVE",
"603 2 OFFCURVE",
"672 45 CURVE",
"672 137 LINE",
"597 92 OFFCURVE",
"525 70 OFFCURVE",
"457 70 CURVE SMOOTH",
"281 70 OFFCURVE",
"196 227 OFFCURVE",
"193 543 CURVE",
"707 543 LINE",
"707 631 LINE SMOOTH",
"707 776 OFFCURVE",
"681 892 OFFCURVE",
"629 976.999 CURVE SMOOTH",
"577 1063 OFFCURVE",
"506 1106 OFFCURVE",
"416 1106 CURVE SMOOTH"
);
},
{
closed = 1;
nodes = (
"472 1020 OFFCURVE",
"521 984.999 OFFCURVE",
"557 914 CURVE SMOOTH",
"594 843 OFFCURVE",
"612 748 OFFCURVE",
"612 629 CURVE",
"195 629 LINE",
"208 890 OFFCURVE",
"279 1020 OFFCURVE",
"410 1020 CURVE SMOOTH"
);
},
{
closed = 1;
nodes = (
"534 1569 LINE",
"491 1475 OFFCURVE",
"428 1373 OFFCURVE",
"343 1262 CURVE",
"343 1241 LINE",
"390 1241 LINE",
"437 1280 OFFCURVE",
"487 1330 OFFCURVE",
"540 1391 CURVE SMOOTH",
"593 1452 OFFCURVE",
"633 1505 OFFCURVE",
"659 1552 CURVE",
"659 1569 LINE"
);
}
);
width = 803;
}
);
unicode = 00E9;
},
{
glyphname = ecircumflex;
lastChange = "2013-03-07 05:31:29 +0200";
layers = (
{
layerId = "A1CEB6E1-F2CA-49E9-B0B5-3CAF1AD39F7C";
name = "Light Condensed";
paths = (
{
closed = 1;
nodes = (
"209 1106 OFFCURVE",
"95.9999 906 OFFCURVE",
"95.9999 535 CURVE SMOOTH",
"95.9999 360 OFFCURVE",
"127 224 OFFCURVE",
"188 126 CURVE SMOOTH",
"250 29 OFFCURVE",
"338 -20 OFFCURVE",
"453 -20 CURVE SMOOTH",
"530 -20 OFFCURVE",
"603 2 OFFCURVE",
"672 45 CURVE",
"672 137 LINE",
"597 92 OFFCURVE",
"525 70 OFFCURVE",
"457 70 CURVE SMOOTH",
"281 70 OFFCURVE",
"196 227 OFFCURVE",
"193 543 CURVE",
"707 543 LINE",
"707 631 LINE SMOOTH",
"707 776 OFFCURVE",
"681 892 OFFCURVE",
"629 976.999 CURVE SMOOTH",
"577 1063 OFFCURVE",
"506 1106 OFFCURVE",
"416 1106 CURVE SMOOTH"
);
},
{
closed = 1;
nodes = (
"472 1020 OFFCURVE",
"521 984.999 OFFCURVE",
"557 914 CURVE SMOOTH",
"594 843 OFFCURVE",
"612 748 OFFCURVE",
"612 629 CURVE",
"195 629 LINE",
"208 890 OFFCURVE",
"279 1020 OFFCURVE",
"410 1020 CURVE SMOOTH"
);
},
{
closed = 1;
nodes = (
"363 1569 LINE",
"320 1475 OFFCURVE",
"258 1372 OFFCURVE",
"177 1260 CURVE",
"177 1241 LINE",
"220 1241 LINE",
"276 1294 OFFCURVE",
"346 1379 OFFCURVE",
"413 1454 CURVE",
"510 1342 LINE SMOOTH",
"549 1295 OFFCURVE",
"580 1262 OFFCURVE",
"601 1241 CURVE",
"648 1241 LINE",
"648 1260 LINE",
"610 1310 OFFCURVE",
"573 1365 OFFCURVE",
"536 1424 CURVE SMOOTH",
"500 1484 OFFCURVE",
"474 1532 OFFCURVE",
"458 1569 CURVE"
);
}
);
width = 803;
}
);
unicode = 00EA;
},
{
glyphname = edieresis;
lastChange = "2013-03-07 05:31:29 +0200";
layers = (
{
layerId = "A1CEB6E1-F2CA-49E9-B0B5-3CAF1AD39F7C";
name = "Light Condensed";
paths = (
{
closed = 1;
nodes = (
"209 1106 OFFCURVE",
"95.9999 906 OFFCURVE",
"95.9999 535 CURVE SMOOTH",
"95.9999 360 OFFCURVE",
"127 224 OFFCURVE",
"188 126 CURVE SMOOTH",
"250 29 OFFCURVE",
"338 -20 OFFCURVE",
"453 -20 CURVE SMOOTH",
"530 -20 OFFCURVE",
"603 2 OFFCURVE",
"672 45 CURVE",
"672 137 LINE",
"597 92 OFFCURVE",
"525 70 OFFCURVE",
"457 70 CURVE SMOOTH",
"281 70 OFFCURVE",
"196 227 OFFCURVE",
"193 543 CURVE",
"707 543 LINE",
"707 631 LINE SMOOTH",
"707 776 OFFCURVE",
"681 892 OFFCURVE",
"629 976.999 CURVE SMOOTH",
"577 1063 OFFCURVE",
"506 1106 OFFCURVE",
"416 1106 CURVE SMOOTH"
);
},
{
closed = 1;
nodes = (
"472 1020 OFFCURVE",
"521 984.999 OFFCURVE",
"557 914 CURVE SMOOTH",
"594 843 OFFCURVE",
"612 748 OFFCURVE",
"612 629 CURVE",
"195 629 LINE",
"208 890 OFFCURVE",
"279 1020 OFFCURVE",
"410 1020 CURVE SMOOTH"
);
},
{
closed = 1;
nodes = (
"226 1470 OFFCURVE",
"195 1446 OFFCURVE",
"195 1389 CURVE SMOOTH",
"195 1330 OFFCURVE",
"226 1305 OFFCURVE",
"259 1305 CURVE SMOOTH",
"290 1305 OFFCURVE",
"320 1330 OFFCURVE",
"320 1389 CURVE SMOOTH",
"320 1446 OFFCURVE",
"290 1470 OFFCURVE",
"259 1470 CURVE SMOOTH"
);
},
{
closed = 1;
nodes = (
"531 1470 OFFCURVE",
"500 1446 OFFCURVE",
"500 1389 CURVE SMOOTH",
"500 1330 OFFCURVE",
"531 1305 OFFCURVE",
"562 1305 CURVE SMOOTH",
"595 1305 OFFCURVE",
"625 1330 OFFCURVE",
"625 1389 CURVE SMOOTH",
"625 1446 OFFCURVE",
"595 1470 OFFCURVE",
"562 1470 CURVE SMOOTH"
);
}
);
width = 803;
}
);
unicode = 00EB;
},
{
glyphname = egrave;
lastChange = "2013-03-07 05:31:29 +0200";
layers = (
{
layerId = "A1CEB6E1-F2CA-49E9-B0B5-3CAF1AD39F7C";
name = "Light Condensed";
paths = (
{
closed = 1;
nodes = (
"209 1106 OFFCURVE",
"95.9999 906 OFFCURVE",
"95.9999 535 CURVE SMOOTH",
"95.9999 360 OFFCURVE",
"127 224 OFFCURVE",
"188 126 CURVE SMOOTH",
"250 29 OFFCURVE",
"338 -20 OFFCURVE",
"453 -20 CURVE SMOOTH",
"530 -20 OFFCURVE",
"603 2 OFFCURVE",
"672 45 CURVE",
"672 137 LINE",
"597 92 OFFCURVE",
"525 70 OFFCURVE",
"457 70 CURVE SMOOTH",
"281 70 OFFCURVE",
"196 227 OFFCURVE",
"193 543 CURVE",
"707 543 LINE",
"707 631 LINE SMOOTH",
"707 776 OFFCURVE",
"681 892 OFFCURVE",
"629 976.999 CURVE SMOOTH",
"577 1063 OFFCURVE",
"506 1106 OFFCURVE",
"416 1106 CURVE SMOOTH"
);
},
{
closed = 1;
nodes = (
"472 1020 OFFCURVE",
"521 984.999 OFFCURVE",
"557 914 CURVE SMOOTH",
"594 843 OFFCURVE",
"612 748 OFFCURVE",
"612 629 CURVE",
"195 629 LINE",
"208 890 OFFCURVE",
"279 1020 OFFCURVE",
"410 1020 CURVE SMOOTH"
);
},
{
closed = 1;
nodes = (
"197 1569 LINE",
"197 1552 LINE",
"221 1507 OFFCURVE",
"261 1452 OFFCURVE",
"316 1389 CURVE SMOOTH",
"372 1326 OFFCURVE",
"422 1276 OFFCURVE",
"465 1241 CURVE",
"513 1241 LINE",
"513 1262 LINE",
"478 1306 OFFCURVE",
"441 1358 OFFCURVE",
"404 1417 CURVE SMOOTH",
"367 1476 OFFCURVE",
"340 1527 OFFCURVE",
"322 1569 CURVE"
);
}
);
width = 803;
}
);
unicode = 00E8;
},
{
glyphname = f;
lastChange = "2013-03-07 05:31:29 +0200";
layers = (
{
layerId = "A1CEB6E1-F2CA-49E9-B0B5-3CAF1AD39F7C";
name = "Light Condensed";
paths = (
{
closed = 1;
nodes = (
"296 1567 OFFCURVE",
"240 1537 OFFCURVE",
"207 1476 CURVE SMOOTH",
"174 1415 OFFCURVE",
"158 1316 OFFCURVE",
"158 1178 CURVE SMOOTH",
"158 1096 LINE",
"20 1055 LINE",
"20 1001 LINE",
"158 1001 LINE",
"158 0 LINE",
"252 0 LINE",
"252 1001 LINE",
"422 1001 LINE",
"422 1085 LINE",
"252 1085 LINE",
"252 1176 LINE SMOOTH",
"255 1406 OFFCURVE",
"278 1475 OFFCURVE",
"375 1479 CURVE",
"404 1479 OFFCURVE",
"436 1471 OFFCURVE",
"471 1454 CURVE",
"504 1542 LINE",
"466 1559 OFFCURVE",
"424 1567 OFFCURVE",
"377 1567 CURVE SMOOTH"
);
}
);
width = 453;
}
);
unicode = 0066;
},
{
glyphname = g;
lastChange = "2013-03-07 05:31:29 +0200";
layers = (
{
layerId = "A1CEB6E1-F2CA-49E9-B0B5-3CAF1AD39F7C";
name = "Light Condensed";
paths = (
{
closed = 1;
nodes = (
"284 1106 OFFCURVE",
"218 1073 OFFCURVE",
"169 1006 CURVE SMOOTH",
"120 939 OFFCURVE",
"95.9999 848 OFFCURVE",
"95.9999 733 CURVE SMOOTH",
"95.9999 580 OFFCURVE",
"153 461 OFFCURVE",
"264 410 CURVE",
"184 351 OFFCURVE",
"139 305 OFFCURVE",
"139 240 CURVE SMOOTH",
"139 168 OFFCURVE",
"183 115 OFFCURVE",
"250 86 CURVE",
"102 30 OFFCURVE",
"35 -67 OFFCURVE",
"35 -203 CURVE SMOOTH",
"35 -390 OFFCURVE",
"144 -492 OFFCURVE",
"340 -492 CURVE SMOOTH",
"457 -492 OFFCURVE",
"552 -461 OFFCURVE",
"623 -399 CURVE SMOOTH",
"695 -337 OFFCURVE",
"731 -253 OFFCURVE",
"731 -147 CURVE SMOOTH",
"731 42 OFFCURVE",
"619 145 OFFCURVE",
"426 145 CURVE SMOOTH",
"358 145 LINE SMOOTH",
"277 145 OFFCURVE",
"225 181 OFFCURVE",
"225 242 CURVE SMOOTH",
"225 302 OFFCURVE",
"264 344 OFFCURVE",
"328 389 CURVE",
"349 387 LINE",
"373 387 LINE SMOOTH",
"451 387 OFFCURVE",
"514 420 OFFCURVE",
"561 485 CURVE SMOOTH",
"609 550 OFFCURVE",
"633 636 OFFCURVE",
"633 741 CURVE SMOOTH",
"633 792 OFFCURVE",
"627 841 OFFCURVE",
"614 889 CURVE SMOOTH",
"601 938 OFFCURVE",
"585 974.999 OFFCURVE",
"565 1001 CURVE",
"713 1018 LINE",
"713 1085 LINE",
"483 1085 LINE",
"452 1099 OFFCURVE",
"414 1106 OFFCURVE",
"369 1106 CURVE SMOOTH"
);
},
{
closed = 1;
nodes = (
"562 53 OFFCURVE",
"635 -21 OFFCURVE",
"635 -152 CURVE SMOOTH",
"635 -233 OFFCURVE",
"609 -297 OFFCURVE",
"556 -344 CURVE SMOOTH",
"504 -391 OFFCURVE",
"433 -414 OFFCURVE",
"344 -414 CURVE SMOOTH",
"200 -414 OFFCURVE",
"129 -332 OFFCURVE",
"129 -195 CURVE SMOOTH",
"129 -121 OFFCURVE",
"150 -61 OFFCURVE",
"193 -15 CURVE SMOOTH",
"236 30 OFFCURVE",
"291 53 OFFCURVE",
"356 53 CURVE SMOOTH",
"426 53 LINE SMOOTH"
);
},
{
closed = 1;
nodes = (
"480 1028 OFFCURVE",
"541 921 OFFCURVE",
"541 741 CURVE SMOOTH",
"541 554 OFFCURVE",
"483 461 OFFCURVE",
"367 461 CURVE SMOOTH",
"259 461 OFFCURVE",
"188 554 OFFCURVE",
"188 731 CURVE SMOOTH",
"188 919 OFFCURVE",
"251 1028 OFFCURVE",
"367 1028 CURVE SMOOTH"
);
}
);
width = 741;
}
);
unicode = 0067;
},
{
glyphname = h;
lastChange = "2013-03-07 05:31:29 +0200";
layers = (
{
layerId = "A1CEB6E1-F2CA-49E9-B0B5-3CAF1AD39F7C";
name = "Light Condensed";
paths = (
{
closed = 1;
nodes = (
"145 1556 LINE",
"145 0 LINE",
"240 0 LINE",
"240 594 LINE SMOOTH",
"240 887 OFFCURVE",
"318 1018 OFFCURVE",
"471 1018 CURVE SMOOTH",
"587 1018 OFFCURVE",
"635 944 OFFCURVE",
"635 748 CURVE SMOOTH",
"635 0 LINE",
"729 0 LINE",
"729 748 LINE SMOOTH",
"729 984.999 OFFCURVE",
"659 1106 OFFCURVE",
"475 1106 CURVE SMOOTH",
"428 1106 OFFCURVE",
"383 1091 OFFCURVE",
"340 1061 CURVE SMOOTH",
"297 1032 OFFCURVE",
"265 989.999 OFFCURVE",
"244 936 CURVE",
"236 936 LINE",
"239 967 OFFCURVE",
"240 1005 OFFCURVE",
"240 1051 CURVE SMOOTH",
"240 1556 LINE"
);
}
);
width = 870;
}
);
unicode = 0068;
},
{
glyphname = i;
lastChange = "2013-03-07 05:31:29 +0200";
layers = (
{
layerId = "A1CEB6E1-F2CA-49E9-B0B5-3CAF1AD39F7C";
name = "Light Condensed";
paths = (
{
closed = 1;
nodes = (
"145 1085 LINE",
"145 0 LINE",
"240 0 LINE",
"240 1085 LINE"
);
},
{
closed = 1;
nodes = (
"158 1481 OFFCURVE",
"131 1446 OFFCURVE",
"131 1386 CURVE SMOOTH",
"131 1329 OFFCURVE",
"158 1292 OFFCURVE",
"197 1292 CURVE SMOOTH",
"233 1292 OFFCURVE",
"256 1329 OFFCURVE",
"256 1386 CURVE SMOOTH",
"256 1446 OFFCURVE",
"233 1481 OFFCURVE",
"197 1481 CURVE SMOOTH"
);
}
);
width = 385;
}
);
unicode = 0069;
},
{
glyphname = dotlessi;
lastChange = "2013-03-07 05:31:29 +0200";
layers = (
{
layerId = "A1CEB6E1-F2CA-49E9-B0B5-3CAF1AD39F7C";
name = "Light Condensed";
paths = (
{
closed = 1;
nodes = (
"145 1085 LINE",
"145 0 LINE",
"240 0 LINE",
"240 1085 LINE"
);
}
);
width = 385;
}
);
unicode = 0131;
},
{
glyphname = iacute;
lastChange = "2013-03-07 05:31:29 +0200";
layers = (
{
layerId = "A1CEB6E1-F2CA-49E9-B0B5-3CAF1AD39F7C";
name = "Light Condensed";
paths = (
{
closed = 1;
nodes = (
"304 1569 LINE",
"261 1475 OFFCURVE",
"198 1373 OFFCURVE",
"113 1262 CURVE",
"113 1241 LINE",
"160 1241 LINE",
"207 1280 OFFCURVE",
"257 1330 OFFCURVE",
"310 1391 CURVE SMOOTH",
"363 1452 OFFCURVE",
"403 1505 OFFCURVE",
"429 1552 CURVE",
"429 1569 LINE"
);
},
{
closed = 1;
nodes = (
"145 1085 LINE",
"145 0 LINE",
"240 0 LINE",
"240 1085 LINE"
);
}
);
width = 385;
}
);
unicode = 00ED;
},
{
glyphname = icircumflex;
lastChange = "2013-03-07 05:31:29 +0200";
layers = (
{
layerId = "A1CEB6E1-F2CA-49E9-B0B5-3CAF1AD39F7C";
name = "Light Condensed";
paths = (
{
closed = 1;
nodes = (
"144 1569 LINE",
"101 1475 OFFCURVE",
"39 1372 OFFCURVE",
"-42 1260 CURVE",
"-42 1241 LINE",
"0.999999 1241 LINE",
"57 1294 OFFCURVE",
"127 1379 OFFCURVE",
"194 1454 CURVE",
"291 1342 LINE SMOOTH",
"330 1295 OFFCURVE",
"361 1262 OFFCURVE",
"382 1241 CURVE",
"429 1241 LINE",
"429 1260 LINE",
"391 1310 OFFCURVE",
"354 1365 OFFCURVE",
"317 1424 CURVE SMOOTH",
"281 1484 OFFCURVE",
"255 1532 OFFCURVE",
"239 1569 CURVE"
);
},
{
closed = 1;
nodes = (
"145 1085 LINE",
"145 0 LINE",
"240 0 LINE",
"240 1085 LINE"
);
}
);
width = 385;
}
);
unicode = 00EE;
},
{
glyphname = idieresis;
lastChange = "2013-03-07 05:31:29 +0200";
layers = (
{
layerId = "A1CEB6E1-F2CA-49E9-B0B5-3CAF1AD39F7C";
name = "Light Condensed";
paths = (
{
closed = 1;
nodes = (
"145 1085 LINE",
"145 0 LINE",
"240 0 LINE",
"240 1085 LINE"
);
},
{
closed = 1;
nodes = (
"11 1470 OFFCURVE",
"-20 1446 OFFCURVE",
"-20 1389 CURVE SMOOTH",
"-20 1330 OFFCURVE",
"11 1305 OFFCURVE",
"44 1305 CURVE SMOOTH",
"75 1305 OFFCURVE",
"105 1330 OFFCURVE",
"105 1389 CURVE SMOOTH",
"105 1446 OFFCURVE",
"75 1470 OFFCURVE",
"44 1470 CURVE SMOOTH"
);
},
{
closed = 1;
nodes = (
"316 1470 OFFCURVE",
"285 1446 OFFCURVE",
"285 1389 CURVE SMOOTH",
"285 1330 OFFCURVE",
"316 1305 OFFCURVE",
"347 1305 CURVE SMOOTH",
"380 1305 OFFCURVE",
"410 1330 OFFCURVE",
"410 1389 CURVE SMOOTH",
"410 1446 OFFCURVE",
"380 1470 OFFCURVE",
"347 1470 CURVE SMOOTH"
);
}
);
width = 385;
}
);
unicode = 00EF;
},
{
glyphname = igrave;
lastChange = "2013-03-07 05:31:29 +0200";
layers = (
{
layerId = "A1CEB6E1-F2CA-49E9-B0B5-3CAF1AD39F7C";
name = "Light Condensed";
paths = (
{
closed = 1;
nodes = (
"-32 1569 LINE",
"-32 1552 LINE",
"-8 1507 OFFCURVE",
"32 1452 OFFCURVE",
"87 1389 CURVE SMOOTH",
"143 1326 OFFCURVE",
"193 1276 OFFCURVE",
"236 1241 CURVE",
"284 1241 LINE",
"284 1262 LINE",
"249 1306 OFFCURVE",
"212 1358 OFFCURVE",
"175 1417 CURVE SMOOTH",
"138 1476 OFFCURVE",
"111 1527 OFFCURVE",
"92.9999 1569 CURVE"
);
},
{
closed = 1;
nodes = (
"145 1085 LINE",
"145 0 LINE",
"240 0 LINE",
"240 1085 LINE"
);
}
);
width = 385;
}
);
unicode = 00EC;
},
{
glyphname = j;
lastChange = "2013-03-07 05:31:29 +0200";
layers = (
{
layerId = "A1CEB6E1-F2CA-49E9-B0B5-3CAF1AD39F7C";
name = "Light Condensed";
paths = (
{
closed = 1;
nodes = (
"145 1085 LINE",
"145 -215 LINE SMOOTH",
"145 -342 OFFCURVE",
"122 -401 OFFCURVE",
"59 -401 CURVE SMOOTH",
"38 -401 OFFCURVE",
"17 -396 OFFCURVE",
"-4 -385 CURVE",
"-4 -475 LINE",
"13 -486 OFFCURVE",
"35 -492 OFFCURVE",
"63 -492 CURVE SMOOTH",
"184 -492 OFFCURVE",
"240 -400 OFFCURVE",
"240 -201 CURVE SMOOTH",
"240 1085 LINE"
);
},
{
closed = 1;
nodes = (
"158 1481 OFFCURVE",
"131 1446 OFFCURVE",
"131 1386 CURVE SMOOTH",
"131 1329 OFFCURVE",
"158 1292 OFFCURVE",
"197 1292 CURVE SMOOTH",
"233 1292 OFFCURVE",
"256 1329 OFFCURVE",
"256 1386 CURVE SMOOTH",
"256 1446 OFFCURVE",
"233 1481 OFFCURVE",
"197 1481 CURVE SMOOTH"
);
}
);
width = 385;
}
);
unicode = 006A;
},
{
glyphname = k;
lastChange = "2013-03-07 05:31:29 +0200";
layers = (
{
layerId = "A1CEB6E1-F2CA-49E9-B0B5-3CAF1AD39F7C";
name = "Light Condensed";
paths = (
{
closed = 1;
nodes = (
"145 1556 LINE",
"145 0 LINE",
"240 0 LINE",
"240 440 LINE",
"360 598 LINE",
"596 0 LINE",
"696 0 LINE",
"424 686 LINE",
"674 1085 LINE",
"571 1085 LINE",
"303 647 LINE",
"242 537 LINE",
"233 537 LINE",
"240 719 LINE",
"240 1556 LINE"
);
}
);
width = 711;
}
);
unicode = 006B;
},
{
glyphname = l;
lastChange = "2013-03-07 05:31:29 +0200";
layers = (
{
layerId = "A1CEB6E1-F2CA-49E9-B0B5-3CAF1AD39F7C";
name = "Light Condensed";
paths = (
{
closed = 1;
nodes = (
"145 1556 LINE",
"145 0 LINE",
"240 0 LINE",
"240 1556 LINE"
);
}
);
width = 385;
}
);
unicode = 006C;
},
{
glyphname = m;
lastChange = "2013-03-07 05:31:29 +0200";
layers = (
{
layerId = "A1CEB6E1-F2CA-49E9-B0B5-3CAF1AD39F7C";
name = "Light Condensed";
paths = (
{
closed = 1;
nodes = (
"803 1106 OFFCURVE",
"732 1051 OFFCURVE",
"680 918 CURVE",
"649 1041 OFFCURVE",
"583 1106 OFFCURVE",
"463 1106 CURVE SMOOTH",
"359 1106 OFFCURVE",
"285 1049 OFFCURVE",
"242 934 CURVE",
"233 934 LINE",
"225 1085 LINE",
"145 1085 LINE",
"145 0 LINE",
"240 0 LINE",
"240 596 LINE SMOOTH",
"240 743 OFFCURVE",
"256 849 OFFCURVE",
"289 914 CURVE SMOOTH",
"322 978.999 OFFCURVE",
"374 1012 OFFCURVE",
"446 1012 CURVE SMOOTH",
"555 1012 OFFCURVE",
"606 923 OFFCURVE",
"606 739 CURVE SMOOTH",
"606 0 LINE",
"700 0 LINE",
"700 635 LINE SMOOTH",
"700 883 OFFCURVE",
"760 1012 OFFCURVE",
"907 1012 CURVE SMOOTH",
"1014 1012 OFFCURVE",
"1067 921 OFFCURVE",
"1067 739 CURVE SMOOTH",
"1067 0 LINE",
"1161 0 LINE",
"1161 709 LINE SMOOTH",
"1161 985.999 OFFCURVE",
"1088 1106 OFFCURVE",
"924 1106 CURVE SMOOTH"
);
}
);
width = 1303;
}
);
unicode = 006D;
},
{
glyphname = n;
lastChange = "2013-03-07 05:31:29 +0200";
layers = (
{
layerId = "A1CEB6E1-F2CA-49E9-B0B5-3CAF1AD39F7C";
name = "Light Condensed";
paths = (
{
closed = 1;
nodes = (
"380 1106 OFFCURVE",
"287 1043 OFFCURVE",
"242 934 CURVE",
"233 934 LINE",
"225 1085 LINE",
"145 1085 LINE",
"145 0 LINE",
"240 0 LINE",
"240 596 LINE SMOOTH",
"240 889 OFFCURVE",
"312 1018 OFFCURVE",
"475 1018 CURVE SMOOTH",
"582 1018 OFFCURVE",
"635 928 OFFCURVE",
"635 748 CURVE SMOOTH",
"635 0 LINE",
"729 0 LINE",
"729 750 LINE SMOOTH",
"729 998.999 OFFCURVE",
"645 1106 OFFCURVE",
"477 1106 CURVE SMOOTH"
);
}
);
width = 870;
}
);
unicode = 006E;
},
{
glyphname = ntilde;
lastChange = "2013-03-07 05:31:29 +0200";
layers = (
{
layerId = "A1CEB6E1-F2CA-49E9-B0B5-3CAF1AD39F7C";
name = "Light Condensed";
paths = (
{
closed = 1;
nodes = (
"380 1106 OFFCURVE",
"287 1043 OFFCURVE",
"242 934 CURVE",
"233 934 LINE",
"225 1085 LINE",
"145 1085 LINE",
"145 0 LINE",
"240 0 LINE",
"240 596 LINE SMOOTH",
"240 889 OFFCURVE",
"312 1018 OFFCURVE",
"475 1018 CURVE SMOOTH",
"582 1018 OFFCURVE",
"635 928 OFFCURVE",
"635 748 CURVE SMOOTH",
"635 0 LINE",
"729 0 LINE",
"729 750 LINE SMOOTH",
"729 998.999 OFFCURVE",
"645 1106 OFFCURVE",
"477 1106 CURVE SMOOTH"
);
},
{
closed = 1;
nodes = (
"652 1454 LINE",
"640 1378 OFFCURVE",
"620 1325 OFFCURVE",
"573 1325 CURVE SMOOTH",
"507 1325 OFFCURVE",
"425 1452 OFFCURVE",
"331 1452 CURVE SMOOTH",
"235 1452 OFFCURVE",
"181 1370 OFFCURVE",
"165 1241 CURVE",
"239 1241 LINE",
"251 1317 OFFCURVE",
"280 1370 OFFCURVE",
"323 1370 CURVE SMOOTH",
"384 1370 OFFCURVE",
"472 1243 OFFCURVE",
"566 1243 CURVE SMOOTH",
"655 1243 OFFCURVE",
"714 1319 OFFCURVE",
"726 1454 CURVE"
);
}
);
width = 870;
}
);
unicode = 00F1;
},
{
glyphname = o;
lastChange = "2013-03-07 05:31:29 +0200";
layers = (
{
layerId = "A1CEB6E1-F2CA-49E9-B0B5-3CAF1AD39F7C";
name = "Light Condensed";
paths = (
{
closed = 1;
nodes = (
"205 1106 OFFCURVE",
"93.9999 919 OFFCURVE",
"93.9999 545 CURVE SMOOTH",
"93.9999 180 OFFCURVE",
"210 -20 OFFCURVE",
"422 -20 CURVE SMOOTH",
"637 -20 OFFCURVE",
"756 180 OFFCURVE",
"756 545 CURVE SMOOTH",
"756 723 OFFCURVE",
"727 861 OFFCURVE",
"669 959 CURVE SMOOTH",
"611 1057 OFFCURVE",
"530 1106 OFFCURVE",
"426 1106 CURVE SMOOTH"
);
},
{
closed = 1;
nodes = (
"579 1016 OFFCURVE",
"657 859 OFFCURVE",
"657 545 CURVE SMOOTH",
"657 228 OFFCURVE",
"579 70 OFFCURVE",
"424 70 CURVE SMOOTH",
"265 70 OFFCURVE",
"193 232 OFFCURVE",
"193 545 CURVE SMOOTH",
"193 858 OFFCURVE",
"261 1016 OFFCURVE",
"424 1016 CURVE SMOOTH"
);
}
);
width = 850;
}
);
unicode = 006F;
},
{
glyphname = oacute;
lastChange = "2013-03-07 05:31:29 +0200";
layers = (
{
layerId = "A1CEB6E1-F2CA-49E9-B0B5-3CAF1AD39F7C";
name = "Light Condensed";
paths = (
{
closed = 1;
nodes = (
"205 1106 OFFCURVE",
"93.9999 919 OFFCURVE",
"93.9999 545 CURVE SMOOTH",
"93.9999 180 OFFCURVE",
"210 -20 OFFCURVE",
"422 -20 CURVE SMOOTH",
"637 -20 OFFCURVE",
"756 180 OFFCURVE",
"756 545 CURVE SMOOTH",
"756 723 OFFCURVE",
"727 861 OFFCURVE",
"669 959 CURVE SMOOTH",
"611 1057 OFFCURVE",
"530 1106 OFFCURVE",
"426 1106 CURVE SMOOTH"
);
},
{
closed = 1;
nodes = (
"579 1016 OFFCURVE",
"657 859 OFFCURVE",
"657 545 CURVE SMOOTH",
"657 228 OFFCURVE",
"579 70 OFFCURVE",
"424 70 CURVE SMOOTH",
"265 70 OFFCURVE",
"193 232 OFFCURVE",
"193 545 CURVE SMOOTH",
"193 858 OFFCURVE",
"261 1016 OFFCURVE",
"424 1016 CURVE SMOOTH"
);
},
{
closed = 1;
nodes = (
"532 1569 LINE",
"489 1475 OFFCURVE",
"426 1373 OFFCURVE",
"341 1262 CURVE",
"341 1241 LINE",
"388 1241 LINE",
"435 1280 OFFCURVE",
"485 1330 OFFCURVE",
"538 1391 CURVE SMOOTH",
"591 1452 OFFCURVE",
"631 1505 OFFCURVE",
"657 1552 CURVE",
"657 1569 LINE"
);
}
);
width = 850;
}
);
unicode = 00F3;
},
{
glyphname = ocircumflex;
lastChange = "2013-03-07 05:31:29 +0200";
layers = (
{
layerId = "A1CEB6E1-F2CA-49E9-B0B5-3CAF1AD39F7C";
name = "Light Condensed";
paths = (
{
closed = 1;
nodes = (
"205 1106 OFFCURVE",
"93.9999 919 OFFCURVE",
"93.9999 545 CURVE SMOOTH",
"93.9999 180 OFFCURVE",
"210 -20 OFFCURVE",
"422 -20 CURVE SMOOTH",
"637 -20 OFFCURVE",
"756 180 OFFCURVE",
"756 545 CURVE SMOOTH",
"756 723 OFFCURVE",
"727 861 OFFCURVE",
"669 959 CURVE SMOOTH",
"611 1057 OFFCURVE",
"530 1106 OFFCURVE",
"426 1106 CURVE SMOOTH"
);
},
{
closed = 1;
nodes = (
"579 1016 OFFCURVE",
"657 859 OFFCURVE",
"657 545 CURVE SMOOTH",
"657 228 OFFCURVE",
"579 70 OFFCURVE",
"424 70 CURVE SMOOTH",
"265 70 OFFCURVE",
"193 232 OFFCURVE",
"193 545 CURVE SMOOTH",
"193 858 OFFCURVE",
"261 1016 OFFCURVE",
"424 1016 CURVE SMOOTH"
);
},
{
closed = 1;
nodes = (
"377 1569 LINE",
"334 1475 OFFCURVE",
"272 1372 OFFCURVE",
"191 1260 CURVE",
"191 1241 LINE",
"234 1241 LINE",
"290 1294 OFFCURVE",
"360 1379 OFFCURVE",
"427 1454 CURVE",
"524 1342 LINE SMOOTH",
"563 1295 OFFCURVE",
"594 1262 OFFCURVE",
"615 1241 CURVE",
"662 1241 LINE",
"662 1260 LINE",
"624 1310 OFFCURVE",
"587 1365 OFFCURVE",
"550 1424 CURVE SMOOTH",
"514 1484 OFFCURVE",
"488 1532 OFFCURVE",
"472 1569 CURVE"
);
}
);
width = 850;
}
);
unicode = 00F4;
},
{
glyphname = odieresis;
lastChange = "2013-03-07 05:31:29 +0200";
layers = (
{
layerId = "A1CEB6E1-F2CA-49E9-B0B5-3CAF1AD39F7C";
name = "Light Condensed";
paths = (
{
closed = 1;
nodes = (
"205 1106 OFFCURVE",
"93.9999 919 OFFCURVE",
"93.9999 545 CURVE SMOOTH",
"93.9999 180 OFFCURVE",
"210 -20 OFFCURVE",
"422 -20 CURVE SMOOTH",
"637 -20 OFFCURVE",
"756 180 OFFCURVE",
"756 545 CURVE SMOOTH",
"756 723 OFFCURVE",
"727 861 OFFCURVE",
"669 959 CURVE SMOOTH",
"611 1057 OFFCURVE",
"530 1106 OFFCURVE",
"426 1106 CURVE SMOOTH"
);
},
{
closed = 1;
nodes = (
"579 1016 OFFCURVE",
"657 859 OFFCURVE",
"657 545 CURVE SMOOTH",
"657 228 OFFCURVE",
"579 70 OFFCURVE",
"424 70 CURVE SMOOTH",
"265 70 OFFCURVE",
"193 232 OFFCURVE",
"193 545 CURVE SMOOTH",
"193 858 OFFCURVE",
"261 1016 OFFCURVE",
"424 1016 CURVE SMOOTH"
);
},
{
closed = 1;
nodes = (
"241 1470 OFFCURVE",
"210 1446 OFFCURVE",
"210 1389 CURVE SMOOTH",
"210 1330 OFFCURVE",
"241 1305 OFFCURVE",
"274 1305 CURVE SMOOTH",
"305 1305 OFFCURVE",
"335 1330 OFFCURVE",
"335 1389 CURVE SMOOTH",
"335 1446 OFFCURVE",
"305 1470 OFFCURVE",
"274 1470 CURVE SMOOTH"
);
},
{
closed = 1;
nodes = (
"546 1470 OFFCURVE",
"515 1446 OFFCURVE",
"515 1389 CURVE SMOOTH",
"515 1330 OFFCURVE",
"546 1305 OFFCURVE",
"577 1305 CURVE SMOOTH",
"610 1305 OFFCURVE",
"640 1330 OFFCURVE",
"640 1389 CURVE SMOOTH",
"640 1446 OFFCURVE",
"610 1470 OFFCURVE",
"577 1470 CURVE SMOOTH"
);
}
);
width = 850;
}
);
unicode = 00F6;
},
{
glyphname = ograve;
lastChange = "2013-03-07 05:31:29 +0200";
layers = (
{
layerId = "A1CEB6E1-F2CA-49E9-B0B5-3CAF1AD39F7C";
name = "Light Condensed";
paths = (
{
closed = 1;
nodes = (
"205 1106 OFFCURVE",
"93.9999 919 OFFCURVE",
"93.9999 545 CURVE SMOOTH",
"93.9999 180 OFFCURVE",
"210 -20 OFFCURVE",
"422 -20 CURVE SMOOTH",
"637 -20 OFFCURVE",
"756 180 OFFCURVE",
"756 545 CURVE SMOOTH",
"756 723 OFFCURVE",
"727 861 OFFCURVE",
"669 959 CURVE SMOOTH",
"611 1057 OFFCURVE",
"530 1106 OFFCURVE",
"426 1106 CURVE SMOOTH"
);
},
{
closed = 1;
nodes = (
"579 1016 OFFCURVE",
"657 859 OFFCURVE",
"657 545 CURVE SMOOTH",
"657 228 OFFCURVE",
"579 70 OFFCURVE",
"424 70 CURVE SMOOTH",
"265 70 OFFCURVE",
"193 232 OFFCURVE",
"193 545 CURVE SMOOTH",
"193 858 OFFCURVE",
"261 1016 OFFCURVE",
"424 1016 CURVE SMOOTH"
);
},
{
closed = 1;
nodes = (
"206 1569 LINE",
"206 1552 LINE",
"230 1507 OFFCURVE",
"270 1452 OFFCURVE",
"325 1389 CURVE SMOOTH",
"381 1326 OFFCURVE",
"431 1276 OFFCURVE",
"474 1241 CURVE",
"522 1241 LINE",
"522 1262 LINE",
"487 1306 OFFCURVE",
"450 1358 OFFCURVE",
"413 1417 CURVE SMOOTH",
"376 1476 OFFCURVE",
"349 1527 OFFCURVE",
"331 1569 CURVE"
);
}
);
width = 850;
}
);
unicode = 00F2;
},
{
glyphname = oslash;
lastChange = "2013-03-07 05:31:29 +0200";
layers = (
{
layerId = "A1CEB6E1-F2CA-49E9-B0B5-3CAF1AD39F7C";
name = "Light Condensed";
paths = (
{
closed = 1;
nodes = (
"623 1020 LINE",
"570 1077 OFFCURVE",
"504 1106 OFFCURVE",
"426 1106 CURVE SMOOTH",
"205 1106 OFFCURVE",
"93.9999 919 OFFCURVE",
"93.9999 545 CURVE SMOOTH",
"93.9999 362 OFFCURVE",
"123 222 OFFCURVE",
"180 125 CURVE",
"68 -102 LINE",
"143 -143 LINE",
"238 49 LINE",
"285 3 OFFCURVE",
"347 -20 OFFCURVE",
"422 -20 CURVE SMOOTH",
"637 -20 OFFCURVE",
"756 180 OFFCURVE",
"756 545 CURVE SMOOTH",
"756 710 OFFCURVE",
"731 841 OFFCURVE",
"680 940 CURVE",
"782 1149 LINE",
"707 1190 LINE"
);
},
{
closed = 1;
nodes = (
"646 760 OFFCURVE",
"657 665 OFFCURVE",
"657 545 CURVE SMOOTH",
"657 228 OFFCURVE",
"579 70 OFFCURVE",
"424 70 CURVE SMOOTH",
"364 70 OFFCURVE",
"317 92 OFFCURVE",
"283 137 CURVE",
"625 829 LINE"
);
},
{
closed = 1;
nodes = (
"489 1016 OFFCURVE",
"541 986.999 OFFCURVE",
"578 930 CURVE",
"231 231 LINE",
"206 306 OFFCURVE",
"193 410 OFFCURVE",
"193 545 CURVE SMOOTH",
"193 858 OFFCURVE",
"261 1016 OFFCURVE",
"424 1016 CURVE SMOOTH"
);
}
);
width = 850;
}
);
unicode = 00F8;
},
{
glyphname = otilde;
lastChange = "2013-03-07 05:31:29 +0200";
layers = (
{
layerId = "A1CEB6E1-F2CA-49E9-B0B5-3CAF1AD39F7C";
name = "Light Condensed";
paths = (
{
closed = 1;
nodes = (
"205 1106 OFFCURVE",
"93.9999 919 OFFCURVE",
"93.9999 545 CURVE SMOOTH",
"93.9999 180 OFFCURVE",
"210 -20 OFFCURVE",
"422 -20 CURVE SMOOTH",
"637 -20 OFFCURVE",
"756 180 OFFCURVE",
"756 545 CURVE SMOOTH",
"756 723 OFFCURVE",
"727 861 OFFCURVE",
"669 959 CURVE SMOOTH",
"611 1057 OFFCURVE",
"530 1106 OFFCURVE",
"426 1106 CURVE SMOOTH"
);
},
{
closed = 1;
nodes = (
"579 1016 OFFCURVE",
"657 859 OFFCURVE",
"657 545 CURVE SMOOTH",
"657 228 OFFCURVE",
"579 70 OFFCURVE",
"424 70 CURVE SMOOTH",
"265 70 OFFCURVE",
"193 232 OFFCURVE",
"193 545 CURVE SMOOTH",
"193 858 OFFCURVE",
"261 1016 OFFCURVE",
"424 1016 CURVE SMOOTH"
);
},
{
closed = 1;
nodes = (
"631 1454 LINE",
"619 1378 OFFCURVE",
"599 1325 OFFCURVE",
"552 1325 CURVE SMOOTH",
"486 1325 OFFCURVE",
"404 1452 OFFCURVE",
"310 1452 CURVE SMOOTH",
"214 1452 OFFCURVE",
"160 1370 OFFCURVE",
"144 1241 CURVE",
"218 1241 LINE",
"230 1317 OFFCURVE",
"259 1370 OFFCURVE",
"302 1370 CURVE SMOOTH",
"363 1370 OFFCURVE",
"451 1243 OFFCURVE",
"545 1243 CURVE SMOOTH",
"634 1243 OFFCURVE",
"693 1319 OFFCURVE",
"705 1454 CURVE"
);
}
);
width = 850;
}
);
unicode = 00F5;
},
{
glyphname = oe;
lastChange = "2013-03-07 05:31:29 +0200";
layers = (
{
layerId = "A1CEB6E1-F2CA-49E9-B0B5-3CAF1AD39F7C";
name = "Light Condensed";
paths = (
{
closed = 1;
nodes = (
"846 1106 OFFCURVE",
"755 1030 OFFCURVE",
"702 879 CURVE",
"647 1030 OFFCURVE",
"555 1106 OFFCURVE",
"426 1106 CURVE SMOOTH",
"205 1106 OFFCURVE",
"93.9999 919 OFFCURVE",
"93.9999 545 CURVE SMOOTH",
"93.9999 180 OFFCURVE",
"210 -20 OFFCURVE",
"422 -20 CURVE SMOOTH",
"557 -20 OFFCURVE",
"652 57 OFFCURVE",
"705 211 CURVE",
"764 57 OFFCURVE",
"866 -20 OFFCURVE",
"1012 -20 CURVE SMOOTH",
"1089 -20 OFFCURVE",
"1162 2 OFFCURVE",
"1231 45 CURVE",
"1231 133 LINE",
"1156 88 OFFCURVE",
"1084 66 OFFCURVE",
"1016 66 CURVE SMOOTH",
"843 66 OFFCURVE",
"755 225 OFFCURVE",
"752 543 CURVE",
"1266 543 LINE",
"1266 631 LINE SMOOTH",
"1266 776 OFFCURVE",
"1240 892 OFFCURVE",
"1188 976.999 CURVE SMOOTH",
"1136 1063 OFFCURVE",
"1065 1106 OFFCURVE",
"974.999 1106 CURVE SMOOTH"
);
},
{
closed = 1;
nodes = (
"578 1016 OFFCURVE",
"655 859 OFFCURVE",
"655 545 CURVE SMOOTH",
"655 520 LINE SMOOTH",
"655 217 OFFCURVE",
"578 66 OFFCURVE",
"424 66 CURVE SMOOTH",
"270 66 OFFCURVE",
"193 226 OFFCURVE",
"193 545 CURVE SMOOTH",
"193 858 OFFCURVE",
"261 1016 OFFCURVE",
"424 1016 CURVE SMOOTH"
);
},
{
closed = 1;
nodes = (
"1031 1018 OFFCURVE",
"1080 983.999 OFFCURVE",
"1116 915 CURVE SMOOTH",
"1153 846 OFFCURVE",
"1171 755 OFFCURVE",
"1171 641 CURVE SMOOTH",
"1171 629 LINE",
"754 629 LINE",
"767 888 OFFCURVE",
"838 1018 OFFCURVE",
"968.999 1018 CURVE SMOOTH"
);
}
);
width = 1362;
}
);
unicode = 0153;
},
{
glyphname = p;
lastChange = "2013-03-07 05:31:29 +0200";
layers = (
{
layerId = "A1CEB6E1-F2CA-49E9-B0B5-3CAF1AD39F7C";
name = "Light Condensed";
paths = (
{
closed = 1;
nodes = (
"382 1106 OFFCURVE",
"295 1045 OFFCURVE",
"242 936 CURVE",
"233 936 LINE",
"223 1085 LINE",
"145 1085 LINE",
"145 -492 LINE",
"240 -492 LINE",
"240 31 LINE",
"233 150 LINE",
"242 150 LINE",
"289 45 OFFCURVE",
"385 -20 OFFCURVE",
"494 -20 CURVE SMOOTH",
"693 -20 OFFCURVE",
"799 184 OFFCURVE",
"799 545 CURVE SMOOTH",
"799 919 OFFCURVE",
"693 1106 OFFCURVE",
"481 1106 CURVE SMOOTH"
);
},
{
closed = 1;
nodes = (
"639 1016 OFFCURVE",
"700 858 OFFCURVE",
"700 545 CURVE SMOOTH",
"700 217 OFFCURVE",
"628 66 OFFCURVE",
"479 66 CURVE SMOOTH",
"318 66 OFFCURVE",
"240 218 OFFCURVE",
"240 551 CURVE SMOOTH",
"240 582 LINE SMOOTH",
"240 881 OFFCURVE",
"316 1016 OFFCURVE",
"475 1016 CURVE SMOOTH"
);
}
);
width = 893;
}
);
unicode = 0070;
},
{
glyphname = thorn;
lastChange = "2013-03-07 05:31:29 +0200";
layers = (
{
layerId = "A1CEB6E1-F2CA-49E9-B0B5-3CAF1AD39F7C";
name = "Light Condensed";
paths = (
{
closed = 1;
nodes = (
"145 1556 LINE",
"145 -492 LINE",
"244 -492 LINE",
"244 31 LINE",
"233 150 LINE",
"240 150 LINE",
"285 47 OFFCURVE",
"382 -20 OFFCURVE",
"494 -20 CURVE SMOOTH",
"693 -20 OFFCURVE",
"799 184 OFFCURVE",
"799 545 CURVE SMOOTH",
"799 919 OFFCURVE",
"693 1106 OFFCURVE",
"481 1106 CURVE SMOOTH",
"382 1106 OFFCURVE",
"292 1044 OFFCURVE",
"240 936 CURVE",
"236 936 LINE",
"240 1072 LINE",
"240 1556 LINE"
);
},
{
closed = 1;
nodes = (
"634 1016 OFFCURVE",
"698 872 OFFCURVE",
"698 545 CURVE SMOOTH",
"698 376 OFFCURVE",
"680 254 OFFCURVE",
"643 179 CURVE SMOOTH",
"607 104 OFFCURVE",
"552 66 OFFCURVE",
"479 66 CURVE SMOOTH",
"318 66 OFFCURVE",
"240 218 OFFCURVE",
"240 551 CURVE SMOOTH",
"240 582 LINE SMOOTH",
"240 881 OFFCURVE",
"316 1016 OFFCURVE",
"475 1016 CURVE SMOOTH"
);
}
);
width = 893;
}
);
unicode = 00FE;
},
{
glyphname = q;
lastChange = "2013-03-07 05:31:29 +0200";
layers = (
{
layerId = "A1CEB6E1-F2CA-49E9-B0B5-3CAF1AD39F7C";
name = "Light Condensed";
paths = (
{
closed = 1;
nodes = (
"213 1106 OFFCURVE",
"93.9999 924 OFFCURVE",
"93.9999 541 CURVE SMOOTH",
"93.9999 162 OFFCURVE",
"205 -20 OFFCURVE",
"406 -20 CURVE SMOOTH",
"513 -20 OFFCURVE",
"596 39 OFFCURVE",
"653 158 CURVE",
"662 158 LINE",
"656 82 OFFCURVE",
"653 22 OFFCURVE",
"653 -23 CURVE SMOOTH",
"653 -492 LINE",
"748 -492 LINE",
"748 1085 LINE",
"672 1085 LINE",
"657 940 LINE",
"649 940 LINE",
"594 1051 OFFCURVE",
"514 1106 OFFCURVE",
"410 1106 CURVE SMOOTH"
);
},
{
closed = 1;
nodes = (
"575 1016 OFFCURVE",
"653 869 OFFCURVE",
"653 541 CURVE SMOOTH",
"653 492 LINE SMOOTH",
"653 213 OFFCURVE",
"568 66 OFFCURVE",
"420 66 CURVE SMOOTH",
"263 66 OFFCURVE",
"193 207 OFFCURVE",
"193 539 CURVE SMOOTH",
"193 848 OFFCURVE",
"256 1016 OFFCURVE",
"412 1016 CURVE SMOOTH"
);
}
);
width = 893;
}
);
unicode = 0071;
},
{
glyphname = r;
lastChange = "2013-03-07 05:31:29 +0200";
layers = (
{
layerId = "A1CEB6E1-F2CA-49E9-B0B5-3CAF1AD39F7C";
name = "Light Condensed";
paths = (
{
closed = 1;
nodes = (
"359 1106 OFFCURVE",
"291 1036 OFFCURVE",
"240 895 CURVE",
"233 895 LINE",
"223 1085 LINE",
"145 1085 LINE",
"145 0 LINE",
"240 0 LINE",
"240 575 LINE",
"237 819 OFFCURVE",
"334 1018 OFFCURVE",
"444 1012 CURVE",
"469 1012 OFFCURVE",
"494 1007 OFFCURVE",
"518 996.999 CURVE",
"541 1092 LINE",
"512 1101 OFFCURVE",
"480 1106 OFFCURVE",
"446 1106 CURVE SMOOTH"
);
}
);
width = 559;
}
);
unicode = 0072;
},
{
glyphname = s;
lastChange = "2013-03-07 05:31:29 +0200";
layers = (
{
layerId = "A1CEB6E1-F2CA-49E9-B0B5-3CAF1AD39F7C";
name = "Light Condensed";
paths = (
{
closed = 1;
nodes = (
"273 1106 OFFCURVE",
"206 1080 OFFCURVE",
"153 1029 CURVE SMOOTH",
"99.9999 977.999 OFFCURVE",
"74 914 OFFCURVE",
"74 836 CURVE SMOOTH",
"74 788 OFFCURVE",
"81 747 OFFCURVE",
"95.9999 712 CURVE SMOOTH",
"111 677 OFFCURVE",
"132 646 OFFCURVE",
"159 618 CURVE SMOOTH",
"186 590 OFFCURVE",
"237 553 OFFCURVE",
"311 506 CURVE SMOOTH",
"376 464 OFFCURVE",
"419 426 OFFCURVE",
"442 393 CURVE SMOOTH",
"465 360 OFFCURVE",
"477 320 OFFCURVE",
"477 272 CURVE SMOOTH",
"477 149 OFFCURVE",
"409 70 OFFCURVE",
"297 70 CURVE SMOOTH",
"212 70 OFFCURVE",
"123 103 OFFCURVE",
"74 152 CURVE",
"74 41 LINE",
"115 9.99999 OFFCURVE",
"192 -20 OFFCURVE",
"291 -20 CURVE SMOOTH",
"472 -20 OFFCURVE",
"571 89 OFFCURVE",
"571 272 CURVE SMOOTH",
"571 317 OFFCURVE",
"564 356 OFFCURVE",
"551 390 CURVE SMOOTH",
"538 425 OFFCURVE",
"519 456 OFFCURVE",
"492 484 CURVE SMOOTH",
"465 513 OFFCURVE",
"416 551 OFFCURVE",
"344 598 CURVE SMOOTH",
"271 644 OFFCURVE",
"223 683 OFFCURVE",
"200 715 CURVE SMOOTH",
"177 748 OFFCURVE",
"166 788 OFFCURVE",
"166 836 CURVE SMOOTH",
"166 944 OFFCURVE",
"238 1016 OFFCURVE",
"350 1016 CURVE SMOOTH",
"411 1016 OFFCURVE",
"469 997.999 OFFCURVE",
"524 961 CURVE",
"573 1044 LINE",
"514 1085 OFFCURVE",
"441 1106 OFFCURVE",
"354 1106 CURVE SMOOTH"
);
}
);
width = 645;
}
);
unicode = 0073;
},
{
glyphname = scaron;
lastChange = "2013-03-07 05:31:29 +0200";
layers = (
{
layerId = "A1CEB6E1-F2CA-49E9-B0B5-3CAF1AD39F7C";
name = "Light Condensed";
paths = (
{
closed = 1;
nodes = (
"273 1106 OFFCURVE",
"206 1080 OFFCURVE",
"153 1029 CURVE SMOOTH",
"99.9999 977.999 OFFCURVE",
"74 914 OFFCURVE",
"74 836 CURVE SMOOTH",
"74 788 OFFCURVE",
"81 747 OFFCURVE",
"95.9999 712 CURVE SMOOTH",
"111 677 OFFCURVE",
"132 646 OFFCURVE",
"159 618 CURVE SMOOTH",
"186 590 OFFCURVE",
"237 553 OFFCURVE",
"311 506 CURVE SMOOTH",
"376 464 OFFCURVE",
"419 426 OFFCURVE",
"442 393 CURVE SMOOTH",
"465 360 OFFCURVE",
"477 320 OFFCURVE",
"477 272 CURVE SMOOTH",
"477 149 OFFCURVE",
"409 70 OFFCURVE",
"297 70 CURVE SMOOTH",
"212 70 OFFCURVE",
"123 103 OFFCURVE",
"74 152 CURVE",
"74 41 LINE",
"115 9.99999 OFFCURVE",
"192 -20 OFFCURVE",
"291 -20 CURVE SMOOTH",
"472 -20 OFFCURVE",
"571 89 OFFCURVE",
"571 272 CURVE SMOOTH",
"571 317 OFFCURVE",
"564 356 OFFCURVE",
"551 390 CURVE SMOOTH",
"538 425 OFFCURVE",
"519 456 OFFCURVE",
"492 484 CURVE SMOOTH",
"465 513 OFFCURVE",
"416 551 OFFCURVE",
"344 598 CURVE SMOOTH",
"271 644 OFFCURVE",
"223 683 OFFCURVE",
"200 715 CURVE SMOOTH",
"177 748 OFFCURVE",
"166 788 OFFCURVE",
"166 836 CURVE SMOOTH",
"166 944 OFFCURVE",
"238 1016 OFFCURVE",
"350 1016 CURVE SMOOTH",
"411 1016 OFFCURVE",
"469 997.999 OFFCURVE",
"524 961 CURVE",
"573 1044 LINE",
"514 1085 OFFCURVE",
"441 1106 OFFCURVE",
"354 1106 CURVE SMOOTH"
);
},
{
closed = 1;
nodes = (
"525 1569 LINE",
"504 1550 OFFCURVE",
"458 1497 OFFCURVE",
"386 1411 CURVE SMOOTH",
"337 1356 LINE",
"270 1431 OFFCURVE",
"200 1516 OFFCURVE",
"144 1569 CURVE",
"101 1569 LINE",
"101 1550 LINE",
"178 1443 OFFCURVE",
"240 1340 OFFCURVE",
"287 1241 CURVE",
"382 1241 LINE",
"398 1277 OFFCURVE",
"424 1325 OFFCURVE",
"460 1385 CURVE SMOOTH",
"496 1445 OFFCURVE",
"533 1500 OFFCURVE",
"572 1550 CURVE",
"572 1569 LINE"
);
}
);
width = 645;
}
);
unicode = 0161;
},
{
glyphname = germandbls;
lastChange = "2013-03-07 05:31:29 +0200";
layers = (
{
layerId = "A1CEB6E1-F2CA-49E9-B0B5-3CAF1AD39F7C";
name = "Light Condensed";
paths = (
{
closed = 1;
nodes = (
"247 1567 OFFCURVE",
"145 1433 OFFCURVE",
"145 1204 CURVE SMOOTH",
"145 0 LINE",
"240 0 LINE",
"240 1214 LINE SMOOTH",
"240 1385 OFFCURVE",
"303 1477 OFFCURVE",
"416 1477 CURVE SMOOTH",
"514 1477 OFFCURVE",
"563 1416 OFFCURVE",
"563 1294 CURVE SMOOTH",
"563 1210 OFFCURVE",
"535 1141 OFFCURVE",
"474 1064 CURVE SMOOTH",
"409 982.999 OFFCURVE",
"385 930 OFFCURVE",
"385 862 CURVE SMOOTH",
"385 774 OFFCURVE",
"423 688 OFFCURVE",
"526 563 CURVE SMOOTH",
"581 497 OFFCURVE",
"617 445 OFFCURVE",
"632 408 CURVE SMOOTH",
"647 371 OFFCURVE",
"655 332 OFFCURVE",
"655 291 CURVE SMOOTH",
"655 152 OFFCURVE",
"596 70 OFFCURVE",
"492 70 CURVE SMOOTH",
"416 70 OFFCURVE",
"365 99.9999 OFFCURVE",
"317 133 CURVE",
"317 33 LINE",
"358 -2 OFFCURVE",
"428 -20 OFFCURVE",
"492 -20 CURVE SMOOTH",
"571 -20 OFFCURVE",
"634 8 OFFCURVE",
"681 63 CURVE SMOOTH",
"728 119 OFFCURVE",
"752 197 OFFCURVE",
"752 297 CURVE SMOOTH",
"752 398 OFFCURVE",
"718 482 OFFCURVE",
"647 563 CURVE SMOOTH",
"588 633 LINE SMOOTH",
"543 689 OFFCURVE",
"514 732 OFFCURVE",
"499 761 CURVE SMOOTH",
"484 791 OFFCURVE",
"477 825 OFFCURVE",
"477 862 CURVE SMOOTH",
"477 917 OFFCURVE",
"505 970.999 OFFCURVE",
"568 1052 CURVE SMOOTH",
"629 1131 OFFCURVE",
"659 1210 OFFCURVE",
"659 1290 CURVE SMOOTH",
"659 1470 OFFCURVE",
"578 1567 OFFCURVE",
"422 1567 CURVE SMOOTH"
);
}
);
width = 823;
}
);
unicode = 00DF;
},
{
glyphname = t;
lastChange = "2013-03-07 05:31:29 +0200";
layers = (
{
layerId = "A1CEB6E1-F2CA-49E9-B0B5-3CAF1AD39F7C";
name = "Light Condensed";
paths = (
{
closed = 1;
nodes = (
"170 1343 LINE",
"139 1085 LINE",
"43 1057 LINE",
"43 1001 LINE",
"141 1001 LINE",
"141 231 LINE SMOOTH",
"141 64 OFFCURVE",
"197 -20 OFFCURVE",
"309 -20 CURVE SMOOTH",
"355 -20 OFFCURVE",
"393 -13 OFFCURVE",
"422 0 CURVE",
"422 80 LINE",
"399 72 OFFCURVE",
"373 68 OFFCURVE",
"344 68 CURVE SMOOTH",
"304 68 OFFCURVE",
"276 81 OFFCURVE",
"260 108 CURVE SMOOTH",
"244 135 OFFCURVE",
"236 185 OFFCURVE",
"236 258 CURVE SMOOTH",
"236 1001 LINE",
"408 1001 LINE",
"408 1085 LINE",
"236 1085 LINE",
"236 1343 LINE"
);
}
);
width = 449;
}
);
unicode = 0074;
},
{
glyphname = u;
lastChange = "2013-03-07 05:31:29 +0200";
layers = (
{
layerId = "A1CEB6E1-F2CA-49E9-B0B5-3CAF1AD39F7C";
name = "Light Condensed";
paths = (
{
closed = 1;
nodes = (
"631 1085 LINE",
"631 489 LINE SMOOTH",
"631 193 OFFCURVE",
"557 68 OFFCURVE",
"393 68 CURVE SMOOTH",
"286 68 OFFCURVE",
"236 162 OFFCURVE",
"236 377 CURVE SMOOTH",
"236 1085 LINE",
"141 1085 LINE",
"141 377 LINE SMOOTH",
"141 236 OFFCURVE",
"161 135 OFFCURVE",
"201 73 CURVE SMOOTH",
"242 11 OFFCURVE",
"306 -20 OFFCURVE",
"393 -20 CURVE SMOOTH",
"490 -20 OFFCURVE",
"578 41 OFFCURVE",
"625 152 CURVE",
"633 152 LINE",
"645 0 LINE",
"725 0 LINE",
"725 1085 LINE"
);
}
);
width = 870;
}
);
unicode = 0075;
},
{
glyphname = uacute;
lastChange = "2013-03-07 05:31:29 +0200";
layers = (
{
layerId = "A1CEB6E1-F2CA-49E9-B0B5-3CAF1AD39F7C";
name = "Light Condensed";
paths = (
{
closed = 1;
nodes = (
"631 1085 LINE",
"631 489 LINE SMOOTH",
"631 193 OFFCURVE",
"557 68 OFFCURVE",
"393 68 CURVE SMOOTH",
"286 68 OFFCURVE",
"236 162 OFFCURVE",
"236 377 CURVE SMOOTH",
"236 1085 LINE",
"141 1085 LINE",
"141 377 LINE SMOOTH",
"141 236 OFFCURVE",
"161 135 OFFCURVE",
"201 73 CURVE SMOOTH",
"242 11 OFFCURVE",
"306 -20 OFFCURVE",
"393 -20 CURVE SMOOTH",
"490 -20 OFFCURVE",
"578 41 OFFCURVE",
"625 152 CURVE",
"633 152 LINE",
"645 0 LINE",
"725 0 LINE",
"725 1085 LINE"
);
},
{
closed = 1;
nodes = (
"542 1569 LINE",
"499 1475 OFFCURVE",
"436 1373 OFFCURVE",
"351 1262 CURVE",
"351 1241 LINE",
"398 1241 LINE",
"445 1280 OFFCURVE",
"495 1330 OFFCURVE",
"548 1391 CURVE SMOOTH",
"601 1452 OFFCURVE",
"641 1505 OFFCURVE",
"667 1552 CURVE",
"667 1569 LINE"
);
}
);
width = 870;
}
);
unicode = 00FA;
},
{
glyphname = ucircumflex;
lastChange = "2013-03-07 05:31:29 +0200";
layers = (
{
layerId = "A1CEB6E1-F2CA-49E9-B0B5-3CAF1AD39F7C";
name = "Light Condensed";
paths = (
{
closed = 1;
nodes = (
"631 1085 LINE",
"631 489 LINE SMOOTH",
"631 193 OFFCURVE",
"557 68 OFFCURVE",
"393 68 CURVE SMOOTH",
"286 68 OFFCURVE",
"236 162 OFFCURVE",
"236 377 CURVE SMOOTH",
"236 1085 LINE",
"141 1085 LINE",
"141 377 LINE SMOOTH",
"141 236 OFFCURVE",
"161 135 OFFCURVE",
"201 73 CURVE SMOOTH",
"242 11 OFFCURVE",
"306 -20 OFFCURVE",
"393 -20 CURVE SMOOTH",
"490 -20 OFFCURVE",
"578 41 OFFCURVE",
"625 152 CURVE",
"633 152 LINE",
"645 0 LINE",
"725 0 LINE",
"725 1085 LINE"
);
},
{
closed = 1;
nodes = (
"377 1569 LINE",
"334 1475 OFFCURVE",
"272 1372 OFFCURVE",
"191 1260 CURVE",
"191 1241 LINE",
"234 1241 LINE",
"290 1294 OFFCURVE",
"360 1379 OFFCURVE",
"427 1454 CURVE",
"524 1342 LINE SMOOTH",
"563 1295 OFFCURVE",
"594 1262 OFFCURVE",
"615 1241 CURVE",
"662 1241 LINE",
"662 1260 LINE",
"624 1310 OFFCURVE",
"587 1365 OFFCURVE",
"550 1424 CURVE SMOOTH",
"514 1484 OFFCURVE",
"488 1532 OFFCURVE",
"472 1569 CURVE"
);
}
);
width = 870;
}
);
unicode = 00FB;
},
{
glyphname = udieresis;
lastChange = "2013-03-07 05:31:29 +0200";
layers = (
{
layerId = "A1CEB6E1-F2CA-49E9-B0B5-3CAF1AD39F7C";
name = "Light Condensed";
paths = (
{
closed = 1;
nodes = (
"631 1085 LINE",
"631 489 LINE SMOOTH",
"631 193 OFFCURVE",
"557 68 OFFCURVE",
"393 68 CURVE SMOOTH",
"286 68 OFFCURVE",
"236 162 OFFCURVE",
"236 377 CURVE SMOOTH",
"236 1085 LINE",
"141 1085 LINE",
"141 377 LINE SMOOTH",
"141 236 OFFCURVE",
"161 135 OFFCURVE",
"201 73 CURVE SMOOTH",
"242 11 OFFCURVE",
"306 -20 OFFCURVE",
"393 -20 CURVE SMOOTH",
"490 -20 OFFCURVE",
"578 41 OFFCURVE",
"625 152 CURVE",
"633 152 LINE",
"645 0 LINE",
"725 0 LINE",
"725 1085 LINE"
);
},
{
closed = 1;
nodes = (
"249 1470 OFFCURVE",
"218 1446 OFFCURVE",
"218 1389 CURVE SMOOTH",
"218 1330 OFFCURVE",
"249 1305 OFFCURVE",
"282 1305 CURVE SMOOTH",
"313 1305 OFFCURVE",
"343 1330 OFFCURVE",
"343 1389 CURVE SMOOTH",
"343 1446 OFFCURVE",
"313 1470 OFFCURVE",
"282 1470 CURVE SMOOTH"
);
},
{
closed = 1;
nodes = (
"554 1470 OFFCURVE",
"523 1446 OFFCURVE",
"523 1389 CURVE SMOOTH",
"523 1330 OFFCURVE",
"554 1305 OFFCURVE",
"585 1305 CURVE SMOOTH",
"618 1305 OFFCURVE",
"648 1330 OFFCURVE",
"648 1389 CURVE SMOOTH",
"648 1446 OFFCURVE",
"618 1470 OFFCURVE",
"585 1470 CURVE SMOOTH"
);
}
);
width = 870;
}
);
unicode = 00FC;
},
{
glyphname = ugrave;
lastChange = "2013-03-07 05:31:29 +0200";
layers = (
{
layerId = "A1CEB6E1-F2CA-49E9-B0B5-3CAF1AD39F7C";
name = "Light Condensed";
paths = (
{
closed = 1;
nodes = (
"631 1085 LINE",
"631 489 LINE SMOOTH",
"631 193 OFFCURVE",
"557 68 OFFCURVE",
"393 68 CURVE SMOOTH",
"286 68 OFFCURVE",
"236 162 OFFCURVE",
"236 377 CURVE SMOOTH",
"236 1085 LINE",
"141 1085 LINE",
"141 377 LINE SMOOTH",
"141 236 OFFCURVE",
"161 135 OFFCURVE",
"201 73 CURVE SMOOTH",
"242 11 OFFCURVE",
"306 -20 OFFCURVE",
"393 -20 CURVE SMOOTH",
"490 -20 OFFCURVE",
"578 41 OFFCURVE",
"625 152 CURVE",
"633 152 LINE",
"645 0 LINE",
"725 0 LINE",
"725 1085 LINE"
);
},
{
closed = 1;
nodes = (
"195 1569 LINE",
"195 1552 LINE",
"219 1507 OFFCURVE",
"259 1452 OFFCURVE",
"314 1389 CURVE SMOOTH",
"370 1326 OFFCURVE",
"420 1276 OFFCURVE",
"463 1241 CURVE",
"511 1241 LINE",
"511 1262 LINE",
"476 1306 OFFCURVE",
"439 1358 OFFCURVE",
"402 1417 CURVE SMOOTH",
"365 1476 OFFCURVE",
"338 1527 OFFCURVE",
"320 1569 CURVE"
);
}
);
width = 870;
}
);
unicode = 00F9;
},
{
glyphname = v;
lastChange = "2013-03-07 05:31:29 +0200";
layers = (
{
layerId = "A1CEB6E1-F2CA-49E9-B0B5-3CAF1AD39F7C";
name = "Light Condensed";
paths = (
{
closed = 1;
nodes = (
"547 1085 LINE",
"424 564 OFFCURVE",
"359 282 OFFCURVE",
"350 239 CURVE SMOOTH",
"341 196 OFFCURVE",
"335 158 OFFCURVE",
"330 123 CURVE",
"322 123 LINE",
"305 218 OFFCURVE",
"287 306 OFFCURVE",
"268 387 CURVE SMOOTH",
"106 1085 LINE",
"9.99999 1085 LINE",
"266 0 LINE",
"379 0 LINE",
"643 1085 LINE"
);
}
);
width = 653;
}
);
unicode = 0076;
},
{
glyphname = w;
lastChange = "2013-03-07 05:31:29 +0200";
layers = (
{
layerId = "A1CEB6E1-F2CA-49E9-B0B5-3CAF1AD39F7C";
name = "Light Condensed";
paths = (
{
closed = 1;
nodes = (
"1010 1085 LINE",
"915 643 OFFCURVE",
"858 378 OFFCURVE",
"840 289 CURVE SMOOTH",
"823 200 OFFCURVE",
"813 145 OFFCURVE",
"811 123 CURVE",
"805 123 LINE",
"778 296 OFFCURVE",
"759 406 OFFCURVE",
"748 453 CURVE SMOOTH",
"612 1085 LINE",
"512 1085 LINE",
"377 455 LINE SMOOTH",
"350 329 OFFCURVE",
"331 218 OFFCURVE",
"319 123 CURVE",
"313 123 LINE",
"250 453 LINE",
"115 1085 LINE",
"20 1085 LINE",
"256 0 LINE",
"369 0 LINE",
"524 735 LINE",
"547 859 LINE",
"561 944 LINE",
"563 944 LINE",
"594 752 LINE",
"598 735 LINE",
"748 0 LINE",
"860 0 LINE",
"1104 1085 LINE"
);
}
);
width = 1124;
}
);
unicode = 0077;
},
{
glyphname = x;
lastChange = "2013-03-07 05:31:29 +0200";
layers = (
{
layerId = "A1CEB6E1-F2CA-49E9-B0B5-3CAF1AD39F7C";
name = "Light Condensed";
paths = (
{
closed = 1;
nodes = (
"530 1085 LINE",
"340 645 LINE",
"158 1085 LINE",
"55 1085 LINE",
"293 563 LINE",
"35 0 LINE",
"133 0 LINE",
"338 469 LINE",
"541 0 LINE",
"641 0 LINE",
"387 551 LINE",
"629 1085 LINE"
);
}
);
width = 676;
}
);
unicode = 0078;
},
{
glyphname = y;
lastChange = "2013-03-07 05:31:29 +0200";
layers = (
{
layerId = "A1CEB6E1-F2CA-49E9-B0B5-3CAF1AD39F7C";
name = "Light Condensed";
paths = (
{
closed = 1;
nodes = (
"547 1085 LINE",
"387 410 LINE SMOOTH",
"364 314 OFFCURVE",
"347 222 OFFCURVE",
"334 133 CURVE",
"326 133 LINE",
"308 235 OFFCURVE",
"289 327 OFFCURVE",
"270 408 CURVE SMOOTH",
"106 1085 LINE",
"9.99999 1085 LINE",
"281 2 LINE",
"233 -186 LINE SMOOTH",
"197 -338 OFFCURVE",
"156 -403 OFFCURVE",
"76 -403 CURVE SMOOTH",
"51 -403 OFFCURVE",
"25 -398 OFFCURVE",
"-2 -389 CURVE",
"-2 -475 LINE",
"30 -486 OFFCURVE",
"59 -492 OFFCURVE",
"84 -492 CURVE SMOOTH",
"209 -492 OFFCURVE",
"279 -396 OFFCURVE",
"326 -205 CURVE SMOOTH",
"643 1085 LINE"
);
}
);
width = 653;
}
);
unicode = 0079;
},
{
glyphname = yacute;
lastChange = "2013-03-07 05:31:29 +0200";
layers = (
{
layerId = "A1CEB6E1-F2CA-49E9-B0B5-3CAF1AD39F7C";
name = "Light Condensed";
paths = (
{
closed = 1;
nodes = (
"547 1085 LINE",
"387 410 LINE SMOOTH",
"364 314 OFFCURVE",
"347 222 OFFCURVE",
"334 133 CURVE",
"326 133 LINE",
"308 235 OFFCURVE",
"289 327 OFFCURVE",
"270 408 CURVE SMOOTH",
"106 1085 LINE",
"9.99999 1085 LINE",
"281 2 LINE",
"233 -186 LINE SMOOTH",
"197 -338 OFFCURVE",
"156 -403 OFFCURVE",
"76 -403 CURVE SMOOTH",
"51 -403 OFFCURVE",
"25 -398 OFFCURVE",
"-2 -389 CURVE",
"-2 -475 LINE",
"30 -486 OFFCURVE",
"59 -492 OFFCURVE",
"84 -492 CURVE SMOOTH",
"209 -492 OFFCURVE",
"279 -396 OFFCURVE",
"326 -205 CURVE SMOOTH",
"643 1085 LINE"
);
},
{
closed = 1;
nodes = (
"444 1569 LINE",
"401 1475 OFFCURVE",
"338 1373 OFFCURVE",
"253 1262 CURVE",
"253 1241 LINE",
"300 1241 LINE",
"347 1280 OFFCURVE",
"397 1330 OFFCURVE",
"450 1391 CURVE SMOOTH",
"503 1452 OFFCURVE",
"543 1505 OFFCURVE",
"569 1552 CURVE",
"569 1569 LINE"
);
}
);
width = 653;
}
);
unicode = 00FD;
},
{
glyphname = ydieresis;
lastChange = "2013-03-07 05:31:29 +0200";
layers = (
{
layerId = "A1CEB6E1-F2CA-49E9-B0B5-3CAF1AD39F7C";
name = "Light Condensed";
paths = (
{
closed = 1;
nodes = (
"547 1085 LINE",
"387 410 LINE SMOOTH",
"364 314 OFFCURVE",
"347 222 OFFCURVE",
"334 133 CURVE",
"326 133 LINE",
"308 235 OFFCURVE",
"289 327 OFFCURVE",
"270 408 CURVE SMOOTH",
"106 1085 LINE",
"9.99999 1085 LINE",
"281 2 LINE",
"233 -186 LINE SMOOTH",
"197 -338 OFFCURVE",
"156 -403 OFFCURVE",
"76 -403 CURVE SMOOTH",
"51 -403 OFFCURVE",
"25 -398 OFFCURVE",
"-2 -389 CURVE",
"-2 -475 LINE",
"30 -486 OFFCURVE",
"59 -492 OFFCURVE",
"84 -492 CURVE SMOOTH",
"209 -492 OFFCURVE",
"279 -396 OFFCURVE",
"326 -205 CURVE SMOOTH",
"643 1085 LINE"
);
},
{
closed = 1;
nodes = (
"147 1470 OFFCURVE",
"116 1446 OFFCURVE",
"116 1389 CURVE SMOOTH",
"116 1330 OFFCURVE",
"147 1305 OFFCURVE",
"180 1305 CURVE SMOOTH",
"211 1305 OFFCURVE",
"241 1330 OFFCURVE",
"241 1389 CURVE SMOOTH",
"241 1446 OFFCURVE",
"211 1470 OFFCURVE",
"180 1470 CURVE SMOOTH"
);
},
{
closed = 1;
nodes = (
"452 1470 OFFCURVE",
"421 1446 OFFCURVE",
"421 1389 CURVE SMOOTH",
"421 1330 OFFCURVE",
"452 1305 OFFCURVE",
"483 1305 CURVE SMOOTH",
"516 1305 OFFCURVE",
"546 1330 OFFCURVE",
"546 1389 CURVE SMOOTH",
"546 1446 OFFCURVE",
"516 1470 OFFCURVE",
"483 1470 CURVE SMOOTH"
);
}
);
width = 653;
}
);
unicode = 00FF;
},
{
glyphname = z;
lastChange = "2013-03-07 05:31:29 +0200";
layers = (
{
layerId = "A1CEB6E1-F2CA-49E9-B0B5-3CAF1AD39F7C";
name = "Light Condensed";
paths = (
{
closed = 1;
nodes = (
"80 1085 LINE",
"80 1001 LINE",
"379 1001 LINE",
"59 76 LINE",
"59 0 LINE",
"494 0 LINE",
"494 84 LINE",
"160 84 LINE",
"479 1008 LINE",
"479 1085 LINE"
);
}
);
width = 541;
}
);
unicode = 007A;
},
{
glyphname = zcaron;
lastChange = "2013-03-07 05:31:29 +0200";
layers = (
{
layerId = "A1CEB6E1-F2CA-49E9-B0B5-3CAF1AD39F7C";
name = "Light Condensed";
paths = (
{
closed = 1;
nodes = (
"80 1085 LINE",
"80 1001 LINE",
"379 1001 LINE",
"59 76 LINE",
"59 0 LINE",
"494 0 LINE",
"494 84 LINE",
"160 84 LINE",
"479 1008 LINE",
"479 1085 LINE"
);
},
{
closed = 1;
nodes = (
"474 1569 LINE",
"453 1550 OFFCURVE",
"407 1497 OFFCURVE",
"335 1411 CURVE SMOOTH",
"286 1356 LINE",
"219 1431 OFFCURVE",
"149 1516 OFFCURVE",
"92.9999 1569 CURVE",
"50 1569 LINE",
"50 1550 LINE",
"127 1443 OFFCURVE",
"189 1340 OFFCURVE",
"236 1241 CURVE",
"331 1241 LINE",
"347 1277 OFFCURVE",
"373 1325 OFFCURVE",
"409 1385 CURVE SMOOTH",
"445 1445 OFFCURVE",
"482 1500 OFFCURVE",
"521 1550 CURVE",
"521 1569 LINE"
);
}
);
width = 541;
}
);
unicode = 017E;
},
{
glyphname = uniFB01;
lastChange = "2013-03-07 05:31:29 +0200";
layers = (
{
layerId = "A1CEB6E1-F2CA-49E9-B0B5-3CAF1AD39F7C";
name = "Light Condensed";
paths = (
{
closed = 1;
nodes = (
"296 1567 OFFCURVE",
"240 1537 OFFCURVE",
"207 1476 CURVE SMOOTH",
"174 1415 OFFCURVE",
"158 1316 OFFCURVE",
"158 1178 CURVE SMOOTH",
"158 1096 LINE",
"20 1055 LINE",
"20 1001 LINE",
"158 1001 LINE",
"158 0 LINE",
"252 0 LINE",
"252 1001 LINE",
"422 1001 LINE",
"422 1085 LINE",
"252 1085 LINE",
"252 1176 LINE SMOOTH",
"255 1406 OFFCURVE",
"278 1475 OFFCURVE",
"375 1479 CURVE",
"404 1479 OFFCURVE",
"436 1471 OFFCURVE",
"471 1454 CURVE",
"504 1542 LINE",
"466 1559 OFFCURVE",
"424 1567 OFFCURVE",
"377 1567 CURVE SMOOTH"
);
},
{
closed = 1;
nodes = (
"598 1085 LINE",
"598 0 LINE",
"693 0 LINE",
"693 1085 LINE"
);
},
{
closed = 1;
nodes = (
"611 1481 OFFCURVE",
"584 1446 OFFCURVE",
"584 1386 CURVE SMOOTH",
"584 1329 OFFCURVE",
"611 1292 OFFCURVE",
"650 1292 CURVE SMOOTH",
"686 1292 OFFCURVE",
"709 1329 OFFCURVE",
"709 1386 CURVE SMOOTH",
"709 1446 OFFCURVE",
"686 1481 OFFCURVE",
"650 1481 CURVE SMOOTH"
);
}
);
width = 838;
}
);
unicode = FB01;
},
{
glyphname = uniFB02;
lastChange = "2013-03-07 05:31:29 +0200";
layers = (
{
layerId = "A1CEB6E1-F2CA-49E9-B0B5-3CAF1AD39F7C";
name = "Light Condensed";
paths = (
{
closed = 1;
nodes = (
"296 1567 OFFCURVE",
"240 1537 OFFCURVE",
"207 1476 CURVE SMOOTH",
"174 1415 OFFCURVE",
"158 1316 OFFCURVE",
"158 1178 CURVE SMOOTH",
"158 1096 LINE",
"20 1055 LINE",
"20 1001 LINE",
"158 1001 LINE",
"158 0 LINE",
"252 0 LINE",
"252 1001 LINE",
"422 1001 LINE",
"422 1085 LINE",
"252 1085 LINE",
"252 1176 LINE SMOOTH",
"255 1406 OFFCURVE",
"278 1475 OFFCURVE",
"375 1479 CURVE",
"404 1479 OFFCURVE",
"436 1471 OFFCURVE",
"471 1454 CURVE",
"504 1542 LINE",
"466 1559 OFFCURVE",
"424 1567 OFFCURVE",
"377 1567 CURVE SMOOTH"
);
},
{
closed = 1;
nodes = (
"598 1556 LINE",
"598 0 LINE",
"693 0 LINE",
"693 1556 LINE"
);
}
);
width = 838;
}
);
unicode = FB02;
},
{
glyphname = ordfeminine;
lastChange = "2013-03-07 05:31:29 +0200";
layers = (
{
layerId = "A1CEB6E1-F2CA-49E9-B0B5-3CAF1AD39F7C";
name = "Light Condensed";
paths = (
{
closed = 1;
nodes = (
"226 1479 OFFCURVE",
"169 1464 OFFCURVE",
"115 1434 CURVE",
"143 1370 LINE",
"190 1396 OFFCURVE",
"235 1409 OFFCURVE",
"276 1409 CURVE SMOOTH",
"352 1409 OFFCURVE",
"381 1369 OFFCURVE",
"381 1270 CURVE SMOOTH",
"381 1198 LINE",
"289 1190 LINE SMOOTH",
"126 1175 OFFCURVE",
"57 1110 OFFCURVE",
"57 988.999 CURVE SMOOTH",
"57 876 OFFCURVE",
"122 805 OFFCURVE",
"211 805 CURVE SMOOTH",
"280 805 OFFCURVE",
"337 837 OFFCURVE",
"383 901 CURVE",
"391 901 LINE",
"406 817 LINE",
"463 817 LINE",
"463 1272 LINE SMOOTH",
"463 1415 OFFCURVE",
"413 1479 OFFCURVE",
"285 1479 CURVE SMOOTH"
);
},
{
closed = 1;
nodes = (
"381 1069 LINE SMOOTH",
"381 946 OFFCURVE",
"329 874 OFFCURVE",
"238 874 CURVE SMOOTH",
"175 874 OFFCURVE",
"143 912 OFFCURVE",
"143 986.999 CURVE SMOOTH",
"143 1079 OFFCURVE",
"192 1116 OFFCURVE",
"319 1128 CURVE SMOOTH",
"381 1135 LINE"
);
}
);
width = 578;
}
);
unicode = 00AA;
},
{
glyphname = ordmasculine;
lastChange = "2013-03-07 05:31:29 +0200";
layers = (
{
layerId = "A1CEB6E1-F2CA-49E9-B0B5-3CAF1AD39F7C";
name = "Light Condensed";
paths = (
{
closed = 1;
nodes = (
"159 1479 OFFCURVE",
"70 1356 OFFCURVE",
"70 1143 CURVE SMOOTH",
"70 923 OFFCURVE",
"152 805 OFFCURVE",
"311 805 CURVE SMOOTH",
"466 805 OFFCURVE",
"549 923 OFFCURVE",
"549 1143 CURVE SMOOTH",
"549 1371 OFFCURVE",
"462 1479 OFFCURVE",
"311 1479 CURVE SMOOTH"
);
},
{
closed = 1;
nodes = (
"414 1405 OFFCURVE",
"459 1328 OFFCURVE",
"459 1143 CURVE SMOOTH",
"459 958 OFFCURVE",
"418 879 OFFCURVE",
"309 879 CURVE SMOOTH",
"206 879 OFFCURVE",
"160 958 OFFCURVE",
"160 1143 CURVE SMOOTH",
"160 1326 OFFCURVE",
"217 1405 OFFCURVE",
"309 1405 CURVE SMOOTH"
);
}
);
width = 618;
}
);
unicode = 00BA;
},
{
glyphname = "alef-hb";
lastChange = "2013-03-07 05:31:29 +0200";
layers = (
{
anchors = (
{
name = bottom;
position = "{373, 0}";
},
{
name = bottomleft;
position = "{20, 0}";
},
{
name = center;
position = "{313, 307}";
},
{
name = top;
position = "{389, 1118}";
},
{
name = topleft;
position = "{100, 1118}";
}
);
layerId = "A1CEB6E1-F2CA-49E9-B0B5-3CAF1AD39F7C";
name = "Light Condensed";
paths = (
{
closed = 1;
nodes = (
"601 1290 LINE",
"601 823 LINE SMOOTH",
"601 665 OFFCURVE",
"570 581 OFFCURVE",
"486 528 CURVE",
"174 1290 LINE",
"72 1290 LINE",
"250 855 LINE",
"90 776 OFFCURVE",
"72 587 OFFCURVE",
"72 453 CURVE SMOOTH",
"72 0 LINE",
"163 0 LINE",
"163 452 LINE SMOOTH",
"163 614 OFFCURVE",
"196 714 OFFCURVE",
"284 771 CURVE",
"600 0 LINE",
"703 0 LINE",
"522 440 LINE",
"678 515 OFFCURVE",
"692 688 OFFCURVE",
"692 822 CURVE SMOOTH",
"692 1290 LINE"
);
}
);
width = 777;
}
);
unicode = 05D0;
},
{
glyphname = "bet-hb";
lastChange = "2013-03-07 05:31:29 +0200";
layers = (
{
anchors = (
{
name = bottom;
position = "{409, 0}";
},
{
name = bottomleft;
position = "{16, 0}";
},
{
name = center;
position = "{283, 670}";
},
{
name = top;
position = "{372, 1118}";
},
{
name = topleft;
position = "{129, 1118}";
}
);
layerId = "A1CEB6E1-F2CA-49E9-B0B5-3CAF1AD39F7C";
name = "Light Condensed";
paths = (
{
closed = 1;
nodes = (
"196 1310 OFFCURVE",
"94 1300 OFFCURVE",
"94 1300 CURVE",
"94 1213 LINE",
"94 1213 OFFCURVE",
"203 1224 OFFCURVE",
"302 1224 CURVE SMOOTH",
"459 1224 OFFCURVE",
"536 1190 OFFCURVE",
"536 950 CURVE SMOOTH",
"536 84 LINE",
"95 84 LINE",
"95 0 LINE",
"717 0 LINE",
"717 84 LINE",
"631 84 LINE",
"631 950 LINE SMOOTH",
"631 1251 OFFCURVE",
"499 1310 OFFCURVE",
"302 1310 CURVE SMOOTH"
);
}
);
width = 748;
}
);
unicode = 05D1;
},
{
glyphname = "gimel-hb";
lastChange = "2013-03-07 05:31:29 +0200";
layers = (
{
anchors = (
{
name = bottom;
position = "{328, 0}";
},
{
name = bottomleft;
position = "{20, 0}";
},
{
name = center;
position = "{253, 670}";
},
{
name = top;
position = "{328, 1118}";
},
{
name = topleft;
position = "{200, 1118}";
}
);
layerId = "A1CEB6E1-F2CA-49E9-B0B5-3CAF1AD39F7C";
name = "Light Condensed";
paths = (
{
closed = 1;
nodes = (
"229 1310 OFFCURVE",
"195 1301 OFFCURVE",
"173 1295 CURVE",
"173 1207 LINE",
"195 1213 OFFCURVE",
"237 1224 OFFCURVE",
"270 1224 CURVE SMOOTH",
"399 1224 OFFCURVE",
"420 1131 OFFCURVE",
"420 1019 CURVE SMOOTH",
"420 511 LINE SMOOTH",
"420 249 OFFCURVE",
"346 88 OFFCURVE",
"187 88 CURVE SMOOTH",
"156 88 OFFCURVE",
"133 101 OFFCURVE",
"133 101 CURVE",
"115 7 LINE",
"115 7 OFFCURVE",
"142 -4 OFFCURVE",
"178 -4 CURVE SMOOTH",
"355 -4 OFFCURVE",
"391 131 OFFCURVE",
"418 213 CURVE",
"425 213 LINE",
"435 0 LINE",
"515 0 LINE",
"515 1019 LINE SMOOTH",
"515 1188 OFFCURVE",
"457 1310 OFFCURVE",
"278 1310 CURVE SMOOTH"
);
}
);
width = 656;
}
);
unicode = 05D2;
},
{
glyphname = "dalet-hb";
lastChange = "2013-03-07 05:31:29 +0200";
layers = (
{
anchors = (
{
name = bottom;
position = "{339, 0}";
},
{
name = bottomleft;
position = "{20, 0}";
},
{
name = center;
position = "{220, 670}";
},
{
name = top;
position = "{339, 1118}";
},
{
name = topleft;
position = "{73, 1118}";
}
);
layerId = "A1CEB6E1-F2CA-49E9-B0B5-3CAF1AD39F7C";
name = "Light Condensed";
paths = (
{
closed = 1;
nodes = (
"17 1290 LINE",
"17 1206 LINE",
"472 1206 LINE",
"472 1206 OFFCURVE",
"338 1139 OFFCURVE",
"338 928 CURVE SMOOTH",
"338 0 LINE",
"433 0 LINE",
"433 928 LINE SMOOTH",
"433 1118 OFFCURVE",
"546 1181 OFFCURVE",
"647 1217 CURVE",
"647 1290 LINE"
);
}
);
width = 678;
}
);
unicode = 05D3;
},
{
glyphname = "he-hb";
lastChange = "2013-03-07 05:31:29 +0200";
layers = (
{
anchors = (
{
name = bottom;
position = "{458, 0}";
},
{
name = bottomleft;
position = "{20, 0}";
},
{
name = center;
position = "{458, 670}";
},
{
name = top;
position = "{458, 1118}";
},
{
name = topleft;
position = "{180, 1118}";
}
);
layerId = "A1CEB6E1-F2CA-49E9-B0B5-3CAF1AD39F7C";
name = "Light Condensed";
paths = (
{
closed = 1;
nodes = (
"316 1310 OFFCURVE",
"196 1295 OFFCURVE",
"145 1290 CURVE",
"145 1203 LINE",
"200 1208 OFFCURVE",
"339 1224 OFFCURVE",
"406 1224 CURVE SMOOTH",
"602 1224 OFFCURVE",
"679 1190 OFFCURVE",
"679 950 CURVE SMOOTH",
"679 0 LINE",
"775 0 LINE",
"775 950 LINE SMOOTH",
"775 1251 OFFCURVE",
"648 1310 OFFCURVE",
"406 1310 CURVE SMOOTH"
);
},
{
closed = 1;
nodes = (
"145 813 LINE",
"145 0 LINE",
"240 0 LINE",
"240 813 LINE"
);
}
);
width = 916;
}
);
unicode = 05D4;
},
{
glyphname = "vav-hb";
lastChange = "2013-03-07 05:31:29 +0200";
layers = (
{
anchors = (
{
name = bottom;
position = "{193, 0}";
},
{
name = bottomleft;
position = "{20, 0}";
},
{
name = center;
position = "{9, 670}";
},
{
name = top;
position = "{234, 1118}";
},
{
name = topleft;
position = "{163, 1118}";
}
);
layerId = "A1CEB6E1-F2CA-49E9-B0B5-3CAF1AD39F7C";
name = "Light Condensed";
paths = (
{
closed = 1;
nodes = (
"145 1290 LINE",
"145 0 LINE",
"240 0 LINE",
"240 1290 LINE"
);
}
);
width = 385;
}
);
unicode = 05D5;
},
{
glyphname = "zayin-hb";
lastChange = "2013-03-07 05:31:29 +0200";
layers = (
{
anchors = (
{
name = bottom;
position = "{221, 0}";
},
{
name = bottomleft;
position = "{10, 0}";
},
{
name = center;
position = "{41, 670}";
},
{
name = top;
position = "{209, 1118}";
},
{
name = topleft;
position = "{147, 1118}";
}
);
layerId = "A1CEB6E1-F2CA-49E9-B0B5-3CAF1AD39F7C";
name = "Light Condensed";
paths = (
{
closed = 1;
nodes = (
"135 1290 LINE",
"135 1206 LINE",
"287 1206 LINE",
"252 1175 OFFCURVE",
"176 1042 OFFCURVE",
"176 815 CURVE SMOOTH",
"176 0 LINE",
"271 0 LINE",
"271 815 LINE SMOOTH",
"271 1005 OFFCURVE",
"323 1159 OFFCURVE",
"396 1217 CURVE",
"396 1290 LINE"
);
}
);
width = 427;
}
);
unicode = 05D6;
},
{
glyphname = "het-hb";
lastChange = "2013-03-07 05:31:29 +0200";
layers = (
{
anchors = (
{
name = bottom;
position = "{458, 0}";
},
{
name = bottomleft;
position = "{20, 0}";
},
{
name = center;
position = "{458, 670}";
},
{
name = top;
position = "{458, 1118}";
},
{
name = topleft;
position = "{173, 1118}";
}
);
layerId = "A1CEB6E1-F2CA-49E9-B0B5-3CAF1AD39F7C";
name = "Light Condensed";
paths = (
{
closed = 1;
nodes = (
"316 1310 OFFCURVE",
"196 1295 OFFCURVE",
"145 1290 CURVE",
"145 0 LINE",
"240 0 LINE",
"240 1212 LINE",
"298 1218 OFFCURVE",
"365 1224 OFFCURVE",
"406 1224 CURVE SMOOTH",
"602 1224 OFFCURVE",
"679 1190 OFFCURVE",
"679 950 CURVE SMOOTH",
"679 0 LINE",
"775 0 LINE",
"775 950 LINE SMOOTH",
"775 1251 OFFCURVE",
"648 1310 OFFCURVE",
"406 1310 CURVE SMOOTH"
);
}
);
width = 916;
}
);
unicode = 05D7;
},
{
glyphname = "tet-hb";
lastChange = "2013-03-07 05:31:29 +0200";
layers = (
{
anchors = (
{
name = bottom;
position = "{442, 0}";
},
{
name = bottomleft;
position = "{20, 0}";
},
{
name = center;
position = "{442, 670}";
},
{
name = top;
position = "{442, 1118}";
},
{
name = topleft;
position = "{140, 1118}";
}
);
layerId = "A1CEB6E1-F2CA-49E9-B0B5-3CAF1AD39F7C";
name = "Light Condensed";
paths = (
{
closed = 1;
nodes = (
"409 1310 OFFCURVE",
"378 1307 OFFCURVE",
"349 1302 CURVE",
"349 1214 LINE",
"377 1220 OFFCURVE",
"408 1224 OFFCURVE",
"441 1224 CURVE SMOOTH",
"578 1220 OFFCURVE",
"691 1102 OFFCURVE",
"691 645 CURVE SMOOTH",
"691 188 OFFCURVE",
"578 70 OFFCURVE",
"442 70 CURVE SMOOTH",
"306 70 OFFCURVE",
"191 188 OFFCURVE",
"191 645 CURVE SMOOTH",
"191 1290 LINE",
"94.9999 1290 LINE",
"93.9999 645 LINE SMOOTH",
"93.9999 188 OFFCURVE",
"218 -20 OFFCURVE",
"442 -20 CURVE SMOOTH",
"666 -20 OFFCURVE",
"790 188 OFFCURVE",
"790 645 CURVE SMOOTH",
"790 1102 OFFCURVE",
"666 1310 OFFCURVE",
"442 1310 CURVE SMOOTH"
);
}
);
width = 884;
}
);
unicode = 05D8;
},
{
glyphname = "yod-hb";
lastChange = "2013-03-07 05:31:29 +0200";
layers = (
{
anchors = (
{
name = bottom;
position = "{188, 0}";
},
{
name = bottomleft;
position = "{20, 0}";
},
{
name = center;
position = "{7, 787}";
},
{
name = top;
position = "{188, 1118}";
},
{
name = topleft;
position = "{167, 1118}";
}
);
layerId = "A1CEB6E1-F2CA-49E9-B0B5-3CAF1AD39F7C";
name = "Light Condensed";
paths = (
{
closed = 1;
nodes = (
"140 1290 LINE",
"140 482 LINE",
"149 482 LINE",
"235 592 LINE",
"235 1290 LINE"
);
}
);
width = 375;
}
);
unicode = 05D9;
},
{
glyphname = "finalkaf-hb";
lastChange = "2013-03-07 05:31:29 +0200";
layers = (
{
anchors = (
{
name = bottom;
position = "{67, 340}";
},
{
name = bottomleft;
position = "{20, 0}";
},
{
name = center;
position = "{193, 670}";
},
{
name = top;
position = "{340, 1118}";
},
{
name = topleft;
position = "{80, 1118}";
}
);
layerId = "A1CEB6E1-F2CA-49E9-B0B5-3CAF1AD39F7C";
name = "Light Condensed";
paths = (
{
closed = 1;
nodes = (
"112 1310 OFFCURVE",
"41 1273 OFFCURVE",
"41 1273 CURVE",
"41 1170 LINE",
"88 1200 OFFCURVE",
"151 1220 OFFCURVE",
"200 1220 CURVE SMOOTH",
"357 1220 OFFCURVE",
"442 1064 OFFCURVE",
"442 721 CURVE SMOOTH",
"442 -492 LINE",
"539 -492 LINE",
"539 721 LINE SMOOTH",
"539 1058 OFFCURVE",
"459 1310 OFFCURVE",
"201 1310 CURVE SMOOTH"
);
}
);
width = 680;
}
);
unicode = 05DA;
},
{
glyphname = "kaf-hb";
lastChange = "2013-03-07 05:31:29 +0200";
layers = (
{
anchors = (
{
name = bottom;
position = "{318, 0}";
},
{
name = bottomleft;
position = "{20, 0}";
},
{
name = center;
position = "{193, 670}";
},
{
name = top;
position = "{318, 1118}";
},
{
name = topleft;
position = "{93, 1118}";
}
);
layerId = "A1CEB6E1-F2CA-49E9-B0B5-3CAF1AD39F7C";
name = "Light Condensed";
paths = (
{
closed = 1;
nodes = (
"112 1310 OFFCURVE",
"41 1273 OFFCURVE",
"41 1273 CURVE",
"41 1170 LINE",
"88 1200 OFFCURVE",
"151 1220 OFFCURVE",
"200 1220 CURVE SMOOTH",
"357 1220 OFFCURVE",
"442 1064 OFFCURVE",
"442 721 CURVE SMOOTH",
"442 532 LINE SMOOTH",
"442 446 OFFCURVE",
"442 66 OFFCURVE",
"200 66 CURVE SMOOTH",
"104 66 OFFCURVE",
"47 98.9999 OFFCURVE",
"47 98.9999 CURVE",
"47 7 LINE",
"47 7 OFFCURVE",
"119 -20 OFFCURVE",
"201 -20 CURVE SMOOTH",
"495 -20 OFFCURVE",
"539 289 OFFCURVE",
"539 532 CURVE SMOOTH",
"539 721 LINE SMOOTH",
"539 1058 OFFCURVE",
"459 1310 OFFCURVE",
"201 1310 CURVE SMOOTH"
);
}
);
width = 635;
}
);
unicode = 05DB;
},
{
glyphname = "lamed-hb";
lastChange = "2013-03-07 05:31:29 +0200";
layers = (
{
anchors = (
{
name = bottom;
position = "{303, 0}";
},
{
name = bottomleft;
position = "{20, 0}";
},
{
name = center;
position = "{147, 670}";
},
{
name = top;
position = "{303, 1118}";
},
{
name = topleft;
position = "{-67, 1118}";
}
);
layerId = "A1CEB6E1-F2CA-49E9-B0B5-3CAF1AD39F7C";
name = "Light Condensed";
paths = (
{
closed = 1;
nodes = (
"45 1569 LINE",
"45 1204 LINE",
"486 1204 LINE",
"317 496 LINE",
"228 0 LINE",
"325 0 LINE",
"416 507 LINE",
"574 1186 LINE",
"574 1296 LINE",
"140 1296 LINE",
"140 1569 LINE"
);
}
);
width = 606;
}
);
unicode = 05DC;
},
{
glyphname = "finalmem-hb";
lastChange = "2013-03-07 05:31:29 +0200";
layers = (
{
anchors = (
{
name = bottom;
position = "{458, 0}";
},
{
name = bottomleft;
position = "{20, 0}";
},
{
name = center;
position = "{458, 670}";
},
{
name = top;
position = "{458, 1118}";
},
{
name = topleft;
position = "{187, 1118}";
}
);
layerId = "A1CEB6E1-F2CA-49E9-B0B5-3CAF1AD39F7C";
name = "Light Condensed";
paths = (
{
closed = 1;
nodes = (
"316 1310 OFFCURVE",
"196 1295 OFFCURVE",
"145 1290 CURVE",
"145 0 LINE",
"775 0 LINE",
"775 962 LINE SMOOTH",
"775 1263 OFFCURVE",
"690 1310 OFFCURVE",
"406 1310 CURVE SMOOTH"
);
},
{
closed = 1;
nodes = (
"633 1224 OFFCURVE",
"680 1202 OFFCURVE",
"680 962 CURVE SMOOTH",
"680 84 LINE",
"240 84 LINE",
"240 1212 LINE",
"298 1218 OFFCURVE",
"365 1224 OFFCURVE",
"406 1224 CURVE SMOOTH"
);
}
);
width = 915;
}
);
unicode = 05DD;
},
{
glyphname = "mem-hb";
lastChange = "2013-03-07 05:31:29 +0200";
layers = (
{
anchors = (
{
name = bottom;
position = "{430, 0}";
},
{
name = bottomleft;
position = "{20, 0}";
},
{
name = center;
position = "{430, 670}";
},
{
name = top;
position = "{430, 1118}";
},
{
name = topleft;
position = "{122, 1118}";
}
);
layerId = "A1CEB6E1-F2CA-49E9-B0B5-3CAF1AD39F7C";
name = "Light Condensed";
paths = (
{
closed = 1;
nodes = (
"309 1310 OFFCURVE",
"243 1155 OFFCURVE",
"243 1155 CURVE SMOOTH",
"237 1155 LINE",
"223 1221 OFFCURVE",
"204 1267 OFFCURVE",
"194 1290 CURVE",
"92.9999 1290 LINE",
"110 1245 LINE SMOOTH",
"138 1170 OFFCURVE",
"161 1103 OFFCURVE",
"152 1005 CURVE SMOOTH",
"59 0 LINE",
"155 0 LINE",
"248 1005 LINE",
"248 1005 OFFCURVE",
"307 1224 OFFCURVE",
"485 1224 CURVE SMOOTH",
"618 1224 OFFCURVE",
"623 1081 OFFCURVE",
"623 883 CURVE SMOOTH",
"623 84 LINE",
"401 84 LINE",
"401 0 LINE",
"718 0 LINE",
"718 883 LINE SMOOTH",
"718 1138 OFFCURVE",
"685 1310 OFFCURVE",
"485 1310 CURVE SMOOTH"
);
}
);
width = 859;
}
);
unicode = 05DE;
},
{
glyphname = "finalnun-hb";
lastChange = "2013-03-07 05:31:29 +0200";
layers = (
{
anchors = (
{
name = bottom;
position = "{-173, 347}";
},
{
name = bottomleft;
position = "{20, 0}";
},
{
name = center;
position = "{33, 670}";
},
{
name = top;
position = "{200, 1118}";
},
{
name = topleft;
position = "{133, 1118}";
}
);
layerId = "A1CEB6E1-F2CA-49E9-B0B5-3CAF1AD39F7C";
name = "Light Condensed";
paths = (
{
closed = 1;
nodes = (
"115 1290 LINE SMOOTH",
"115 1290 OFFCURVE",
"164 1088 OFFCURVE",
"164 905 CURVE SMOOTH",
"164 -492 LINE",
"259 -492 LINE",
"259 905 LINE SMOOTH",
"259 1095 OFFCURVE",
"211 1290 OFFCURVE",
"211 1290 CURVE SMOOTH"
);
}
);
width = 400;
}
);
unicode = 05DF;
},
{
glyphname = "nun-hb";
lastChange = "2013-03-07 05:31:29 +0200";
layers = (
{
anchors = (
{
name = bottom;
position = "{285, 0}";
},
{
name = bottomleft;
position = "{20, 0}";
},
{
name = center;
position = "{167, 670}";
},
{
name = top;
position = "{285, 1118}";
},
{
name = topleft;
position = "{127, 1118}";
}
);
layerId = "A1CEB6E1-F2CA-49E9-B0B5-3CAF1AD39F7C";
name = "Light Condensed";
paths = (
{
closed = 1;
nodes = (
"143 1310 OFFCURVE",
"109 1301 OFFCURVE",
"87 1295 CURVE",
"87 1207 LINE",
"109 1213 OFFCURVE",
"151 1224 OFFCURVE",
"184 1224 CURVE SMOOTH",
"313 1224 OFFCURVE",
"334 1131 OFFCURVE",
"334 1019 CURVE SMOOTH",
"334 329 LINE SMOOTH",
"334 211 OFFCURVE",
"307 84 OFFCURVE",
"307 84 CURVE SMOOTH",
"307 84 OFFCURVE",
"39 84 OFFCURVE",
"39 84 CURVE",
"39 0 LINE",
"390 0 LINE",
"390 0 OFFCURVE",
"429 177 OFFCURVE",
"429 329 CURVE SMOOTH",
"429 1019 LINE SMOOTH",
"429 1188 OFFCURVE",
"371 1310 OFFCURVE",
"192 1310 CURVE SMOOTH"
);
}
);
width = 569;
}
);
unicode = 05E0;
},
{
glyphname = "samekh-hb";
lastChange = "2013-03-07 05:31:29 +0200";
layers = (
{
anchors = (
{
name = bottom;
position = "{442, 0}";
},
{
name = bottomleft;
position = "{20, 0}";
},
{
name = center;
position = "{442, 670}";
},
{
name = top;
position = "{442, 1118}";
},
{
name = topleft;
position = "{147, 1118}";
}
);
layerId = "A1CEB6E1-F2CA-49E9-B0B5-3CAF1AD39F7C";
name = "Light Condensed";
paths = (
{
closed = 1;
nodes = (
"277 1310 OFFCURVE",
"195 1301 OFFCURVE",
"115 1296 CURVE",
"115 1208 LINE",
"171 1211 OFFCURVE",
"202 1213 OFFCURVE",
"241 1215 CURVE",
"125 1070 OFFCURVE",
"93.9999 903 OFFCURVE",
"93.9999 645 CURVE SMOOTH",
"93.9999 188 OFFCURVE",
"218 -20 OFFCURVE",
"442 -20 CURVE SMOOTH",
"666 -20 OFFCURVE",
"790 188 OFFCURVE",
"790 645 CURVE SMOOTH",
"790 1102 OFFCURVE",
"666 1310 OFFCURVE",
"442 1310 CURVE SMOOTH"
);
},
{
closed = 1;
nodes = (
"578 1220 OFFCURVE",
"691 1102 OFFCURVE",
"691 645 CURVE SMOOTH",
"691 188 OFFCURVE",
"578 70 OFFCURVE",
"442 70 CURVE SMOOTH",
"306 70 OFFCURVE",
"193 188 OFFCURVE",
"193 645 CURVE SMOOTH",
"193 912 OFFCURVE",
"225 1095 OFFCURVE",
"348 1218 CURVE",
"348 1218 OFFCURVE",
"392 1220 OFFCURVE",
"442 1220 CURVE SMOOTH"
);
}
);
width = 884;
}
);
unicode = 05E1;
},
{
glyphname = "ayin-hb";
lastChange = "2013-03-07 05:31:29 +0200";
layers = (
{
anchors = (
{
name = bottom;
position = "{423, 0}";
},
{
name = bottomleft;
position = "{20, 0}";
},
{
name = center;
position = "{487, 670}";
},
{
name = top;
position = "{423, 1118}";
},
{
name = topleft;
position = "{107, 1118}";
}
);
layerId = "A1CEB6E1-F2CA-49E9-B0B5-3CAF1AD39F7C";
name = "Light Condensed";
paths = (
{
closed = 1;
nodes = (
"719 1290 LINE",
"663 726 LINE SMOOTH",
"630 404 OFFCURVE",
"593 199 OFFCURVE",
"435 115 CURVE",
"310 706 LINE",
"176 1290 LINE",
"80 1290 LINE",
"353 84 LINE",
"322 78 LINE",
"72 36 LINE",
"72 -49 LINE",
"329 -6 LINE SMOOTH",
"700 48 OFFCURVE",
"721 372 OFFCURVE",
"757 725 CURVE SMOOTH",
"815 1290 LINE"
);
}
);
width = 846;
}
);
unicode = 05E2;
},
{
glyphname = "finalpe-hb";
lastChange = "2013-03-07 05:31:29 +0200";
layers = (
{
anchors = (
{
name = bottom;
position = "{313, 340}";
},
{
name = bottomleft;
position = "{20, 0}";
},
{
name = center;
position = "{407, 847}";
},
{
name = top;
position = "{456, 1118}";
},
{
name = topleft;
position = "{153, 1118}";
}
);
layerId = "A1CEB6E1-F2CA-49E9-B0B5-3CAF1AD39F7C";
name = "Light Condensed";
paths = (
{
closed = 1;
nodes = (
"222 1310 OFFCURVE",
"93.9999 1123 OFFCURVE",
"93.9999 859 CURVE SMOOTH",
"93.9999 610 OFFCURVE",
"182 441 OFFCURVE",
"392 441 CURVE SMOOTH",
"397 441 LINE",
"413 516 LINE",
"399 516 LINE SMOOTH",
"229 516 OFFCURVE",
"182 662 OFFCURVE",
"182 859 CURVE SMOOTH",
"182 1006 OFFCURVE",
"254 1220 OFFCURVE",
"424 1220 CURVE SMOOTH",
"560 1220 OFFCURVE",
"677 1102 OFFCURVE",
"677 645 CURVE SMOOTH",
"677 -492 LINE",
"772 -492 LINE",
"772 645 LINE SMOOTH",
"772 1102 OFFCURVE",
"648 1310 OFFCURVE",
"424 1310 CURVE SMOOTH"
);
}
);
width = 912;
}
);
unicode = 05E3;
},
{
glyphname = "pe-hb";
lastChange = "2013-03-07 05:31:29 +0200";
layers = (
{
anchors = (
{
name = bottom;
position = "{433, 0}";
},
{
name = bottomleft;
position = "{20, 0}";
},
{
name = center;
position = "{433, 847}";
},
{
name = top;
position = "{433, 1118}";
},
{
name = topleft;
position = "{139, 1118}";
}
);
layerId = "A1CEB6E1-F2CA-49E9-B0B5-3CAF1AD39F7C";
name = "Light Condensed";
paths = (
{
closed = 1;
nodes = (
"222 1310 OFFCURVE",
"93.9999 1123 OFFCURVE",
"93.9999 859 CURVE SMOOTH",
"93.9999 610 OFFCURVE",
"182 441 OFFCURVE",
"392 441 CURVE SMOOTH",
"397 441 LINE",
"413 516 LINE",
"399 516 LINE SMOOTH",
"229 516 OFFCURVE",
"182 662 OFFCURVE",
"182 859 CURVE SMOOTH",
"182 1006 OFFCURVE",
"254 1220 OFFCURVE",
"424 1220 CURVE SMOOTH",
"560 1220 OFFCURVE",
"673 1102 OFFCURVE",
"673 645 CURVE SMOOTH",
"673 188 OFFCURVE",
"543 70 OFFCURVE",
"407 70 CURVE SMOOTH",
"289 70 OFFCURVE",
"186 89 OFFCURVE",
"186 89 CURVE",
"186 0 LINE",
"186 0 OFFCURVE",
"289 -20 OFFCURVE",
"407 -20 CURVE SMOOTH",
"631 -20 OFFCURVE",
"772 188 OFFCURVE",
"772 645 CURVE SMOOTH",
"772 1102 OFFCURVE",
"648 1310 OFFCURVE",
"424 1310 CURVE SMOOTH"
);
}
);
width = 866;
}
);
unicode = 05E4;
},
{
glyphname = "finaltsadi-hb";
lastChange = "2013-03-07 05:31:29 +0200";
layers = (
{
anchors = (
{
name = bottom;
position = "{-133, 340}";
},
{
name = bottomleft;
position = "{20, 0}";
},
{
name = center;
position = "{312, 559}";
},
{
name = top;
position = "{312, 1118}";
},
{
name = topleft;
position = "{20, 1118}";
}
);
layerId = "A1CEB6E1-F2CA-49E9-B0B5-3CAF1AD39F7C";
name = "Light Condensed";
paths = (
{
closed = 1;
nodes = (
"466 1290 LINE",
"466 849 LINE SMOOTH",
"466 680 OFFCURVE",
"401 596 OFFCURVE",
"303 543 CURVE",
"102 1290 LINE",
"0 1290 LINE",
"201 550 LINE",
"201 -492 LINE",
"303 -492 LINE",
"303 445 LINE",
"511 504 OFFCURVE",
"561 700 OFFCURVE",
"561 848 CURVE SMOOTH",
"561 1290 LINE"
);
}
);
width = 623;
}
);
unicode = 05E5;
},
{
glyphname = "tsadi-hb";
lastChange = "2013-03-07 05:31:29 +0200";
layers = (
{
anchors = (
{
name = bottom;
position = "{378, 0}";
},
{
name = bottomleft;
position = "{20, 0}";
},
{
name = center;
position = "{193, 353}";
},
{
name = top;
position = "{378, 1118}";
},
{
name = topleft;
position = "{80, 1118}";
}
);
layerId = "A1CEB6E1-F2CA-49E9-B0B5-3CAF1AD39F7C";
name = "Light Condensed";
paths = (
{
closed = 1;
nodes = (
"587 1290 LINE",
"555 980.999 LINE SMOOTH",
"540 844 OFFCURVE",
"519 689 OFFCURVE",
"448 574 CURVE",
"441 593 LINE",
"160 1290 LINE",
"59 1290 LINE",
"339 593 LINE",
"552 84 LINE",
"59 84 LINE",
"59 0 LINE",
"673 0 LINE",
"673 43 LINE",
"490 476 LINE",
"592 588 OFFCURVE",
"625 735 OFFCURVE",
"650 980.999 CURVE SMOOTH",
"681 1290 LINE"
);
}
);
width = 755;
}
);
unicode = 05E6;
},
{
glyphname = "qof-hb";
lastChange = "2013-03-07 05:31:29 +0200";
layers = (
{
anchors = (
{
name = bottom;
position = "{599, 0}";
},
{
name = bottomleft;
position = "{20, 0}";
},
{
name = center;
position = "{387, 670}";
},
{
name = top;
position = "{427, 1118}";
},
{
name = topleft;
position = "{173, 1118}";
}
);
layerId = "A1CEB6E1-F2CA-49E9-B0B5-3CAF1AD39F7C";
name = "Light Condensed";
paths = (
{
closed = 1;
nodes = (
"145 1290 LINE",
"145 1206 LINE",
"686 1206 LINE",
"514 593 LINE SMOOTH",
"464 415 OFFCURVE",
"379 124 OFFCURVE",
"379 17 CURVE SMOOTH",
"379 0 LINE",
"472 0 LINE",
"472 17 LINE SMOOTH",
"472 117 OFFCURVE",
"558 411 OFFCURVE",
"609 593 CURVE SMOOTH",
"781 1206 LINE",
"781 1290 LINE"
);
},
{
closed = 1;
nodes = (
"146 759 LINE",
"146 -492 LINE",
"241 -492 LINE",
"241 759 LINE"
);
}
);
width = 853;
}
);
unicode = 05E7;
},
{
glyphname = "resh-hb";
lastChange = "2013-03-07 05:31:29 +0200";
layers = (
{
anchors = (
{
name = bottom;
position = "{487, 0}";
},
{
name = bottomleft;
position = "{20, 0}";
},
{
name = center;
position = "{220, 670}";
},
{
name = top;
position = "{334, 1118}";
},
{
name = topleft;
position = "{67, 1118}";
}
);
layerId = "A1CEB6E1-F2CA-49E9-B0B5-3CAF1AD39F7C";
name = "Light Condensed";
paths = (
{
closed = 1;
nodes = (
"99.9999 1310 OFFCURVE",
"23 1300 OFFCURVE",
"23 1300 CURVE",
"23 1213 LINE",
"23 1213 OFFCURVE",
"107 1224 OFFCURVE",
"192 1224 CURVE SMOOTH",
"384 1224 OFFCURVE",
"433 1190 OFFCURVE",
"433 950 CURVE SMOOTH",
"433 0 LINE",
"528 0 LINE",
"528 950 LINE SMOOTH",
"528 1251 OFFCURVE",
"436 1310 OFFCURVE",
"192 1310 CURVE SMOOTH"
);
}
);
width = 668;
}
);
unicode = 05E8;
},
{
glyphname = "shin-hb";
lastChange = "2013-03-07 05:31:29 +0200";
layers = (
{
anchors = (
{
name = bottom;
position = "{524, 0}";
},
{
name = bottomleft;
position = "{20, 0}";
},
{
name = center;
position = "{524, 440}";
},
{
name = top;
position = "{524, 1118}";
},
{
name = topleft;
position = "{107, 1118}";
},
{
name = topright;
position = "{928, 1118}";
}
);
layerId = "A1CEB6E1-F2CA-49E9-B0B5-3CAF1AD39F7C";
name = "Light Condensed";
paths = (
{
closed = 1;
nodes = (
"889 1290 LINE",
"835 735 LINE SMOOTH",
"799 366 OFFCURVE",
"602 86 OFFCURVE",
"288 87 CURVE SMOOTH",
"263 87 LINE",
"231 464 LINE",
"463 551 OFFCURVE",
"526 719 OFFCURVE",
"558 1036 CURVE SMOOTH",
"583 1290 LINE",
"499 1290 LINE",
"474 1036 LINE SMOOTH",
"445 749 OFFCURVE",
"378 627 OFFCURVE",
"223 557 CURVE",
"162 1290 LINE",
"74 1290 LINE",
"183 0 LINE",
"288 0 LINE SMOOTH",
"719 0 OFFCURVE",
"884 382 OFFCURVE",
"919 735 CURVE SMOOTH",
"973.999 1290 LINE"
);
}
);
width = 1048;
}
);
unicode = 05E9;
},
{
glyphname = "tav-hb";
lastChange = "2013-03-07 05:31:29 +0200";
layers = (
{
anchors = (
{
name = bottom;
position = "{445, 0}";
},
{
name = bottomleft;
position = "{20, 0}";
},
{
name = center;
position = "{445, 670}";
},
{
name = top;
position = "{445, 1118}";
},
{
name = topleft;
position = "{100, 1118}";
}
);
layerId = "A1CEB6E1-F2CA-49E9-B0B5-3CAF1AD39F7C";
name = "Light Condensed";
paths = (
{
closed = 1;
nodes = (
"248 1310 OFFCURVE",
"117 1294 OFFCURVE",
"64 1288 CURVE",
"64 1201 LINE",
"145 1208 LINE",
"145 204 LINE SMOOTH",
"145 120 OFFCURVE",
"116 91 OFFCURVE",
"77 91 CURVE SMOOTH",
"52 91 OFFCURVE",
"38 94.9999 OFFCURVE",
"16 98.9999 CURVE",
"16 8 LINE",
"36 4 OFFCURVE",
"72 0 OFFCURVE",
"93.9999 0 CURVE SMOOTH",
"186 0 OFFCURVE",
"240 50 OFFCURVE",
"240 204 CURVE SMOOTH",
"240 1217 LINE",
"316 1221 OFFCURVE",
"327 1224 OFFCURVE",
"400 1224 CURVE SMOOTH",
"566 1224 OFFCURVE",
"650 1190 OFFCURVE",
"650 950 CURVE SMOOTH",
"650 0 LINE",
"745 0 LINE",
"745 950 LINE SMOOTH",
"745 1251 OFFCURVE",
"612 1310 OFFCURVE",
"400 1310 CURVE SMOOTH"
);
}
);
width = 890;
}
);
unicode = 05EA;
},
{
glyphname = zero;
lastChange = "2013-03-07 05:31:29 +0200";
layers = (
{
layerId = "A1CEB6E1-F2CA-49E9-B0B5-3CAF1AD39F7C";
name = "Light Condensed";
paths = (
{
closed = 1;
nodes = (
"195 1483 OFFCURVE",
"88 1233 OFFCURVE",
"88 733 CURVE SMOOTH",
"88 466 OFFCURVE",
"113 274 OFFCURVE",
"163 156 CURVE SMOOTH",
"214 39 OFFCURVE",
"295 -20 OFFCURVE",
"408 -20 CURVE SMOOTH",
"621 -20 OFFCURVE",
"729 238 OFFCURVE",
"729 733 CURVE SMOOTH",
"729 1237 OFFCURVE",
"629 1483 OFFCURVE",
"408 1483 CURVE SMOOTH"
);
},
{
closed = 1;
nodes = (
"554 1389 OFFCURVE",
"627 1170 OFFCURVE",
"627 733 CURVE SMOOTH",
"627 294 OFFCURVE",
"554 74 OFFCURVE",
"408 74 CURVE SMOOTH",
"257 74 OFFCURVE",
"190 293 OFFCURVE",
"190 733 CURVE SMOOTH",
"190 1176 OFFCURVE",
"257 1389 OFFCURVE",
"408 1389 CURVE SMOOTH"
);
}
);
width = 819;
}
);
unicode = 0030;
},
{
glyphname = one;
lastChange = "2013-03-07 05:31:29 +0200";
layers = (
{
layerId = "A1CEB6E1-F2CA-49E9-B0B5-3CAF1AD39F7C";
name = "Light Condensed";
paths = (
{
closed = 1;
nodes = (
"432 1462 LINE",
"150 1202 LINE",
"201 1139 LINE",
"326 1253 LINE",
"377 1304 OFFCURVE",
"410 1339 OFFCURVE",
"424 1358 CURVE",
"419 1257 OFFCURVE",
"416 1162 OFFCURVE",
"416 1075 CURVE SMOOTH",
"416 0 LINE",
"512 0 LINE",
"512 1462 LINE"
);
}
);
width = 819;
}
);
unicode = 0031;
},
{
glyphname = two;
lastChange = "2013-03-07 05:31:29 +0200";
layers = (
{
layerId = "A1CEB6E1-F2CA-49E9-B0B5-3CAF1AD39F7C";
name = "Light Condensed";
paths = (
{
closed = 1;
nodes = (
"321 1483 OFFCURVE",
"271 1476 OFFCURVE",
"228 1461 CURVE SMOOTH",
"185 1446 OFFCURVE",
"141 1421 OFFCURVE",
"93.9999 1386 CURVE",
"147 1311 LINE",
"216 1366 OFFCURVE",
"279 1393 OFFCURVE",
"371 1393 CURVE SMOOTH",
"441 1393 OFFCURVE",
"496 1370 OFFCURVE",
"537 1323 CURVE SMOOTH",
"578 1276 OFFCURVE",
"598 1214 OFFCURVE",
"598 1135 CURVE SMOOTH",
"598 1032 OFFCURVE",
"582 939 OFFCURVE",
"551 856 CURVE SMOOTH",
"520 773 OFFCURVE",
"460 662 OFFCURVE",
"369 524 CURVE SMOOTH",
"74 78 LINE",
"74 0 LINE",
"729 0 LINE",
"729 90 LINE",
"186 90 LINE",
"186 97.9999 LINE",
"455 496 LINE SMOOTH",
"524 595 OFFCURVE",
"573 676 OFFCURVE",
"602 738 CURVE SMOOTH",
"662 862 OFFCURVE",
"696 987.999 OFFCURVE",
"696 1135 CURVE SMOOTH",
"696 1242 OFFCURVE",
"668 1326 OFFCURVE",
"612 1389 CURVE SMOOTH",
"556 1452 OFFCURVE",
"478 1483 OFFCURVE",
"377 1483 CURVE SMOOTH"
);
}
);
width = 819;
}
);
unicode = 0032;
},
{
glyphname = three;
lastChange = "2013-03-07 05:31:29 +0200";
layers = (
{
layerId = "A1CEB6E1-F2CA-49E9-B0B5-3CAF1AD39F7C";
name = "Light Condensed";
paths = (
{
closed = 1;
nodes = (
"266 1483 OFFCURVE",
"175 1446 OFFCURVE",
"76 1350 CURVE",
"137 1286 LINE",
"182 1328 OFFCURVE",
"223 1357 OFFCURVE",
"259 1372 CURVE SMOOTH",
"296 1387 OFFCURVE",
"337 1395 OFFCURVE",
"383 1395 CURVE SMOOTH",
"519 1395 OFFCURVE",
"598 1295 OFFCURVE",
"598 1128 CURVE SMOOTH",
"598 1031 OFFCURVE",
"571 952 OFFCURVE",
"518 892 CURVE SMOOTH",
"465 833 OFFCURVE",
"396 803 OFFCURVE",
"311 803 CURVE SMOOTH",
"231 803 LINE",
"231 711 LINE",
"305 711 LINE SMOOTH",
"512 711 OFFCURVE",
"618 594 OFFCURVE",
"618 399 CURVE SMOOTH",
"618 296 OFFCURVE",
"595 215 OFFCURVE",
"550 156 CURVE SMOOTH",
"505 96.9999 OFFCURVE",
"441 68 OFFCURVE",
"360 68 CURVE SMOOTH",
"260 68 OFFCURVE",
"168 92 OFFCURVE",
"84 141 CURVE",
"84 33 LINE",
"156 -2 OFFCURVE",
"248 -20 OFFCURVE",
"360 -20 CURVE SMOOTH",
"471 -20 OFFCURVE",
"558 17 OFFCURVE",
"622 92 CURVE SMOOTH",
"687 167 OFFCURVE",
"719 268 OFFCURVE",
"719 395 CURVE SMOOTH",
"719 588 OFFCURVE",
"623 722 OFFCURVE",
"459 758 CURVE",
"459 766 LINE",
"618 823 OFFCURVE",
"696 954 OFFCURVE",
"696 1137 CURVE SMOOTH",
"696 1241 OFFCURVE",
"667 1325 OFFCURVE",
"610 1388 CURVE SMOOTH",
"553 1451 OFFCURVE",
"477 1483 OFFCURVE",
"381 1483 CURVE SMOOTH"
);
}
);
width = 819;
}
);
unicode = 0033;
},
{
glyphname = four;
lastChange = "2013-03-07 05:31:29 +0200";
layers = (
{
layerId = "A1CEB6E1-F2CA-49E9-B0B5-3CAF1AD39F7C";
name = "Light Condensed";
paths = (
{
closed = 1;
nodes = (
"516 1479 LINE",
"37 416 LINE",
"37 332 LINE",
"541 332 LINE",
"541 0 LINE",
"637 0 LINE",
"637 332 LINE",
"793 332 LINE",
"793 422 LINE",
"637 422 LINE",
"637 1479 LINE"
);
},
{
closed = 1;
nodes = (
"544 1289 OFFCURVE",
"541 1209 OFFCURVE",
"541 1128 CURVE SMOOTH",
"541 422 LINE",
"137 422 LINE",
"469 1178 LINE",
"543 1366 LINE",
"549 1366 LINE"
);
}
);
width = 819;
}
);
unicode = 0034;
},
{
glyphname = five;
lastChange = "2013-03-07 05:31:29 +0200";
layers = (
{
layerId = "A1CEB6E1-F2CA-49E9-B0B5-3CAF1AD39F7C";
name = "Light Condensed";
paths = (
{
closed = 1;
nodes = (
"152 1462 LINE",
"109 821 LINE",
"158 758 LINE",
"228 778 OFFCURVE",
"297 788 OFFCURVE",
"365 788 CURVE SMOOTH",
"528 788 OFFCURVE",
"627 680 OFFCURVE",
"627 461 CURVE SMOOTH",
"627 344 OFFCURVE",
"601 250 OFFCURVE",
"549 177 CURVE SMOOTH",
"497 104 OFFCURVE",
"427 68 OFFCURVE",
"338 68 CURVE SMOOTH",
"251 68 OFFCURVE",
"171 93.9999 OFFCURVE",
"97.9999 145 CURVE",
"97.9999 35 LINE",
"157 -2 OFFCURVE",
"238 -20 OFFCURVE",
"342 -20 CURVE SMOOTH",
"459 -20 OFFCURVE",
"552 24 OFFCURVE",
"622 112 CURVE SMOOTH",
"692 200 OFFCURVE",
"727 318 OFFCURVE",
"727 465 CURVE SMOOTH",
"727 592 OFFCURVE",
"695 692 OFFCURVE",
"631 765 CURVE SMOOTH",
"567 838 OFFCURVE",
"480 874 OFFCURVE",
"371 874 CURVE SMOOTH",
"315 874 OFFCURVE",
"257 867 OFFCURVE",
"197 854 CURVE",
"233 1368 LINE",
"647 1368 LINE",
"647 1462 LINE"
);
}
);
width = 819;
}
);
unicode = 0035;
},
{
glyphname = six;
lastChange = "2013-03-07 05:31:29 +0200";
layers = (
{
layerId = "A1CEB6E1-F2CA-49E9-B0B5-3CAF1AD39F7C";
name = "Light Condensed";
paths = (
{
closed = 1;
nodes = (
"244 1483 OFFCURVE",
"99.9999 1208 OFFCURVE",
"99.9999 623 CURVE SMOOTH",
"99.9999 206 OFFCURVE",
"213 -20 OFFCURVE",
"422 -20 CURVE SMOOTH",
"516 -20 OFFCURVE",
"591 22 OFFCURVE",
"646 105 CURVE SMOOTH",
"701 188 OFFCURVE",
"729 303 OFFCURVE",
"729 449 CURVE SMOOTH",
"729 590 OFFCURVE",
"703 701 OFFCURVE",
"650 782 CURVE SMOOTH",
"598 863 OFFCURVE",
"527 903 OFFCURVE",
"436 903 CURVE SMOOTH",
"333 903 OFFCURVE",
"252 842 OFFCURVE",
"207 741 CURVE",
"199 741 LINE",
"212 1164 OFFCURVE",
"324 1389 OFFCURVE",
"516 1389 CURVE SMOOTH",
"567 1389 OFFCURVE",
"612 1381 OFFCURVE",
"651 1364 CURVE",
"651 1460 LINE",
"618 1475 OFFCURVE",
"575 1483 OFFCURVE",
"524 1483 CURVE SMOOTH"
);
},
{
closed = 1;
nodes = (
"559 811 OFFCURVE",
"629 681 OFFCURVE",
"629 444 CURVE SMOOTH",
"629 196 OFFCURVE",
"556 74 OFFCURVE",
"424 74 CURVE SMOOTH",
"379 74 OFFCURVE",
"340 92 OFFCURVE",
"307 129 CURVE SMOOTH",
"274 166 OFFCURVE",
"248 220 OFFCURVE",
"229 291 CURVE SMOOTH",
"210 363 OFFCURVE",
"201 441 OFFCURVE",
"201 524 CURVE SMOOTH",
"201 607 OFFCURVE",
"221 676 OFFCURVE",
"261 730 CURVE SMOOTH",
"302 784 OFFCURVE",
"355 811 OFFCURVE",
"422 811 CURVE SMOOTH"
);
}
);
width = 819;
}
);
unicode = 0036;
},
{
glyphname = seven;
lastChange = "2013-03-07 05:31:29 +0200";
layers = (
{
layerId = "A1CEB6E1-F2CA-49E9-B0B5-3CAF1AD39F7C";
name = "Light Condensed";
paths = (
{
closed = 1;
nodes = (
"57 1462 LINE",
"57 1368 LINE",
"649 1368 LINE",
"195 0 LINE",
"297 0 LINE",
"748 1380 LINE",
"748 1462 LINE"
);
}
);
width = 819;
}
);
unicode = 0037;
},
{
glyphname = eight;
lastChange = "2013-03-07 05:31:29 +0200";
layers = (
{
layerId = "A1CEB6E1-F2CA-49E9-B0B5-3CAF1AD39F7C";
name = "Light Condensed";
paths = (
{
closed = 1;
nodes = (
"322 1483 OFFCURVE",
"248 1451 OFFCURVE",
"191 1388 CURVE SMOOTH",
"134 1325 OFFCURVE",
"106 1244 OFFCURVE",
"106 1143 CURVE SMOOTH",
"106 996.999 OFFCURVE",
"176 870 OFFCURVE",
"317 762 CURVE",
"226 703 OFFCURVE",
"163 640 OFFCURVE",
"126 574 CURVE SMOOTH",
"90 509 OFFCURVE",
"72 434 OFFCURVE",
"72 350 CURVE SMOOTH",
"72 240 OFFCURVE",
"105 151 OFFCURVE",
"170 82 CURVE SMOOTH",
"235 14 OFFCURVE",
"319 -20 OFFCURVE",
"422 -20 CURVE SMOOTH",
"517 -20 OFFCURVE",
"596 16 OFFCURVE",
"657 87 CURVE SMOOTH",
"719 159 OFFCURVE",
"750 251 OFFCURVE",
"750 362 CURVE SMOOTH",
"750 417 OFFCURVE",
"740 467 OFFCURVE",
"721 511 CURVE SMOOTH",
"702 556 OFFCURVE",
"674 597 OFFCURVE",
"639 634 CURVE SMOOTH",
"604 671 OFFCURVE",
"550 714 OFFCURVE",
"479 762 CURVE",
"639 857 OFFCURVE",
"719 985.999 OFFCURVE",
"719 1147 CURVE SMOOTH",
"719 1252 OFFCURVE",
"691 1334 OFFCURVE",
"634 1393 CURVE SMOOTH",
"578 1453 OFFCURVE",
"504 1483 OFFCURVE",
"412 1483 CURVE SMOOTH"
);
},
{
closed = 1;
nodes = (
"440 688 LINE SMOOTH",
"578 593 OFFCURVE",
"647 486 OFFCURVE",
"647 367 CURVE SMOOTH",
"647 275 OFFCURVE",
"626 202 OFFCURVE",
"583 149 CURVE SMOOTH",
"541 95.9999 OFFCURVE",
"485 70 OFFCURVE",
"414 70 CURVE SMOOTH",
"342 70 OFFCURVE",
"284 94.9999 OFFCURVE",
"240 146 CURVE SMOOTH",
"196 197 OFFCURVE",
"174 264 OFFCURVE",
"174 348 CURVE SMOOTH",
"174 433 OFFCURVE",
"190 504 OFFCURVE",
"222 559 CURVE SMOOTH",
"254 615 OFFCURVE",
"310 669 OFFCURVE",
"391 721 CURVE"
);
},
{
closed = 1;
nodes = (
"542 1393 OFFCURVE",
"618 1299 OFFCURVE",
"618 1139 CURVE SMOOTH",
"618 1002 OFFCURVE",
"555 894 OFFCURVE",
"410 807 CURVE",
"335 857 OFFCURVE",
"282 908 OFFCURVE",
"252 959 CURVE SMOOTH",
"222 1010 OFFCURVE",
"207 1070 OFFCURVE",
"207 1139 CURVE SMOOTH",
"207 1299 OFFCURVE",
"285 1393 OFFCURVE",
"410 1393 CURVE SMOOTH"
);
}
);
width = 819;
}
);
unicode = 0038;
},
{
glyphname = nine;
lastChange = "2013-03-07 05:31:29 +0200";
layers = (
{
layerId = "A1CEB6E1-F2CA-49E9-B0B5-3CAF1AD39F7C";
name = "Light Condensed";
paths = (
{
closed = 1;
nodes = (
"301 1483 OFFCURVE",
"223 1441 OFFCURVE",
"166 1357 CURVE SMOOTH",
"110 1274 OFFCURVE",
"82 1159 OFFCURVE",
"82 1014 CURVE SMOOTH",
"82 875 OFFCURVE",
"108 764 OFFCURVE",
"160 682 CURVE SMOOTH",
"212 600 OFFCURVE",
"284 559 OFFCURVE",
"375 559 CURVE SMOOTH",
"478 559 OFFCURVE",
"559 620 OFFCURVE",
"604 721 CURVE",
"612 721 LINE",
"605 514 OFFCURVE",
"574 354 OFFCURVE",
"518 242 CURVE SMOOTH",
"462 130 OFFCURVE",
"386 74 OFFCURVE",
"289 74 CURVE SMOOTH",
"230 74 OFFCURVE",
"182 82 OFFCURVE",
"145 97.9999 CURVE",
"145 2 LINE",
"156 -3 OFFCURVE",
"175 -8 OFFCURVE",
"202 -13 CURVE SMOOTH",
"230 -18 OFFCURVE",
"256 -20 OFFCURVE",
"281 -20 CURVE SMOOTH",
"562 -20 OFFCURVE",
"711 275 OFFCURVE",
"711 858 CURVE SMOOTH",
"711 1261 OFFCURVE",
"605 1483 OFFCURVE",
"401 1483 CURVE SMOOTH"
);
},
{
closed = 1;
nodes = (
"439 1389 OFFCURVE",
"477 1372 OFFCURVE",
"509 1337 CURVE SMOOTH",
"573 1269 OFFCURVE",
"610 1128 OFFCURVE",
"610 961 CURVE SMOOTH",
"610 867 OFFCURVE",
"590 792 OFFCURVE",
"549 735 CURVE SMOOTH",
"509 679 OFFCURVE",
"456 651 OFFCURVE",
"389 651 CURVE SMOOTH",
"252 651 OFFCURVE",
"182 781 OFFCURVE",
"182 1018 CURVE SMOOTH",
"182 1266 OFFCURVE",
"264 1389 OFFCURVE",
"395 1389 CURVE SMOOTH"
);
}
);
width = 819;
}
);
unicode = 0039;
},
{
glyphname = fraction;
lastChange = "2013-03-07 05:31:29 +0200";
layers = (
{
layerId = "A1CEB6E1-F2CA-49E9-B0B5-3CAF1AD39F7C";
name = "Light Condensed";
paths = (
{
closed = 1;
nodes = (
"471 1462 LINE",
"-297 0 LINE",
"-205 0 LINE",
"563 1462 LINE"
);
}
);
width = 266;
}
);
unicode = 2044;
},
{
glyphname = onehalf;
lastChange = "2013-03-07 05:31:29 +0200";
layers = (
{
layerId = "A1CEB6E1-F2CA-49E9-B0B5-3CAF1AD39F7C";
name = "Light Condensed";
paths = (
{
closed = 1;
nodes = (
"1020 1462 LINE",
"252 0 LINE",
"344 0 LINE",
"1112 1462 LINE"
);
},
{
closed = 1;
nodes = (
"289 1462 LINE",
"52 1290 LINE",
"101 1225 LINE",
"174 1277 OFFCURVE",
"217 1309 OFFCURVE",
"232 1321 CURVE SMOOTH",
"247 1333 OFFCURVE",
"265 1349 OFFCURVE",
"287 1370 CURVE",
"283 1314 OFFCURVE",
"281 1257 OFFCURVE",
"281 1200 CURVE SMOOTH",
"281 586 LINE",
"367 586 LINE",
"367 1462 LINE"
);
},
{
closed = 1;
nodes = (
"1002 898 OFFCURVE",
"929 862 OFFCURVE",
"866 791 CURVE",
"921 730 LINE",
"971.999 785 OFFCURVE",
"1026 812 OFFCURVE",
"1085 812 CURVE SMOOTH",
"1174 812 OFFCURVE",
"1227 754 OFFCURVE",
"1227 666 CURVE SMOOTH",
"1227 623 OFFCURVE",
"1222 587 OFFCURVE",
"1211 557 CURVE SMOOTH",
"1201 528 OFFCURVE",
"1183 494 OFFCURVE",
"1158 456 CURVE SMOOTH",
"1133 419 OFFCURVE",
"1095 367 OFFCURVE",
"1042 302 CURVE SMOOTH",
"864 79 LINE",
"864 0.999999 LINE",
"1335 0.999999 LINE",
"1335 83 LINE",
"965 83 LINE",
"1110 259 LINE SMOOTH",
"1200 369 OFFCURVE",
"1258 450 OFFCURVE",
"1283 501 CURVE SMOOTH",
"1308 553 OFFCURVE",
"1321 608 OFFCURVE",
"1321 666 CURVE SMOOTH",
"1321 809 OFFCURVE",
"1234 898 OFFCURVE",
"1087 898 CURVE SMOOTH"
);
}
);
width = 1430;
}
);
unicode = 00BD;
},
{
glyphname = onequarter;
lastChange = "2013-03-07 05:31:29 +0200";
layers = (
{
layerId = "A1CEB6E1-F2CA-49E9-B0B5-3CAF1AD39F7C";
name = "Light Condensed";
paths = (
{
closed = 1;
nodes = (
"1044 1462 LINE",
"276 0 LINE",
"368 0 LINE",
"1136 1462 LINE"
);
},
{
closed = 1;
nodes = (
"289 1462 LINE",
"52 1290 LINE",
"101 1225 LINE",
"174 1277 OFFCURVE",
"217 1309 OFFCURVE",
"232 1321 CURVE SMOOTH",
"247 1333 OFFCURVE",
"265 1349 OFFCURVE",
"287 1370 CURVE",
"283 1314 OFFCURVE",
"281 1257 OFFCURVE",
"281 1200 CURVE SMOOTH",
"281 586 LINE",
"367 586 LINE",
"367 1462 LINE"
);
},
{
closed = 1;
nodes = (
"1124 883 LINE",
"784 275 LINE",
"784 210 LINE",
"1118 210 LINE",
"1118 0.999999 LINE",
"1204 0.999999 LINE",
"1204 210 LINE",
"1304 210 LINE",
"1304 292 LINE",
"1204 292 LINE",
"1204 883 LINE"
);
},
{
closed = 1;
nodes = (
"1119 712 OFFCURVE",
"1118 655 OFFCURVE",
"1118 574 CURVE SMOOTH",
"1118 292 LINE",
"885 292 LINE",
"990.999 485 OFFCURVE",
"1056 607 OFFCURVE",
"1080 657 CURVE SMOOTH",
"1105 707 OFFCURVE",
"1119 736 OFFCURVE",
"1122 744 CURVE"
);
}
);
width = 1430;
}
);
unicode = 00BC;
},
{
glyphname = threequarters;
lastChange = "2013-03-07 05:31:29 +0200";
layers = (
{
layerId = "A1CEB6E1-F2CA-49E9-B0B5-3CAF1AD39F7C";
name = "Light Condensed";
paths = (
{
closed = 1;
nodes = (
"1085 1462 LINE",
"317 0 LINE",
"409 0 LINE",
"1177 1462 LINE"
);
},
{
closed = 1;
nodes = (
"186 1485 OFFCURVE",
"113 1455 OFFCURVE",
"47 1395 CURVE",
"99.9999 1327 LINE",
"149 1375 OFFCURVE",
"202 1399 OFFCURVE",
"258 1399 CURVE SMOOTH",
"353 1399 OFFCURVE",
"408 1348 OFFCURVE",
"408 1260 CURVE SMOOTH",
"408 1155 OFFCURVE",
"344 1085 OFFCURVE",
"231 1085 CURVE SMOOTH",
"166 1085 LINE",
"166 1004 LINE",
"227 1004 LINE SMOOTH",
"363 1004 OFFCURVE",
"432 939 OFFCURVE",
"432 819 CURVE SMOOTH",
"432 720 OFFCURVE",
"377 655 OFFCURVE",
"252 655 CURVE SMOOTH",
"183 655 OFFCURVE",
"116 672 OFFCURVE",
"53 707 CURVE",
"53 612 LINE",
"118 583 OFFCURVE",
"184 569 OFFCURVE",
"250 569 CURVE SMOOTH",
"333 569 OFFCURVE",
"400 592 OFFCURVE",
"450 639 CURVE SMOOTH",
"501 686 OFFCURVE",
"526 746 OFFCURVE",
"526 819 CURVE SMOOTH",
"526 938 OFFCURVE",
"471 1013 OFFCURVE",
"360 1044 CURVE",
"360 1053 LINE",
"447 1085 OFFCURVE",
"498 1159 OFFCURVE",
"498 1255 CURVE SMOOTH",
"498 1398 OFFCURVE",
"414 1485 OFFCURVE",
"266 1485 CURVE SMOOTH"
);
},
{
closed = 1;
nodes = (
"1163 883 LINE",
"823 275 LINE",
"823 210 LINE",
"1157 210 LINE",
"1157 0.999999 LINE",
"1243 0.999999 LINE",
"1243 210 LINE",
"1343 210 LINE",
"1343 292 LINE",
"1243 292 LINE",
"1243 883 LINE"
);
},
{
closed = 1;
nodes = (
"1158 712 OFFCURVE",
"1157 655 OFFCURVE",
"1157 574 CURVE SMOOTH",
"1157 292 LINE",
"924 292 LINE",
"1030 485 OFFCURVE",
"1095 607 OFFCURVE",
"1119 657 CURVE SMOOTH",
"1144 707 OFFCURVE",
"1158 736 OFFCURVE",
"1161 744 CURVE"
);
}
);
width = 1430;
}
);
unicode = 00BE;
},
{
glyphname = onesuperior;
lastChange = "2013-03-07 05:31:29 +0200";
layers = (
{
layerId = "A1CEB6E1-F2CA-49E9-B0B5-3CAF1AD39F7C";
name = "Light Condensed";
paths = (
{
closed = 1;
nodes = (
"319 1462 LINE",
"82 1290 LINE",
"131 1225 LINE",
"204 1277 OFFCURVE",
"247 1309 OFFCURVE",
"262 1321 CURVE SMOOTH",
"277 1333 OFFCURVE",
"295 1349 OFFCURVE",
"317 1370 CURVE",
"313 1314 OFFCURVE",
"311 1257 OFFCURVE",
"311 1200 CURVE SMOOTH",
"311 586 LINE",
"397 586 LINE",
"397 1462 LINE"
);
}
);
width = 614;
}
);
unicode = 00B9;
},
{
glyphname = twosuperior;
lastChange = "2013-03-07 05:31:29 +0200";
layers = (
{
layerId = "A1CEB6E1-F2CA-49E9-B0B5-3CAF1AD39F7C";
name = "Light Condensed";
paths = (
{
closed = 1;
nodes = (
"187 1483 OFFCURVE",
"114 1447 OFFCURVE",
"51 1376 CURVE",
"106 1315 LINE",
"157 1370 OFFCURVE",
"211 1397 OFFCURVE",
"270 1397 CURVE SMOOTH",
"359 1397 OFFCURVE",
"412 1339 OFFCURVE",
"412 1251 CURVE SMOOTH",
"412 1208 OFFCURVE",
"407 1172 OFFCURVE",
"396 1142 CURVE SMOOTH",
"386 1113 OFFCURVE",
"368 1079 OFFCURVE",
"343 1041 CURVE SMOOTH",
"318 1004 OFFCURVE",
"280 952 OFFCURVE",
"227 887 CURVE SMOOTH",
"49 664 LINE",
"49 586 LINE",
"520 586 LINE",
"520 668 LINE",
"150 668 LINE",
"295 844 LINE SMOOTH",
"385 954 OFFCURVE",
"443 1035 OFFCURVE",
"468 1086 CURVE SMOOTH",
"493 1138 OFFCURVE",
"506 1193 OFFCURVE",
"506 1251 CURVE SMOOTH",
"506 1394 OFFCURVE",
"419 1483 OFFCURVE",
"272 1483 CURVE SMOOTH"
);
}
);
width = 614;
}
);
unicode = 00B2;
},
{
glyphname = threesuperior;
lastChange = "2013-03-07 05:31:29 +0200";
layers = (
{
layerId = "A1CEB6E1-F2CA-49E9-B0B5-3CAF1AD39F7C";
name = "Light Condensed";
paths = (
{
closed = 1;
nodes = (
"186 1485 OFFCURVE",
"113 1455 OFFCURVE",
"47 1395 CURVE",
"99.9999 1327 LINE",
"149 1375 OFFCURVE",
"202 1399 OFFCURVE",
"258 1399 CURVE SMOOTH",
"353 1399 OFFCURVE",
"408 1348 OFFCURVE",
"408 1260 CURVE SMOOTH",
"408 1155 OFFCURVE",
"344 1085 OFFCURVE",
"231 1085 CURVE SMOOTH",
"166 1085 LINE",
"166 1004 LINE",
"227 1004 LINE SMOOTH",
"363 1004 OFFCURVE",
"432 939 OFFCURVE",
"432 819 CURVE SMOOTH",
"432 720 OFFCURVE",
"377 655 OFFCURVE",
"252 655 CURVE SMOOTH",
"183 655 OFFCURVE",
"116 672 OFFCURVE",
"53 707 CURVE",
"53 612 LINE",
"118 583 OFFCURVE",
"184 569 OFFCURVE",
"250 569 CURVE SMOOTH",
"333 569 OFFCURVE",
"400 592 OFFCURVE",
"450 639 CURVE SMOOTH",
"501 686 OFFCURVE",
"526 746 OFFCURVE",
"526 819 CURVE SMOOTH",
"526 938 OFFCURVE",
"471 1013 OFFCURVE",
"360 1044 CURVE",
"360 1053 LINE",
"447 1085 OFFCURVE",
"498 1159 OFFCURVE",
"498 1255 CURVE SMOOTH",
"498 1398 OFFCURVE",
"414 1485 OFFCURVE",
"266 1485 CURVE SMOOTH"
);
}
);
width = 614;
}
);
unicode = 00B3;
},
{
glyphname = asterisk;
lastChange = "2013-03-07 05:31:29 +0200";
layers = (
{
layerId = "A1CEB6E1-F2CA-49E9-B0B5-3CAF1AD39F7C";
name = "Light Condensed";
paths = (
{
closed = 1;
nodes = (
"313 1556 LINE",
"340 1307 LINE",
"111 1362 LINE",
"93.9999 1255 LINE",
"315 1249 LINE",
"166 1022 LINE",
"258 974.999 LINE",
"375 1214 LINE",
"483 976.999 LINE",
"580 1022 LINE",
"424 1249 LINE",
"651 1257 LINE",
"637 1364 LINE",
"406 1307 LINE",
"434 1556 LINE"
);
}
);
width = 745;
}
);
unicode = 002A;
},
{
glyphname = backslash;
lastChange = "2013-03-07 05:31:29 +0200";
layers = (
{
layerId = "A1CEB6E1-F2CA-49E9-B0B5-3CAF1AD39F7C";
name = "Light Condensed";
paths = (
{
closed = 1;
nodes = (
"51 1462 LINE",
"573 0 LINE",
"674 0 LINE",
"147 1462 LINE"
);
}
);
width = 713;
}
);
unicode = 005C;
},
{
glyphname = bullet;
lastChange = "2013-03-07 05:31:29 +0200";
layers = (
{
layerId = "A1CEB6E1-F2CA-49E9-B0B5-3CAF1AD39F7C";
name = "Light Condensed";
paths = (
{
closed = 1;
nodes = (
"246 988.999 OFFCURVE",
"168 908 OFFCURVE",
"168 748 CURVE SMOOTH",
"168 591 OFFCURVE",
"248 506 OFFCURVE",
"385 506 CURVE SMOOTH",
"524 506 OFFCURVE",
"602 591 OFFCURVE",
"602 748 CURVE SMOOTH",
"602 908 OFFCURVE",
"524 988.999 OFFCURVE",
"385 988.999 CURVE SMOOTH"
);
}
);
width = 770;
}
);
unicode = 2022;
},
{
glyphname = colon;
lastChange = "2013-03-07 05:31:29 +0200";
layers = (
{
layerId = "A1CEB6E1-F2CA-49E9-B0B5-3CAF1AD39F7C";
name = "Light Condensed";
paths = (
{
closed = 1;
nodes = (
"159 1087 OFFCURVE",
"133 1052 OFFCURVE",
"133 980.999 CURVE SMOOTH",
"133 910 OFFCURVE",
"159 874 OFFCURVE",
"211 874 CURVE SMOOTH",
"254 874 OFFCURVE",
"289 905 OFFCURVE",
"289 980.999 CURVE SMOOTH",
"289 1052 OFFCURVE",
"263 1087 OFFCURVE",
"211 1087 CURVE SMOOTH"
);
},
{
closed = 1;
nodes = (
"159 197 OFFCURVE",
"133 161 OFFCURVE",
"133 90 CURVE SMOOTH",
"133 19 OFFCURVE",
"159 -16 OFFCURVE",
"211 -16 CURVE SMOOTH",
"254 -16 OFFCURVE",
"289 14 OFFCURVE",
"289 90 CURVE SMOOTH",
"289 169 OFFCURVE",
"254 197 OFFCURVE",
"211 197 CURVE SMOOTH"
);
}
);
width = 422;
}
);
unicode = 003A;
},
{
glyphname = comma;
lastChange = "2013-03-07 05:31:29 +0200";
layers = (
{
layerId = "A1CEB6E1-F2CA-49E9-B0B5-3CAF1AD39F7C";
name = "Light Condensed";
paths = (
{
closed = 1;
nodes = (
"178 205 LINE",
"161 62 OFFCURVE",
"128 -94 OFFCURVE",
"78 -264 CURVE",
"141 -264 LINE",
"208 -117 OFFCURVE",
"263 32 OFFCURVE",
"307 182 CURVE",
"293 205 LINE"
);
}
);
width = 422;
}
);
unicode = 002C;
},
{
glyphname = ellipsis;
lastChange = "2013-03-07 05:31:29 +0200";
layers = (
{
layerId = "A1CEB6E1-F2CA-49E9-B0B5-3CAF1AD39F7C";
name = "Light Condensed";
paths = (
{
closed = 1;
nodes = (
"1003 197 OFFCURVE",
"976.999 161 OFFCURVE",
"976.999 90 CURVE SMOOTH",
"976.999 19 OFFCURVE",
"1003 -16 OFFCURVE",
"1055 -16 CURVE SMOOTH",
"1098 -16 OFFCURVE",
"1133 14 OFFCURVE",
"1133 90 CURVE SMOOTH",
"1133 169 OFFCURVE",
"1098 197 OFFCURVE",
"1055 197 CURVE SMOOTH"
);
},
{
closed = 1;
nodes = (
"159 197 OFFCURVE",
"133 161 OFFCURVE",
"133 90 CURVE SMOOTH",
"133 19 OFFCURVE",
"159 -16 OFFCURVE",
"211 -16 CURVE SMOOTH",
"254 -16 OFFCURVE",
"289 14 OFFCURVE",
"289 90 CURVE SMOOTH",
"289 169 OFFCURVE",
"254 197 OFFCURVE",
"211 197 CURVE SMOOTH"
);
},
{
closed = 1;
nodes = (
"581 197 OFFCURVE",
"555 161 OFFCURVE",
"555 90 CURVE SMOOTH",
"555 19 OFFCURVE",
"581 -16 OFFCURVE",
"633 -16 CURVE SMOOTH",
"676 -16 OFFCURVE",
"711 14 OFFCURVE",
"711 90 CURVE SMOOTH",
"711 169 OFFCURVE",
"676 197 OFFCURVE",
"633 197 CURVE SMOOTH"
);
}
);
width = 1266;
}
);
unicode = 2026;
},
{
glyphname = exclam;
lastChange = "2013-03-07 05:31:29 +0200";
layers = (
{
layerId = "A1CEB6E1-F2CA-49E9-B0B5-3CAF1AD39F7C";
name = "Light Condensed";
paths = (
{
closed = 1;
nodes = (
"162 1462 LINE",
"197 367 LINE",
"252 367 LINE",
"287 1462 LINE"
);
},
{
closed = 1;
nodes = (
"173 197 OFFCURVE",
"147 161 OFFCURVE",
"147 90 CURVE SMOOTH",
"147 19 OFFCURVE",
"173 -16 OFFCURVE",
"225 -16 CURVE SMOOTH",
"268 -16 OFFCURVE",
"303 14 OFFCURVE",
"303 90 CURVE SMOOTH",
"303 169 OFFCURVE",
"268 197 OFFCURVE",
"225 197 CURVE SMOOTH"
);
}
);
width = 451;
}
);
unicode = 0021;
},
{
glyphname = exclamdown;
lastChange = "2013-03-07 05:31:29 +0200";
layers = (
{
layerId = "A1CEB6E1-F2CA-49E9-B0B5-3CAF1AD39F7C";
name = "Light Condensed";
paths = (
{
closed = 1;
nodes = (
"197 705 LINE",
"162 -391 LINE",
"287 -391 LINE",
"252 705 LINE"
);
},
{
closed = 1;
nodes = (
"173 1087 OFFCURVE",
"147 1052 OFFCURVE",
"147 980.999 CURVE SMOOTH",
"147 910 OFFCURVE",
"173 874 OFFCURVE",
"225 874 CURVE SMOOTH",
"268 874 OFFCURVE",
"303 902 OFFCURVE",
"303 980.999 CURVE SMOOTH",
"303 1057 OFFCURVE",
"268 1087 OFFCURVE",
"225 1087 CURVE SMOOTH"
);
}
);
width = 451;
}
);
unicode = 00A1;
},
{
glyphname = numbersign;
lastChange = "2013-03-07 05:31:29 +0200";
layers = (
{
layerId = "A1CEB6E1-F2CA-49E9-B0B5-3CAF1AD39F7C";
name = "Light Condensed";
paths = (
{
closed = 1;
nodes = (
"635 1462 LINE",
"586 1042 LINE",
"350 1042 LINE",
"399 1462 LINE",
"317 1462 LINE",
"270 1042 LINE",
"82 1042 LINE",
"82 956 LINE",
"260 956 LINE",
"215 557 LINE",
"37 557 LINE",
"37 467 LINE",
"205 467 LINE",
"154 0 LINE",
"231 0 LINE",
"285 467 LINE",
"518 467 LINE",
"463 0 LINE",
"545 0 LINE",
"598 467 LINE",
"782 467 LINE",
"782 557 LINE",
"608 557 LINE",
"653 956 LINE",
"829 956 LINE",
"829 1042 LINE",
"664 1042 LINE",
"711 1462 LINE"
);
},
{
closed = 1;
nodes = (
"528 557 LINE",
"295 557 LINE",
"340 956 LINE",
"575 956 LINE"
);
}
);
width = 868;
}
);
unicode = 0023;
},
{
glyphname = period;
lastChange = "2013-03-07 05:31:29 +0200";
layers = (
{
layerId = "A1CEB6E1-F2CA-49E9-B0B5-3CAF1AD39F7C";
name = "Light Condensed";
paths = (
{
closed = 1;
nodes = (
"159 197 OFFCURVE",
"133 161 OFFCURVE",
"133 90 CURVE SMOOTH",
"133 19 OFFCURVE",
"159 -16 OFFCURVE",
"211 -16 CURVE SMOOTH",
"254 -16 OFFCURVE",
"289 14 OFFCURVE",
"289 90 CURVE SMOOTH",
"289 169 OFFCURVE",
"254 197 OFFCURVE",
"211 197 CURVE SMOOTH"
);
}
);
width = 422;
}
);
unicode = 002E;
},
{
glyphname = periodcentered;
lastChange = "2013-03-07 05:31:29 +0200";
layers = (
{
layerId = "A1CEB6E1-F2CA-49E9-B0B5-3CAF1AD39F7C";
name = "Light Condensed";
paths = (
{
closed = 1;
nodes = (
"159 827 OFFCURVE",
"133 792 OFFCURVE",
"133 721 CURVE SMOOTH",
"133 650 OFFCURVE",
"159 614 OFFCURVE",
"211 614 CURVE SMOOTH",
"254 614 OFFCURVE",
"289 645 OFFCURVE",
"289 721 CURVE SMOOTH",
"289 792 OFFCURVE",
"263 827 OFFCURVE",
"211 827 CURVE SMOOTH"
);
}
);
width = 422;
}
);
unicode = 00B7;
},
{
glyphname = question;
lastChange = "2013-03-07 05:31:29 +0200";
layers = (
{
layerId = "A1CEB6E1-F2CA-49E9-B0B5-3CAF1AD39F7C";
name = "Light Condensed";
paths = (
{
closed = 1;
nodes = (
"176 1483 OFFCURVE",
"101 1458 OFFCURVE",
"35 1409 CURVE",
"82 1333 LINE",
"137 1370 OFFCURVE",
"184 1393 OFFCURVE",
"260 1393 CURVE SMOOTH",
"365 1393 OFFCURVE",
"430 1308 OFFCURVE",
"430 1153 CURVE SMOOTH",
"430 1090 OFFCURVE",
"421 1032 OFFCURVE",
"403 978.999 CURVE SMOOTH",
"386 926 OFFCURVE",
"348 855 OFFCURVE",
"289 766 CURVE SMOOTH",
"250 708 OFFCURVE",
"224 654 OFFCURVE",
"210 605 CURVE SMOOTH",
"197 556 OFFCURVE",
"190 494 OFFCURVE",
"190 418 CURVE SMOOTH",
"190 367 LINE",
"264 367 LINE",
"264 403 LINE SMOOTH",
"264 470 OFFCURVE",
"272 526 OFFCURVE",
"288 572 CURVE SMOOTH",
"304 618 OFFCURVE",
"332 670 OFFCURVE",
"371 729 CURVE SMOOTH",
"436 827 OFFCURVE",
"478 903 OFFCURVE",
"499 957 CURVE SMOOTH",
"520 1011 OFFCURVE",
"530 1078 OFFCURVE",
"530 1159 CURVE SMOOTH",
"530 1370 OFFCURVE",
"433 1483 OFFCURVE",
"260 1483 CURVE SMOOTH"
);
},
{
closed = 1;
nodes = (
"182 197 OFFCURVE",
"156 161 OFFCURVE",
"156 90 CURVE SMOOTH",
"156 19 OFFCURVE",
"182 -16 OFFCURVE",
"233 -16 CURVE SMOOTH",
"276 -16 OFFCURVE",
"311 14 OFFCURVE",
"311 90 CURVE SMOOTH",
"311 169 OFFCURVE",
"276 197 OFFCURVE",
"233 197 CURVE SMOOTH"
);
}
);
width = 578;
}
);
unicode = 003F;
},
{
glyphname = questiondown;
lastChange = "2013-03-07 05:31:29 +0200";
layers = (
{
layerId = "A1CEB6E1-F2CA-49E9-B0B5-3CAF1AD39F7C";
name = "Light Condensed";
paths = (
{
closed = 1;
nodes = (
"311 705 LINE",
"311 666 LINE SMOOTH",
"311 599 OFFCURVE",
"303 544 OFFCURVE",
"288 500 CURVE SMOOTH",
"273 456 OFFCURVE",
"246 403 OFFCURVE",
"207 342 CURVE SMOOTH",
"150 256 OFFCURVE",
"113 194 OFFCURVE",
"95.9999 156 CURVE SMOOTH",
"61 81 OFFCURVE",
"47 13 OFFCURVE",
"47 -88 CURVE SMOOTH",
"47 -293 OFFCURVE",
"141 -412 OFFCURVE",
"317 -412 CURVE SMOOTH",
"400 -412 OFFCURVE",
"475 -387 OFFCURVE",
"543 -338 CURVE",
"496 -262 LINE",
"440 -299 OFFCURVE",
"393 -322 OFFCURVE",
"317 -322 CURVE SMOOTH",
"213 -322 OFFCURVE",
"147 -237 OFFCURVE",
"147 -82 CURVE SMOOTH",
"147 -36 OFFCURVE",
"151 5 OFFCURVE",
"160 42 CURVE SMOOTH",
"169 79 OFFCURVE",
"181 115 OFFCURVE",
"197 150 CURVE SMOOTH",
"213 185 OFFCURVE",
"244 236 OFFCURVE",
"289 305 CURVE SMOOTH",
"326 362 OFFCURVE",
"352 415 OFFCURVE",
"366 464 CURVE SMOOTH",
"380 513 OFFCURVE",
"387 576 OFFCURVE",
"387 653 CURVE SMOOTH",
"387 705 LINE"
);
},
{
closed = 1;
nodes = (
"301 1087 OFFCURVE",
"266 1057 OFFCURVE",
"266 980.999 CURVE SMOOTH",
"266 902 OFFCURVE",
"301 874 OFFCURVE",
"344 874 CURVE SMOOTH",
"396 874 OFFCURVE",
"422 910 OFFCURVE",
"422 980.999 CURVE SMOOTH",
"422 1052 OFFCURVE",
"396 1087 OFFCURVE",
"344 1087 CURVE SMOOTH"
);
}
);
width = 578;
}
);
unicode = 00BF;
},
{
glyphname = quotedbl;
lastChange = "2013-03-07 05:31:29 +0200";
layers = (
{
layerId = "A1CEB6E1-F2CA-49E9-B0B5-3CAF1AD39F7C";
name = "Light Condensed";
paths = (
{
closed = 1;
nodes = (
"430 1462 LINE",
"463 934 LINE",
"524 934 LINE",
"553 1462 LINE"
);
},
{
closed = 1;
nodes = (
"133 1462 LINE",
"166 934 LINE",
"227 934 LINE",
"256 1462 LINE"
);
}
);
width = 686;
}
);
unicode = 0022;
},
{
glyphname = quotesingle;
lastChange = "2013-03-07 05:31:29 +0200";
layers = (
{
layerId = "A1CEB6E1-F2CA-49E9-B0B5-3CAF1AD39F7C";
name = "Light Condensed";
paths = (
{
closed = 1;
nodes = (
"133 1462 LINE",
"166 934 LINE",
"227 934 LINE",
"256 1462 LINE"
);
}
);
width = 389;
}
);
unicode = 0027;
},
{
glyphname = semicolon;
lastChange = "2013-03-07 05:31:29 +0200";
layers = (
{
layerId = "A1CEB6E1-F2CA-49E9-B0B5-3CAF1AD39F7C";
name = "Light Condensed";
paths = (
{
closed = 1;
nodes = (
"178 205 LINE",
"161 62 OFFCURVE",
"128 -94 OFFCURVE",
"78 -264 CURVE",
"141 -264 LINE",
"208 -117 OFFCURVE",
"263 32 OFFCURVE",
"307 182 CURVE",
"293 205 LINE"
);
},
{
closed = 1;
nodes = (
"159 1087 OFFCURVE",
"133 1052 OFFCURVE",
"133 980.999 CURVE SMOOTH",
"133 910 OFFCURVE",
"159 874 OFFCURVE",
"211 874 CURVE SMOOTH",
"254 874 OFFCURVE",
"289 905 OFFCURVE",
"289 980.999 CURVE SMOOTH",
"289 1052 OFFCURVE",
"263 1087 OFFCURVE",
"211 1087 CURVE SMOOTH"
);
}
);
width = 422;
}
);
unicode = 003B;
},
{
glyphname = slash;
lastChange = "2013-03-07 05:31:29 +0200";
layers = (
{
layerId = "A1CEB6E1-F2CA-49E9-B0B5-3CAF1AD39F7C";
name = "Light Condensed";
paths = (
{
closed = 1;
nodes = (
"578 1462 LINE",
"51 0 LINE",
"152 0 LINE",
"674 1462 LINE"
);
}
);
width = 713;
}
);
unicode = 002F;
},
{
glyphname = underscore;
lastChange = "2013-03-07 05:31:29 +0200";
layers = (
{
layerId = "A1CEB6E1-F2CA-49E9-B0B5-3CAF1AD39F7C";
name = "Light Condensed";
paths = (
{
closed = 1;
nodes = (
"-4 -184 LINE",
"-4 -266 LINE",
"846 -266 LINE",
"846 -184 LINE"
);
}
);
width = 842;
}
);
unicode = 005F;
},
{
glyphname = braceleft;
lastChange = "2013-03-07 05:31:29 +0200";
layers = (
{
layerId = "A1CEB6E1-F2CA-49E9-B0B5-3CAF1AD39F7C";
name = "Light Condensed";
paths = (
{
closed = 1;
nodes = (
"433 1457 OFFCURVE",
"315 1340 OFFCURVE",
"315 1143 CURVE SMOOTH",
"315 819 LINE SMOOTH",
"315 759 OFFCURVE",
"308 715 OFFCURVE",
"295 686 CURVE SMOOTH",
"268 630 OFFCURVE",
"212 604 OFFCURVE",
"109 604 CURVE",
"109 535 LINE",
"162 535 OFFCURVE",
"203 528 OFFCURVE",
"232 514 CURVE SMOOTH",
"291 487 OFFCURVE",
"315 438 OFFCURVE",
"315 319 CURVE SMOOTH",
"315 -4 LINE SMOOTH",
"315 -199 OFFCURVE",
"430 -319 OFFCURVE",
"633 -324 CURVE",
"633 -244 LINE",
"484 -241 OFFCURVE",
"414 -167 OFFCURVE",
"414 -8 CURVE SMOOTH",
"414 307 LINE SMOOTH",
"414 388 OFFCURVE",
"399 447 OFFCURVE",
"369 486 CURVE SMOOTH",
"340 525 OFFCURVE",
"290 552 OFFCURVE",
"219 565 CURVE",
"219 573 LINE",
"288 586 OFFCURVE",
"338 612 OFFCURVE",
"368 651 CURVE SMOOTH",
"399 690 OFFCURVE",
"414 750 OFFCURVE",
"414 831 CURVE SMOOTH",
"414 1147 LINE SMOOTH",
"414 1306 OFFCURVE",
"484 1379 OFFCURVE",
"633 1382 CURVE",
"633 1462 LINE"
);
}
);
width = 737;
}
);
unicode = 007B;
},
{
glyphname = braceright;
lastChange = "2013-03-07 05:31:29 +0200";
layers = (
{
layerId = "A1CEB6E1-F2CA-49E9-B0B5-3CAF1AD39F7C";
name = "Light Condensed";
paths = (
{
closed = 1;
nodes = (
"104 1382 LINE",
"253 1379 OFFCURVE",
"324 1306 OFFCURVE",
"324 1147 CURVE SMOOTH",
"324 831 LINE SMOOTH",
"324 750 OFFCURVE",
"339 690 OFFCURVE",
"369 651 CURVE SMOOTH",
"400 612 OFFCURVE",
"449 586 OFFCURVE",
"518 573 CURVE",
"518 565 LINE",
"448 552 OFFCURVE",
"398 525 OFFCURVE",
"368 486 CURVE SMOOTH",
"339 447 OFFCURVE",
"324 388 OFFCURVE",
"324 307 CURVE SMOOTH",
"324 -8 LINE SMOOTH",
"324 -167 OFFCURVE",
"253 -241 OFFCURVE",
"104 -244 CURVE",
"104 -324 LINE",
"305 -319 OFFCURVE",
"422 -200 OFFCURVE",
"422 -4 CURVE SMOOTH",
"422 319 LINE SMOOTH",
"422 380 OFFCURVE",
"429 424 OFFCURVE",
"442 452 CURVE SMOOTH",
"469 508 OFFCURVE",
"525 535 OFFCURVE",
"629 535 CURVE",
"629 604 LINE",
"577 604 OFFCURVE",
"536 611 OFFCURVE",
"506 624 CURVE SMOOTH",
"447 652 OFFCURVE",
"422 699 OFFCURVE",
"422 819 CURVE SMOOTH",
"422 1143 LINE SMOOTH",
"422 1339 OFFCURVE",
"304 1457 OFFCURVE",
"104 1462 CURVE"
);
}
);
width = 737;
}
);
unicode = 007D;
},
{
glyphname = bracketleft;
lastChange = "2013-03-07 05:31:29 +0200";
layers = (
{
layerId = "A1CEB6E1-F2CA-49E9-B0B5-3CAF1AD39F7C";
name = "Light Condensed";
paths = (
{
closed = 1;
nodes = (
"174 1462 LINE",
"174 -324 LINE",
"571 -324 LINE",
"571 -233 LINE",
"268 -233 LINE",
"268 1372 LINE",
"571 1372 LINE",
"571 1462 LINE"
);
}
);
width = 645;
}
);
unicode = 005B;
},
{
glyphname = bracketright;
lastChange = "2013-03-07 05:31:29 +0200";
layers = (
{
layerId = "A1CEB6E1-F2CA-49E9-B0B5-3CAF1AD39F7C";
name = "Light Condensed";
paths = (
{
closed = 1;
nodes = (
"74 1462 LINE",
"74 1372 LINE",
"377 1372 LINE",
"377 -233 LINE",
"74 -233 LINE",
"74 -324 LINE",
"471 -324 LINE",
"471 1462 LINE"
);
}
);
width = 645;
}
);
unicode = 005D;
},
{
glyphname = parenleft;
lastChange = "2013-03-07 05:31:29 +0200";
layers = (
{
layerId = "A1CEB6E1-F2CA-49E9-B0B5-3CAF1AD39F7C";
name = "Light Condensed";
paths = (
{
closed = 1;
nodes = (
"401 1462 LINE",
"307 1348 OFFCURVE",
"234 1212 OFFCURVE",
"182 1055 CURVE SMOOTH",
"130 898 OFFCURVE",
"104 734 OFFCURVE",
"104 561 CURVE SMOOTH",
"104 389 OFFCURVE",
"130 226 OFFCURVE",
"181 73 CURVE SMOOTH",
"232 -80 OFFCURVE",
"306 -213 OFFCURVE",
"401 -324 CURVE",
"479 -324 LINE",
"396 -209 OFFCURVE",
"330 -73 OFFCURVE",
"281 84 CURVE SMOOTH",
"233 241 OFFCURVE",
"209 401 OFFCURVE",
"209 563 CURVE SMOOTH",
"209 722 OFFCURVE",
"232 878 OFFCURVE",
"278 1032 CURVE SMOOTH",
"324 1187 OFFCURVE",
"392 1330 OFFCURVE",
"481 1462 CURVE"
);
}
);
width = 565;
}
);
unicode = 0028;
},
{
glyphname = parenright;
lastChange = "2013-03-07 05:31:29 +0200";
layers = (
{
layerId = "A1CEB6E1-F2CA-49E9-B0B5-3CAF1AD39F7C";
name = "Light Condensed";
paths = (
{
closed = 1;
nodes = (
"84 1462 LINE",
"263 1197 OFFCURVE",
"356 882 OFFCURVE",
"356 563 CURVE SMOOTH",
"356 404 OFFCURVE",
"332 247 OFFCURVE",
"285 91 CURVE SMOOTH",
"238 -65 OFFCURVE",
"172 -203 OFFCURVE",
"86 -324 CURVE",
"164 -324 LINE",
"260 -213 OFFCURVE",
"333 -81 OFFCURVE",
"384 72 CURVE SMOOTH",
"435 226 OFFCURVE",
"461 389 OFFCURVE",
"461 561 CURVE SMOOTH",
"461 732 OFFCURVE",
"435 897 OFFCURVE",
"384 1055 CURVE SMOOTH",
"333 1213 OFFCURVE",
"259 1349 OFFCURVE",
"164 1462 CURVE"
);
}
);
width = 565;
}
);
unicode = 0029;
},
{
glyphname = emdash;
lastChange = "2013-03-07 05:31:29 +0200";
layers = (
{
layerId = "A1CEB6E1-F2CA-49E9-B0B5-3CAF1AD39F7C";
name = "Light Condensed";
paths = (
{
closed = 1;
nodes = (
"82 594 LINE",
"82 512 LINE",
"1966 512 LINE",
"1966 594 LINE"
);
}
);
width = 2048;
}
);
unicode = 2014;
},
{
glyphname = endash;
lastChange = "2013-03-07 05:31:29 +0200";
layers = (
{
layerId = "A1CEB6E1-F2CA-49E9-B0B5-3CAF1AD39F7C";
name = "Light Condensed";
paths = (
{
closed = 1;
nodes = (
"82 594 LINE",
"82 512 LINE",
"942 512 LINE",
"942 594 LINE"
);
}
);
width = 1024;
}
);
unicode = 2013;
},
{
glyphname = hyphen;
lastChange = "2013-03-07 05:31:29 +0200";
layers = (
{
layerId = "A1CEB6E1-F2CA-49E9-B0B5-3CAF1AD39F7C";
name = "Light Condensed";
paths = (
{
closed = 1;
nodes = (
"53 604 LINE",
"53 502 LINE",
"463 502 LINE",
"463 604 LINE"
);
}
);
width = 516;
}
);
unicode = 002D;
},
{
glyphname = uni00AD;
lastChange = "2013-03-07 05:31:29 +0200";
layers = (
{
layerId = "A1CEB6E1-F2CA-49E9-B0B5-3CAF1AD39F7C";
name = "Light Condensed";
paths = (
{
closed = 1;
nodes = (
"53 604 LINE",
"53 502 LINE",
"463 502 LINE",
"463 604 LINE"
);
}
);
width = 516;
}
);
unicode = 00AD;
},
{
glyphname = guillemotleft;
lastChange = "2013-03-07 05:31:29 +0200";
layers = (
{
layerId = "A1CEB6E1-F2CA-49E9-B0B5-3CAF1AD39F7C";
name = "Light Condensed";
paths = (
{
closed = 1;
nodes = (
"426 541 LINE",
"426 514 LINE",
"715 147 LINE",
"774 184 LINE",
"557 528 LINE",
"774 872 LINE",
"715 907 LINE"
);
},
{
closed = 1;
nodes = (
"82 541 LINE",
"82 514 LINE",
"369 147 LINE",
"430 184 LINE",
"211 528 LINE",
"430 872 LINE",
"369 907 LINE"
);
}
);
width = 856;
}
);
unicode = 00AB;
},
{
glyphname = guillemotright;
lastChange = "2013-03-07 05:31:29 +0200";
layers = (
{
layerId = "A1CEB6E1-F2CA-49E9-B0B5-3CAF1AD39F7C";
name = "Light Condensed";
paths = (
{
closed = 1;
nodes = (
"426 872 LINE",
"645 528 LINE",
"426 184 LINE",
"487 147 LINE",
"774 514 LINE",
"774 541 LINE",
"487 907 LINE"
);
},
{
closed = 1;
nodes = (
"82 872 LINE",
"299 528 LINE",
"82 184 LINE",
"141 147 LINE",
"430 514 LINE",
"430 541 LINE",
"141 907 LINE"
);
}
);
width = 856;
}
);
unicode = 00BB;
},
{
glyphname = guilsinglleft;
lastChange = "2013-03-07 05:31:29 +0200";
layers = (
{
layerId = "A1CEB6E1-F2CA-49E9-B0B5-3CAF1AD39F7C";
name = "Light Condensed";
paths = (
{
closed = 1;
nodes = (
"82 541 LINE",
"82 514 LINE",
"369 147 LINE",
"430 184 LINE",
"211 528 LINE",
"430 872 LINE",
"369 907 LINE"
);
}
);
width = 512;
}
);
unicode = 2039;
},
{
glyphname = guilsinglright;
lastChange = "2013-03-07 05:31:29 +0200";
layers = (
{
layerId = "A1CEB6E1-F2CA-49E9-B0B5-3CAF1AD39F7C";
name = "Light Condensed";
paths = (
{
closed = 1;
nodes = (
"82 872 LINE",
"301 528 LINE",
"82 184 LINE",
"143 147 LINE",
"430 514 LINE",
"430 541 LINE",
"143 907 LINE"
);
}
);
width = 512;
}
);
unicode = 203A;
},
{
glyphname = quotedblbase;
lastChange = "2013-03-07 05:31:29 +0200";
layers = (
{
layerId = "A1CEB6E1-F2CA-49E9-B0B5-3CAF1AD39F7C";
name = "Light Condensed";
paths = (
{
closed = 1;
nodes = (
"416 205 LINE",
"409 146 OFFCURVE",
"397 74 OFFCURVE",
"378 -13 CURVE SMOOTH",
"359 -100 OFFCURVE",
"338 -184 OFFCURVE",
"315 -264 CURVE",
"379 -264 LINE",
"448 -107 OFFCURVE",
"504 41 OFFCURVE",
"545 182 CURVE",
"530 205 LINE"
);
},
{
closed = 1;
nodes = (
"133 205 LINE",
"116 62 OFFCURVE",
"83 -94 OFFCURVE",
"33 -264 CURVE",
"95.9999 -264 LINE",
"163 -117 OFFCURVE",
"218 32 OFFCURVE",
"262 182 CURVE",
"248 205 LINE"
);
}
);
width = 659;
}
);
unicode = 201E;
},
{
glyphname = quotedblleft;
lastChange = "2013-03-07 05:31:29 +0200";
layers = (
{
layerId = "A1CEB6E1-F2CA-49E9-B0B5-3CAF1AD39F7C";
name = "Light Condensed";
paths = (
{
closed = 1;
nodes = (
"492 1462 LINE",
"425 1315 OFFCURVE",
"370 1166 OFFCURVE",
"326 1016 CURVE",
"340 992.999 LINE",
"455 992.999 LINE",
"472 1136 OFFCURVE",
"505 1292 OFFCURVE",
"555 1462 CURVE"
);
},
{
closed = 1;
nodes = (
"209 1462 LINE",
"142 1315 OFFCURVE",
"87 1166 OFFCURVE",
"43 1016 CURVE",
"57 992.999 LINE",
"172 992.999 LINE",
"189 1136 OFFCURVE",
"222 1292 OFFCURVE",
"272 1462 CURVE"
);
}
);
width = 598;
}
);
unicode = 201C;
},
{
glyphname = quotedblright;
lastChange = "2013-03-07 05:31:29 +0200";
layers = (
{
layerId = "A1CEB6E1-F2CA-49E9-B0B5-3CAF1AD39F7C";
name = "Light Condensed";
paths = (
{
closed = 1;
nodes = (
"426 1462 LINE",
"409 1319 OFFCURVE",
"376 1163 OFFCURVE",
"326 992.999 CURVE",
"389 992.999 LINE",
"457 1146 OFFCURVE",
"512 1295 OFFCURVE",
"555 1440 CURVE",
"541 1462 LINE"
);
},
{
closed = 1;
nodes = (
"143 1462 LINE",
"126 1319 OFFCURVE",
"92.9999 1163 OFFCURVE",
"43 992.999 CURVE",
"106 992.999 LINE",
"174 1146 OFFCURVE",
"229 1295 OFFCURVE",
"272 1440 CURVE",
"258 1462 LINE"
);
}
);
width = 598;
}
);
unicode = 201D;
},
{
glyphname = quoteleft;
lastChange = "2013-03-07 05:31:29 +0200";
layers = (
{
layerId = "A1CEB6E1-F2CA-49E9-B0B5-3CAF1AD39F7C";
name = "Light Condensed";
paths = (
{
closed = 1;
nodes = (
"209 1462 LINE",
"142 1315 OFFCURVE",
"87 1166 OFFCURVE",
"43 1016 CURVE",
"57 992.999 LINE",
"172 992.999 LINE",
"189 1136 OFFCURVE",
"222 1292 OFFCURVE",
"272 1462 CURVE"
);
}
);
width = 315;
}
);
unicode = 2018;
},
{
glyphname = quoteright;
lastChange = "2013-03-07 05:31:29 +0200";
layers = (
{
layerId = "A1CEB6E1-F2CA-49E9-B0B5-3CAF1AD39F7C";
name = "Light Condensed";
paths = (
{
closed = 1;
nodes = (
"143 1462 LINE",
"126 1319 OFFCURVE",
"92.9999 1163 OFFCURVE",
"43 992.999 CURVE",
"106 992.999 LINE",
"174 1146 OFFCURVE",
"229 1295 OFFCURVE",
"272 1440 CURVE",
"258 1462 LINE"
);
}
);
width = 315;
}
);
unicode = 2019;
},
{
glyphname = quotesinglbase;
lastChange = "2013-03-07 05:31:29 +0200";
layers = (
{
layerId = "A1CEB6E1-F2CA-49E9-B0B5-3CAF1AD39F7C";
name = "Light Condensed";
paths = (
{
closed = 1;
nodes = (
"178 205 LINE",
"161 62 OFFCURVE",
"128 -94 OFFCURVE",
"78 -264 CURVE",
"141 -264 LINE",
"208 -117 OFFCURVE",
"263 32 OFFCURVE",
"307 182 CURVE",
"293 205 LINE"
);
}
);
width = 422;
}
);
unicode = 201A;
},
{
glyphname = "geresh-hb";
lastChange = "2013-03-07 05:31:29 +0200";
layers = (
{
layerId = "A1CEB6E1-F2CA-49E9-B0B5-3CAF1AD39F7C";
name = "Light Condensed";
paths = (
{
closed = 1;
nodes = (
"144 1290 LINE SMOOTH",
"144 1290 OFFCURVE",
"119 1126 OFFCURVE",
"97.9999 1029 CURVE SMOOTH",
"77 932 OFFCURVE",
"43 820 OFFCURVE",
"43 820 CURVE",
"106 820 LINE",
"106 820 OFFCURVE",
"162 951 OFFCURVE",
"191 1027 CURVE SMOOTH",
"220 1101 OFFCURVE",
"273 1270 OFFCURVE",
"273 1270 CURVE",
"260 1290 LINE"
);
}
);
width = 316;
}
);
unicode = 05F3;
},
{
glyphname = "gershayim-hb";
lastChange = "2013-03-07 05:31:29 +0200";
layers = (
{
layerId = "A1CEB6E1-F2CA-49E9-B0B5-3CAF1AD39F7C";
name = "Light Condensed";
paths = (
{
closed = 1;
nodes = (
"426 1290 LINE SMOOTH",
"426 1290 OFFCURVE",
"401 1126 OFFCURVE",
"380 1029 CURVE SMOOTH",
"359 932 OFFCURVE",
"325 820 OFFCURVE",
"325 820 CURVE",
"388 820 LINE",
"388 820 OFFCURVE",
"444 951 OFFCURVE",
"473 1027 CURVE SMOOTH",
"502 1101 OFFCURVE",
"555 1270 OFFCURVE",
"555 1270 CURVE",
"542 1290 LINE"
);
},
{
closed = 1;
nodes = (
"144 1290 LINE SMOOTH",
"144 1290 OFFCURVE",
"119 1126 OFFCURVE",
"97.9999 1029 CURVE SMOOTH",
"77 932 OFFCURVE",
"43 820 OFFCURVE",
"43 820 CURVE",
"106 820 LINE",
"106 820 OFFCURVE",
"162 951 OFFCURVE",
"191 1027 CURVE SMOOTH",
"220 1101 OFFCURVE",
"273 1270 OFFCURVE",
"273 1270 CURVE",
"260 1290 LINE"
);
}
);
width = 598;
}
);
unicode = 05F4;
},
{
glyphname = "maqaf-hb";
lastChange = "2013-03-07 05:31:29 +0200";
layers = (
{
layerId = "A1CEB6E1-F2CA-49E9-B0B5-3CAF1AD39F7C";
name = "Light Condensed";
paths = (
{
closed = 1;
nodes = (
"53 1289 LINE",
"53 1187 LINE",
"463 1187 LINE",
"463 1289 LINE"
);
}
);
width = 516;
}
);
unicode = 05BE;
},
{
glyphname = florin;
lastChange = "2013-03-07 05:31:29 +0200";
layers = (
{
layerId = "A1CEB6E1-F2CA-49E9-B0B5-3CAF1AD39F7C";
name = "Light Condensed";
paths = (
{
closed = 1;
nodes = (
"416 1483 OFFCURVE",
"354 1365 OFFCURVE",
"354 1126 CURVE SMOOTH",
"354 938 LINE",
"193 899 LINE",
"193 846 LINE",
"354 846 LINE",
"354 -147 LINE SMOOTH",
"354 -320 OFFCURVE",
"312 -403 OFFCURVE",
"201 -403 CURVE SMOOTH",
"168 -403 OFFCURVE",
"128 -397 OFFCURVE",
"80 -385 CURVE",
"80 -479 LINE",
"120 -488 OFFCURVE",
"162 -492 OFFCURVE",
"207 -492 CURVE SMOOTH",
"294 -492 OFFCURVE",
"356 -462 OFFCURVE",
"393 -401 CURVE SMOOTH",
"430 -340 OFFCURVE",
"449 -244 OFFCURVE",
"449 -111 CURVE SMOOTH",
"449 846 LINE",
"639 846 LINE",
"639 930 LINE",
"449 930 LINE",
"449 1110 LINE SMOOTH",
"453 1315 OFFCURVE",
"478 1390 OFFCURVE",
"578 1391 CURVE SMOOTH",
"611 1391 OFFCURVE",
"648 1380 OFFCURVE",
"690 1358 CURVE",
"731 1444 LINE",
"676 1470 OFFCURVE",
"623 1483 OFFCURVE",
"573 1483 CURVE SMOOTH"
);
}
);
width = 819;
}
);
unicode = 0192;
},
{
glyphname = Euro;
lastChange = "2013-03-07 05:31:29 +0200";
layers = (
{
layerId = "A1CEB6E1-F2CA-49E9-B0B5-3CAF1AD39F7C";
name = "Light Condensed";
paths = (
{
closed = 1;
nodes = (
"446 1485 OFFCURVE",
"361 1432 OFFCURVE",
"294 1327 CURVE SMOOTH",
"227 1222 OFFCURVE",
"187 1080 OFFCURVE",
"176 899 CURVE",
"35 899 LINE",
"35 817 LINE",
"172 817 LINE",
"170 756 LINE",
"170 717 LINE",
"172 616 LINE",
"35 616 LINE",
"35 535 LINE",
"176 535 LINE",
"205 162 OFFCURVE",
"334 -20 OFFCURVE",
"569 -20 CURVE SMOOTH",
"636 -20 OFFCURVE",
"699 -5 OFFCURVE",
"756 25 CURVE",
"756 125 LINE",
"692 90 OFFCURVE",
"640 78 OFFCURVE",
"569 78 CURVE SMOOTH",
"394 78 OFFCURVE",
"299 223 OFFCURVE",
"279 535 CURVE",
"571 535 LINE",
"571 616 LINE",
"274 616 LINE",
"272 668 LINE",
"272 741 LINE",
"274 817 LINE",
"604 817 LINE",
"604 899 LINE",
"279 899 LINE",
"304 1224 OFFCURVE",
"395 1386 OFFCURVE",
"553 1386 CURVE SMOOTH",
"607 1386 OFFCURVE",
"663 1366 OFFCURVE",
"721 1325 CURVE",
"772 1411 LINE",
"705 1460 OFFCURVE",
"631 1485 OFFCURVE",
"549 1485 CURVE SMOOTH"
);
}
);
width = 819;
}
);
unicode = 20AC;
},
{
glyphname = cent;
lastChange = "2013-03-07 05:31:29 +0200";
layers = (
{
layerId = "A1CEB6E1-F2CA-49E9-B0B5-3CAF1AD39F7C";
name = "Light Condensed";
paths = (
{
closed = 1;
nodes = (
"438 1483 LINE",
"438 1309 LINE",
"257 1272 OFFCURVE",
"168 1077 OFFCURVE",
"168 745 CURVE SMOOTH",
"168 416 OFFCURVE",
"258 224 OFFCURVE",
"438 193 CURVE",
"438 -20 LINE",
"520 -20 LINE",
"520 188 LINE",
"579 194 OFFCURVE",
"625 207 OFFCURVE",
"659 227 CURVE",
"659 311 LINE",
"604 290 OFFCURVE",
"553 279 OFFCURVE",
"506 279 CURVE SMOOTH",
"347 279 OFFCURVE",
"268 435 OFFCURVE",
"268 748 CURVE SMOOTH",
"268 1053 OFFCURVE",
"338 1221 OFFCURVE",
"506 1221 CURVE SMOOTH",
"541 1221 OFFCURVE",
"582 1211 OFFCURVE",
"629 1192 CURVE",
"666 1278 LINE",
"627 1299 OFFCURVE",
"579 1311 OFFCURVE",
"520 1315 CURVE",
"520 1483 LINE"
);
}
);
width = 819;
}
);
unicode = 00A2;
},
{
glyphname = currency;
lastChange = "2013-03-07 05:31:29 +0200";
layers = (
{
layerId = "A1CEB6E1-F2CA-49E9-B0B5-3CAF1AD39F7C";
name = "Light Condensed";
paths = (
{
closed = 1;
nodes = (
"813 1028 LINE",
"742 1087 OFFCURVE",
"660 1116 OFFCURVE",
"567 1116 CURVE SMOOTH",
"473 1116 OFFCURVE",
"390 1086 OFFCURVE",
"317 1026 CURVE",
"182 1163 LINE",
"125 1106 LINE",
"260 968.999 LINE",
"203 896 OFFCURVE",
"174 814 OFFCURVE",
"174 723 CURVE SMOOTH",
"174 631 OFFCURVE",
"203 548 OFFCURVE",
"260 475 CURVE",
"127 342 LINE",
"184 283 LINE",
"317 418 LINE",
"388 359 OFFCURVE",
"472 330 OFFCURVE",
"567 330 CURVE SMOOTH",
"660 330 OFFCURVE",
"742 359 OFFCURVE",
"813 416 CURVE",
"950 281 LINE",
"1008 338 LINE",
"872 475 LINE",
"931 547 OFFCURVE",
"961 630 OFFCURVE",
"961 723 CURVE SMOOTH",
"961 816 OFFCURVE",
"931 899 OFFCURVE",
"872 970.999 CURVE",
"1008 1106 LINE",
"948 1163 LINE"
);
},
{
closed = 1;
nodes = (
"737 1044 OFFCURVE",
"891 892 OFFCURVE",
"885 723 CURVE",
"885 636 OFFCURVE",
"854 561 OFFCURVE",
"792 500 CURVE SMOOTH",
"731 439 OFFCURVE",
"656 408 OFFCURVE",
"567 408 CURVE SMOOTH",
"478 408 OFFCURVE",
"404 438 OFFCURVE",
"343 499 CURVE SMOOTH",
"282 560 OFFCURVE",
"252 635 OFFCURVE",
"252 723 CURVE",
"247 894 OFFCURVE",
"397 1044 OFFCURVE",
"567 1040 CURVE"
);
}
);
width = 1135;
}
);
unicode = 00A4;
},
{
glyphname = dollar;
lastChange = "2013-03-07 05:31:29 +0200";
layers = (
{
layerId = "A1CEB6E1-F2CA-49E9-B0B5-3CAF1AD39F7C";
name = "Light Condensed";
paths = (
{
closed = 1;
nodes = (
"367 1556 LINE",
"367 1370 LINE",
"290 1357 OFFCURVE",
"226 1321 OFFCURVE",
"177 1262 CURVE SMOOTH",
"128 1203 OFFCURVE",
"104 1132 OFFCURVE",
"104 1049 CURVE SMOOTH",
"104 966 OFFCURVE",
"123 899 OFFCURVE",
"161 848 CURVE SMOOTH",
"200 797 OFFCURVE",
"268 750 OFFCURVE",
"367 709 CURVE",
"367 215 LINE",
"271 215 OFFCURVE",
"163 239 OFFCURVE",
"93.9999 279 CURVE",
"93.9999 176 LINE",
"159 141 OFFCURVE",
"250 123 OFFCURVE",
"367 123 CURVE",
"367 -119 LINE",
"449 -119 LINE",
"449 129 LINE",
"534 143 OFFCURVE",
"601 178 OFFCURVE",
"651 235 CURVE SMOOTH",
"702 292 OFFCURVE",
"727 362 OFFCURVE",
"727 444 CURVE SMOOTH",
"727 521 OFFCURVE",
"706 586 OFFCURVE",
"663 637 CURVE SMOOTH",
"621 688 OFFCURVE",
"550 735 OFFCURVE",
"449 776 CURVE",
"449 1284 LINE",
"518 1282 OFFCURVE",
"592 1263 OFFCURVE",
"670 1227 CURVE",
"707 1313 LINE",
"628 1351 OFFCURVE",
"542 1371 OFFCURVE",
"449 1374 CURVE",
"449 1556 LINE"
);
},
{
closed = 1;
nodes = (
"578 621 OFFCURVE",
"629 551 OFFCURVE",
"629 438 CURVE SMOOTH",
"629 387 OFFCURVE",
"613 341 OFFCURVE",
"580 301 CURVE SMOOTH",
"547 262 OFFCURVE",
"504 236 OFFCURVE",
"449 223 CURVE",
"449 676 LINE"
);
},
{
closed = 1;
nodes = (
"367 809 LINE",
"309 837 OFFCURVE",
"267 869 OFFCURVE",
"240 905 CURVE SMOOTH",
"214 942 OFFCURVE",
"201 991.999 OFFCURVE",
"201 1055 CURVE SMOOTH",
"201 1110 OFFCURVE",
"216 1158 OFFCURVE",
"246 1199 CURVE SMOOTH",
"277 1240 OFFCURVE",
"317 1267 OFFCURVE",
"367 1278 CURVE"
);
}
);
width = 819;
}
);
unicode = 0024;
},
{
glyphname = sterling;
lastChange = "2013-03-07 05:31:29 +0200";
layers = (
{
layerId = "A1CEB6E1-F2CA-49E9-B0B5-3CAF1AD39F7C";
name = "Light Condensed";
paths = (
{
closed = 1;
nodes = (
"321 1483 OFFCURVE",
"238 1366 OFFCURVE",
"238 1122 CURVE SMOOTH",
"238 768 LINE",
"80 768 LINE",
"80 682 LINE",
"238 682 LINE",
"238 393 LINE SMOOTH",
"238 234 OFFCURVE",
"183 121 OFFCURVE",
"92 82 CURVE",
"92 0 LINE",
"737 0 LINE",
"737 93.9999 LINE",
"215 93.9999 LINE",
"296 152 OFFCURVE",
"336 252 OFFCURVE",
"336 395 CURVE SMOOTH",
"336 682 LINE",
"586 682 LINE",
"586 768 LINE",
"336 768 LINE",
"336 1120 LINE SMOOTH",
"336 1309 OFFCURVE",
"384 1393 OFFCURVE",
"504 1393 CURVE SMOOTH",
"537 1393 OFFCURVE",
"566 1388 OFFCURVE",
"593 1377 CURVE SMOOTH",
"620 1367 OFFCURVE",
"651 1348 OFFCURVE",
"686 1319 CURVE",
"741 1395 LINE",
"674 1454 OFFCURVE",
"595 1483 OFFCURVE",
"506 1483 CURVE SMOOTH"
);
}
);
width = 819;
}
);
unicode = 00A3;
},
{
glyphname = uni20AA;
lastChange = "2013-03-07 05:31:29 +0200";
layers = (
{
layerId = "A1CEB6E1-F2CA-49E9-B0B5-3CAF1AD39F7C";
name = "Light Condensed";
paths = (
{
closed = 1;
nodes = (
"896 1290 LINE",
"896 647 LINE SMOOTH",
"896 275 OFFCURVE",
"829 84 OFFCURVE",
"495 84 CURVE SMOOTH",
"472 84 LINE",
"472 1026 LINE",
"377 1026 LINE",
"377 0 LINE",
"495 0 LINE SMOOTH",
"883 0 OFFCURVE",
"990.999 231 OFFCURVE",
"990.999 647 CURVE SMOOTH",
"990.999 1290 LINE"
);
},
{
closed = 1;
nodes = (
"145 1290 LINE",
"145 0 LINE",
"240 0 LINE",
"240 1206 LINE",
"286 1206 LINE SMOOTH",
"514 1206 OFFCURVE",
"648 1173 OFFCURVE",
"648 933 CURVE SMOOTH",
"648 264 LINE",
"743 264 LINE",
"743 933 LINE SMOOTH",
"743 1234 OFFCURVE",
"576 1290 OFFCURVE",
"286 1290 CURVE SMOOTH"
);
}
);
width = 1131;
}
);
unicode = 20AA;
},
{
glyphname = yen;
lastChange = "2013-03-07 05:31:29 +0200";
layers = (
{
layerId = "A1CEB6E1-F2CA-49E9-B0B5-3CAF1AD39F7C";
name = "Light Condensed";
paths = (
{
closed = 1;
nodes = (
"612 1462 LINE",
"410 696 LINE",
"203 1462 LINE",
"106 1462 LINE",
"332 655 LINE",
"141 655 LINE",
"141 573 LINE",
"354 573 LINE",
"356 571 LINE",
"356 373 LINE",
"141 373 LINE",
"141 291 LINE",
"356 291 LINE",
"356 0 LINE",
"459 0 LINE",
"459 291 LINE",
"680 291 LINE",
"680 373 LINE",
"459 373 LINE",
"459 573 LINE",
"680 573 LINE",
"680 655 LINE",
"483 655 LINE",
"711 1462 LINE"
);
}
);
width = 819;
}
);
unicode = 00A5;
},
{
glyphname = _181;
lastChange = "2013-03-07 05:31:29 +0200";
layers = (
{
layerId = "A1CEB6E1-F2CA-49E9-B0B5-3CAF1AD39F7C";
name = "Light Condensed";
paths = (
{
closed = 1;
nodes = (
"635 1085 LINE",
"635 489 LINE SMOOTH",
"635 193 OFFCURVE",
"561 68 OFFCURVE",
"397 68 CURVE SMOOTH",
"292 68 OFFCURVE",
"240 163 OFFCURVE",
"240 352 CURVE SMOOTH",
"240 1085 LINE",
"145 1085 LINE",
"145 -492 LINE",
"240 -492 LINE",
"240 -97 LINE SMOOTH",
"240 -55 OFFCURVE",
"237 6 OFFCURVE",
"231 86 CURVE",
"240 86 LINE",
"272 15 OFFCURVE",
"327 -20 OFFCURVE",
"406 -20 CURVE SMOOTH",
"495 -20 OFFCURVE",
"584 44 OFFCURVE",
"629 152 CURVE",
"637 152 LINE",
"649 0 LINE",
"729 0 LINE",
"729 1085 LINE"
);
}
);
width = 874;
}
);
unicode = 00B5;
},
{
glyphname = asciitilde;
lastChange = "2013-03-07 05:31:29 +0200";
layers = (
{
layerId = "A1CEB6E1-F2CA-49E9-B0B5-3CAF1AD39F7C";
name = "Light Condensed";
paths = (
{
closed = 1;
nodes = (
"711 759 OFFCURVE",
"645 711 OFFCURVE",
"580 711 CURVE SMOOTH",
"533 711 OFFCURVE",
"493 727 OFFCURVE",
"428 764 CURVE SMOOTH",
"379 791 OFFCURVE",
"343 807 OFFCURVE",
"319 813 CURVE",
"295 820 OFFCURVE",
"270 823 OFFCURVE",
"244 823 CURVE SMOOTH",
"171 823 OFFCURVE",
"109 788 OFFCURVE",
"59 717 CURVE",
"59 618 LINE",
"116 693 OFFCURVE",
"187 739 OFFCURVE",
"242 739 CURVE SMOOTH",
"263 739 OFFCURVE",
"284 735 OFFCURVE",
"304 728 CURVE SMOOTH",
"324 721 OFFCURVE",
"354 706 OFFCURVE",
"393 684 CURVE SMOOTH",
"439 659 OFFCURVE",
"473 642 OFFCURVE",
"496 635 CURVE SMOOTH",
"519 628 OFFCURVE",
"547 625 OFFCURVE",
"580 625 CURVE SMOOTH",
"651 625 OFFCURVE",
"711 660 OFFCURVE",
"760 729 CURVE",
"760 827 LINE"
);
}
);
width = 819;
}
);
unicode = 007E;
},
{
glyphname = divide;
lastChange = "2013-03-07 05:31:29 +0200";
layers = (
{
layerId = "A1CEB6E1-F2CA-49E9-B0B5-3CAF1AD39F7C";
name = "Light Condensed";
paths = (
{
closed = 1;
nodes = (
"59 764 LINE",
"59 682 LINE",
"760 682 LINE",
"760 764 LINE"
);
},
{
closed = 1;
nodes = (
"358 479 OFFCURVE",
"332 444 OFFCURVE",
"332 373 CURVE SMOOTH",
"332 302 OFFCURVE",
"358 266 OFFCURVE",
"410 266 CURVE SMOOTH",
"453 266 OFFCURVE",
"487 297 OFFCURVE",
"487 373 CURVE SMOOTH",
"487 444 OFFCURVE",
"461 479 OFFCURVE",
"410 479 CURVE SMOOTH"
);
},
{
closed = 1;
nodes = (
"358 1178 OFFCURVE",
"332 1142 OFFCURVE",
"332 1071 CURVE SMOOTH",
"332 999.999 OFFCURVE",
"358 965 OFFCURVE",
"410 965 CURVE SMOOTH",
"453 965 OFFCURVE",
"487 994.999 OFFCURVE",
"487 1071 CURVE SMOOTH",
"487 1142 OFFCURVE",
"461 1178 OFFCURVE",
"410 1178 CURVE SMOOTH"
);
}
);
width = 819;
}
);
unicode = 00F7;
},
{
glyphname = equal;
lastChange = "2013-03-07 05:31:29 +0200";
layers = (
{
layerId = "A1CEB6E1-F2CA-49E9-B0B5-3CAF1AD39F7C";
name = "Light Condensed";
paths = (
{
closed = 1;
nodes = (
"59 547 LINE",
"59 465 LINE",
"760 465 LINE",
"760 547 LINE"
);
},
{
closed = 1;
nodes = (
"59 976.999 LINE",
"59 895 LINE",
"760 895 LINE",
"760 976.999 LINE"
);
}
);
width = 819;
}
);
unicode = 003D;
},
{
glyphname = greater;
lastChange = "2013-03-07 05:31:29 +0200";
layers = (
{
layerId = "A1CEB6E1-F2CA-49E9-B0B5-3CAF1AD39F7C";
name = "Light Condensed";
paths = (
{
closed = 1;
nodes = (
"57 1057 LINE",
"657 723 LINE",
"57 389 LINE",
"57 287 LINE",
"760 690 LINE",
"760 758 LINE",
"57 1157 LINE"
);
}
);
width = 819;
}
);
unicode = 003E;
},
